<?xml version="1.0" encoding="UTF-8"?>
<svg version="1.1" xmlns="http://www.w3.org/2000/svg" width="1280" height="192">
<path d="M0 0 C9.9 0 19.8 0 30 0 C30 52.47 30 104.94 30 159 C47.24275323 155.93268079 47.24275323 155.93268079 61 146 C64.48745391 140.2751406 67.09487029 134.71957517 67.15821838 127.95037842 C67.1680072 127.15394928 67.17779602 126.35752014 67.18788147 125.53695679 C67.19363693 124.67236847 67.1993924 123.80778015 67.20532227 122.91699219 C67.21522186 121.99957245 67.22512146 121.08215271 67.23532104 120.13693237 C67.26688842 117.10693943 67.2916747 114.07693081 67.31640625 111.046875 C67.33697988 108.94508458 67.35797647 106.84329826 67.37937927 104.74151611 C67.43455762 99.21121543 67.48398563 93.68087767 67.53222656 88.1505127 C67.58247249 82.50655825 67.63814243 76.86265761 67.69335938 71.21875 C67.80088917 60.1458776 67.90184442 49.07295947 68 38 C77.9 38 87.8 38 98 38 C98.00410889 40.81499023 98.00821777 43.62998047 98.01245117 46.53027344 C98.02970463 55.86620851 98.07429966 65.20187194 98.13209057 74.53763962 C98.16627507 80.1939288 98.19145728 85.84995032 98.19555664 91.50634766 C98.19985787 96.97255642 98.22847179 102.43816225 98.27343178 107.90418243 C98.28634857 109.98196135 98.29073527 112.05981263 98.28615379 114.13762665 C98.26474046 126.80628077 98.3227379 137.37624803 106.1875 147.9375 C115.18615558 154.53651409 125.13145197 157.18857533 136 159 C136 106.53 136 54.06 136 0 C145.9 0 155.8 0 166 0 C166.02311612 24.62526724 166.04097774 49.25053187 166.05181217 73.87580776 C166.05697575 85.30889187 166.06401961 96.74196912 166.07543945 108.17504883 C166.08538441 118.13626026 166.09185298 128.09746672 166.09408849 138.05868298 C166.09539592 143.33654174 166.09848379 148.6143863 166.10573006 153.89224052 C166.11248731 158.85383884 166.11461757 163.81541703 166.11310768 168.7770195 C166.11338414 170.603628 166.11539101 172.43023713 166.11920547 174.25684166 C166.12413813 176.73944452 166.12299989 179.22197015 166.12025452 181.70457458 C166.12462378 182.80328916 166.12462378 182.80328916 166.12908131 183.9242 C166.11412121 188.88587879 166.11412121 188.88587879 165 190 C159.67490251 190.28940747 154.33251314 190.24593878 149 190.25 C148.2199057 190.25067474 147.4398114 190.25134949 146.63607788 190.25204468 C135.46848819 190.23660528 124.84348938 189.9801643 114 187 C113.3615918 186.82839355 112.72318359 186.65678711 112.06542969 186.47998047 C102.10482675 183.73061819 91.11935221 179.83128743 84 172 C80.80089924 173.49980936 77.98390973 175.3312131 75.0625 177.3125 C60.74938356 186.45540705 43.66750697 190.18159191 26.81640625 190.1328125 C26.07543198 190.13376923 25.3344577 190.13472595 24.57102966 190.13571167 C23.02236851 190.13638646 21.47370441 190.1345816 19.92504883 190.13037109 C17.54437045 190.12495878 15.16387615 190.13036703 12.78320312 190.13671875 C11.27343708 190.13605889 9.76367115 190.13477965 8.25390625 190.1328125 C7.54045547 190.13483673 6.8270047 190.13686096 6.0919342 190.13894653 C1.11498818 190.11498818 1.11498818 190.11498818 0 189 C-0.09769053 186.5588998 -0.12996385 184.14612708 -0.12025452 181.70457458 C-0.12110894 180.93192876 -0.12196337 180.15928294 -0.12284368 179.36322361 C-0.12450082 176.75441446 -0.11897331 174.14566854 -0.11352539 171.53686523 C-0.11324354 169.67467246 -0.1134012 167.81247957 -0.1139679 165.95028687 C-0.11425597 160.87818414 -0.10835771 155.80610485 -0.10139394 150.7340076 C-0.09516197 145.43953999 -0.09455673 140.1450719 -0.09336853 134.8506012 C-0.09025475 124.81728576 -0.08204073 114.78398115 -0.07201904 104.75067049 C-0.06085935 93.33127715 -0.05534782 81.91188331 -0.05032361 70.49248588 C-0.03985815 46.99498437 -0.02205746 23.49749324 0 0 Z " fill="#213551" transform="translate(549,2)"/>
<path d="M0 0 C9.9 0 19.8 0 30 0 C49.14 38.28 68.28 76.56 88 116 C88.33 77.72 88.66 39.44 89 0 C98.9 0 108.8 0 119 0 C119 62.7 119 125.4 119 190 C109.1 190 99.2 190 89 190 C87.88367187 187.70675781 86.76734375 185.41351563 85.6171875 183.05078125 C78.56651784 168.56971075 71.51397044 154.08957821 64.4375 139.62109375 C63.97296417 138.67128128 63.50842834 137.72146881 63.02981567 136.74287415 C60.80567778 132.19578163 58.58081988 127.64904304 56.35498047 123.1027832 C47.86584899 105.75313091 39.43902745 88.37446827 31 71 C30.67 110.27 30.34 149.54 30 190 C20.1 190 10.2 190 0 190 C-1.6904086 188.3095914 -1.12477866 186.21105955 -1.13374341 183.95503521 C-1.13151268 183.22713189 -1.12928196 182.49922857 -1.12698364 181.74926758 C-1.12854363 180.98141088 -1.13010362 180.21355417 -1.13171089 179.42242908 C-1.13572388 176.82977739 -1.1325301 174.23718346 -1.12939453 171.64453125 C-1.13074844 169.79381272 -1.13252831 167.94309446 -1.13470459 166.09237671 C-1.13928016 161.05120056 -1.13748886 156.01004478 -1.1343255 150.96886826 C-1.13180254 145.70556328 -1.13413926 140.44226011 -1.13571167 135.17895508 C-1.13753355 126.3383757 -1.13512657 117.49780467 -1.13037109 108.65722656 C-1.12492844 98.42061984 -1.12669108 88.18403303 -1.1321975 77.9474268 C-1.1367281 69.17548737 -1.13737944 60.40355395 -1.13475883 51.63161373 C-1.13319576 46.38507193 -1.1330031 41.1385395 -1.13629532 35.89199829 C-1.13917326 30.96075122 -1.13719976 26.02952995 -1.13140106 21.09828568 C-1.13007305 19.28296578 -1.13046827 17.46764373 -1.13266373 15.65232468 C-1.13537363 13.18509743 -1.13199609 10.71795423 -1.12698364 8.25073242 C-1.12921436 7.5228291 -1.13144509 6.79492579 -1.13374341 6.04496479 C-1.11414986 1.11414986 -1.11414986 1.11414986 0 0 Z " fill="#213551" transform="translate(1161,1)"/>
<path d="M0 0 C1.27481232 -0.00043808 1.27481232 -0.00043808 2.57537842 -0.00088501 C5.3510604 0.00049501 8.12646522 0.0159929 10.90209961 0.03173828 C12.83979648 0.03547314 14.77749526 0.03831788 16.7151947 0.04031372 C21.79012356 0.04791293 26.86493611 0.06752919 31.93981934 0.08972168 C37.12840197 0.11026045 42.31700358 0.11933255 47.50561523 0.12939453 C57.66777543 0.15077886 67.82984968 0.18486953 77.99194336 0.22705078 C78.08525768 8.34703634 78.1560157 16.46679212 78.19919205 24.58718395 C78.2199307 28.35918005 78.24799133 32.1308052 78.29370117 35.90258789 C78.33765663 39.55309423 78.36118316 43.20324731 78.37145233 46.85399818 C78.37875583 48.23606224 78.39301336 49.61811036 78.41486359 51.00002098 C78.63358512 65.42710973 75.49409086 79.76341389 65.67553711 90.84033203 C63.49734048 93.03251387 61.2771738 95.14749108 58.99194336 97.22705078 C58.33194336 97.88705078 57.67194336 98.54705078 56.99194336 99.22705078 C57.48823242 99.71431641 57.98452148 100.20158203 58.49584961 100.70361328 C77.05112611 120.06870261 77.17213426 145.73980013 77.05444336 170.91455078 C77.04941827 172.79150271 77.04485715 174.66845595 77.04077148 176.54541016 C77.03070392 181.10601607 77.01111455 185.66643811 76.99194336 190.22705078 C67.09194336 190.22705078 57.19194336 190.22705078 46.99194336 190.22705078 C46.94295898 187.74173828 46.89397461 185.25642578 46.84350586 182.69580078 C46.78915802 180.22976771 46.73198515 177.76381469 46.67456055 175.29785156 C46.63679252 173.61269348 46.60185987 171.92746893 46.57006836 170.2421875 C46.82968951 143.15816516 46.82968951 143.15816516 35.01928711 119.94189453 C20.22217797 107.42565 -2.37079825 109.8352321 -20.00805664 109.22705078 C-20.00805664 135.95705078 -20.00805664 162.68705078 -20.00805664 190.22705078 C-29.90805664 190.22705078 -39.80805664 190.22705078 -50.00805664 190.22705078 C-50.07587888 170.85945468 -50.1310996 151.4919553 -50.16349316 132.12427044 C-50.17893642 123.13073653 -50.19997716 114.13728186 -50.234375 105.14379883 C-50.26435537 97.30152115 -50.2836501 89.45930089 -50.29032212 81.6169675 C-50.2942198 77.46772927 -50.30332643 73.31865524 -50.32524681 69.16946983 C-50.34574873 65.25673656 -50.35186304 61.34423369 -50.34737968 57.4314518 C-50.3481988 56.00249602 -50.35408239 54.5735318 -50.36567307 53.1446228 C-50.44605892 42.71488593 -49.44917673 33.22539954 -44.57055664 23.85205078 C-44.1799707 23.08119141 -43.78938477 22.31033203 -43.38696289 21.51611328 C-37.51420842 11.76700812 -27.07405072 4.65393491 -16.1156702 1.72047615 C-10.6603806 0.40889732 -5.59815222 -0.05153102 0 0 Z M-14.50805664 33.47705078 C-15.13711914 34.03908203 -15.76618164 34.60111328 -16.41430664 35.18017578 C-20.3439907 40.22712296 -20.28418218 45.81312004 -20.20336914 51.90673828 C-20.20053925 52.71950226 -20.19770935 53.53226624 -20.1947937 54.36965942 C-20.18366283 56.94727753 -20.15857179 59.52453897 -20.13305664 62.10205078 C-20.12301766 63.85725407 -20.11389341 65.61246285 -20.10571289 67.36767578 C-20.08374679 71.65427004 -20.04926642 75.94060008 -20.00805664 80.22705078 C-13.78249682 80.30166567 -7.55720208 80.35587169 -1.33129883 80.3918457 C0.78300516 80.40685565 2.89727843 80.42726998 5.01147461 80.45336914 C8.06493757 80.49009711 11.11798593 80.50685552 14.17163086 80.52001953 C15.10433807 80.53550339 16.03704529 80.55098724 16.99801636 80.56694031 C25.80918413 80.56915826 34.02088182 78.90117064 40.99194336 73.22705078 C46.86856599 67.08330894 48.31198655 61.77031455 48.18725586 53.42236328 C48.18301102 52.33639359 48.18301102 52.33639359 48.17868042 51.22848511 C48.16756423 48.93616588 48.14247648 46.64425015 48.11694336 44.35205078 C48.10690245 42.78955646 48.09777855 41.22705596 48.08959961 39.66455078 C48.06765309 35.85189741 48.03318349 32.0395423 47.99194336 28.22705078 C41.33914492 28.17603292 34.68639759 28.14118458 28.03344727 28.1171875 C25.77366246 28.10717559 23.51389046 28.09356206 21.25415039 28.07617188 C17.99223658 28.05171112 14.73049516 28.04051925 11.46850586 28.03173828 C10.47017731 28.02141571 9.47184875 28.01109314 8.44326782 28.00045776 C-3.92944503 27.92356732 -3.92944503 27.92356732 -14.50805664 33.47705078 Z " fill="#213551" transform="translate(228.008056640625,0.77294921875)"/>
<path d="M0 0 C2.48128832 2.17715433 4.81411025 4.42554777 7.11328125 6.79296875 C7.67402344 7.33308594 8.23476562 7.87320312 8.8125 8.4296875 C22.65456834 22.85305004 23.59309298 43.05032741 23.51171875 61.85546875 C23.51374826 63.5430514 23.5166669 65.23063319 23.52041626 66.91821289 C23.52479851 70.4276579 23.51854281 73.93687133 23.50439453 77.44628906 C23.48730512 81.89706367 23.49716863 86.34729514 23.51511192 90.79804993 C23.52606193 94.27465756 23.52245267 97.75114088 23.51472855 101.22775269 C23.51275735 102.8668525 23.5150745 104.5059644 23.52216721 106.14505005 C23.58961464 126.100692 21.05864509 144.57992676 6.48046875 159.55078125 C-1.60228316 167.20672118 -9.33491415 172.04199502 -19.88671875 175.79296875 C-20.83417969 176.13457031 -21.78164062 176.47617188 -22.7578125 176.828125 C-43.28684946 182.8169214 -67.02247594 179.7191953 -85.6953125 169.77734375 C-90.69064277 166.6713122 -94.79815186 162.998981 -98.88671875 158.79296875 C-99.53253906 158.16777344 -100.17835938 157.54257813 -100.84375 156.8984375 C-114.41661731 142.85244191 -115.35979362 123.36845765 -115.28515625 104.98046875 C-115.28718384 103.19555544 -115.29010092 101.41064294 -115.29385376 99.62573242 C-115.29824496 95.90763362 -115.29195051 92.18975288 -115.27783203 88.47167969 C-115.26074212 83.74489474 -115.27060067 79.01862113 -115.28854942 74.29185486 C-115.29947463 70.612877 -115.29590123 66.93401713 -115.28816605 63.2550354 C-115.28618808 61.51380348 -115.28853705 59.77256026 -115.29560471 58.03134155 C-115.33839342 44.53284544 -114.63300184 31.51139692 -108.07421875 19.35546875 C-107.71875977 18.67863037 -107.36330078 18.00179199 -106.99707031 17.30444336 C-100.06454542 4.428638 -88.6069665 -4.20447443 -74.88671875 -9.20703125 C-73.88382813 -9.59890625 -72.8809375 -9.99078125 -71.84765625 -10.39453125 C-48.80658067 -18.02192179 -19.48126924 -14.89433981 0 0 Z M-76.7265625 25.71484375 C-83.18580876 33.86391727 -85.00197154 41.99668538 -85.03198242 52.30786133 C-85.03534103 53.03555222 -85.03869965 53.7632431 -85.04216003 54.51298523 C-85.05161257 56.90450781 -85.05361032 59.29595993 -85.0546875 61.6875 C-85.05790423 63.36130298 -85.06126862 65.03510568 -85.06477356 66.70890808 C-85.07075073 70.21325329 -85.07261493 73.71757389 -85.07202148 77.22192383 C-85.07191999 81.69373177 -85.08556557 86.1653805 -85.10279369 90.63715076 C-85.11395884 94.09373182 -85.1159393 97.55027494 -85.11541176 101.00687218 C-85.11658533 102.65455358 -85.12097179 104.30223618 -85.12874413 105.94989967 C-85.18204184 118.41616219 -85.05619946 129.60217323 -76.88671875 139.79296875 C-67.31545101 148.45423481 -56.16397127 151.11805628 -43.49609375 150.9453125 C-31.74784844 150.25941195 -22.07345426 146.31385673 -13.88671875 137.79296875 C-7.73532993 129.86091474 -6.77177907 121.35940305 -6.74145508 111.54760742 C-6.73809647 110.86039108 -6.73473785 110.17317474 -6.73127747 109.46513367 C-6.72184942 107.21371609 -6.71982846 104.96237354 -6.71875 102.7109375 C-6.71553165 101.13064037 -6.71216715 99.55034352 -6.70866394 97.970047 C-6.70269294 94.66418772 -6.70082194 91.35835451 -6.70141602 88.05249023 C-6.7015175 83.83975721 -6.68787078 79.62719326 -6.67064381 75.41450024 C-6.65946381 72.15175119 -6.65749865 68.88904225 -6.65802574 65.62627602 C-6.65685444 64.07431773 -6.65248106 62.52235812 -6.64469337 60.97041893 C-6.58757811 48.4128323 -6.60232403 36.0964545 -15.19921875 26.10546875 C-31.56450978 12.0237067 -60.60725144 8.87683729 -76.7265625 25.71484375 Z " fill="#213551" transform="translate(1079.88671875,13.20703125)"/>
<path d="M0 0 C9.9 0 19.8 0 30 0 C30 26.4 30 52.8 30 80 C51.78 80 73.56 80 96 80 C96 53.6 96 27.2 96 0 C105.9 0 115.8 0 126 0 C126 62.37 126 124.74 126 189 C116.1 189 106.2 189 96 189 C96 162.27 96 135.54 96 108 C74.22 108 52.44 108 30 108 C30 134.73 30 161.46 30 189 C20.1 189 10.2 189 0 189 C0 126.63 0 64.26 0 0 Z " fill="#213551" transform="translate(780,2)"/>
<path d="M0 0 C39.27 0 78.54 0 119 0 C119 9.57 119 19.14 119 29 C89.63 29 60.26 29 30 29 C30 45.5 30 62 30 79 C48.48 79 66.96 79 86 79 C86 88.57 86 98.14 86 108 C67.52 108 49.04 108 30 108 C30 125.49 30 142.98 30 161 C59.37 161 88.74 161 119 161 C119 170.57 119 180.14 119 190 C79.73 190 40.46 190 0 190 C0 127.3 0 64.6 0 0 Z " fill="#213551" transform="translate(370,1)"/>
<path d="M0 0 C38.94 0 77.88 0 118 0 C118 9.57 118 19.14 118 29 C88.96 29 59.92 29 30 29 C30 45.5 30 62 30 79 C48.15 79 66.3 79 85 79 C85 88.57 85 98.14 85 108 C66.85 108 48.7 108 30 108 C30 125.49 30 142.98 30 161 C59.04 161 88.08 161 118 161 C118 170.57 118 180.14 118 190 C79.06 190 40.12 190 0 190 C0 127.3 0 64.6 0 0 Z " fill="#213551" transform="translate(0,1)"/>
</svg>
