<?xml version="1.0" encoding="UTF-8"?>
<svg version="1.1" xmlns="http://www.w3.org/2000/svg" width="2560" height="1013">
<path d="M0 0 C15.55786233 14.34677125 20.8556256 36.92746195 21.859375 57.28027344 C23.78423976 115.82022283 13.36243793 174.3967307 -4 230.0625 C-4.50847473 231.69623566 -4.50847473 231.69623566 -5.02722168 233.36297607 C-23.85152527 293.8039893 -42.87514521 354.30164891 -69 412.0625 C-69.27116638 412.66221619 -69.54233276 413.26193237 -69.82171631 413.87982178 C-82.55912002 442.00461746 -96.066143 469.80093855 -111.54736328 496.52441406 C-113.41355803 499.78507971 -115.20745496 503.08211627 -116.99707031 506.38525391 C-123.95669479 519.2272336 -131.41790661 531.76951652 -138.93566895 544.28991699 C-139.99791702 546.05903092 -141.05901768 547.82882982 -142.12011719 549.59863281 C-156.25485614 573.15341274 -170.86062331 596.4101631 -186.42578125 619.05078125 C-187.01786377 619.91268066 -187.60994629 620.77458008 -188.2199707 621.66259766 C-189.38109796 623.35038077 -190.54487626 625.03634404 -191.71166992 626.72021484 C-192.23994385 627.48672363 -192.76821777 628.25323242 -193.3125 629.04296875 C-193.78300781 629.72254639 -194.25351563 630.40212402 -194.73828125 631.10229492 C-197.51213949 635.4117585 -198.23347826 637.88920702 -197.8984375 643.1015625 C-197.82270508 644.30868896 -197.74697266 645.51581543 -197.66894531 646.75952148 C-197.57194336 648.05575439 -197.47494141 649.3519873 -197.375 650.6875 C-197.32710327 651.35355255 -197.27920654 652.0196051 -197.2298584 652.70584106 C-194.37450457 691.93533411 -186.57314023 739.90048975 -156.6875 768.4375 C-146.73581512 776.70187499 -135.68266468 780.43491018 -122.75 779.9375 C-90.90826326 776.19141332 -63.86585854 748.46880789 -44.0390625 725.3828125 C-41.96473149 723.02236687 -39.83577265 720.72358025 -37.69091797 718.42749023 C-32.75083552 713.13542499 -27.9958354 707.76534554 -23.4609375 702.1171875 C-21.58831621 699.79275917 -19.69898235 697.48877726 -17.7890625 695.1953125 C-10.15973553 686.02601352 -2.79824105 676.69602585 4.39111328 667.17871094 C5.99527515 665.06871473 7.61736463 662.97388738 9.24609375 660.8828125 C17.2678363 650.5602041 24.73543898 639.92898544 32 629.0625 C32.70858154 628.00369629 33.41716309 626.94489258 34.1472168 625.85400391 C40.70244634 616.04651996 47.19868716 606.20029099 53.68579102 596.34765625 C55.43099289 593.69738173 57.17737631 591.04788846 58.92382812 588.3984375 C65.58645495 578.28505503 72.20589607 568.14529035 78.76986694 557.96760559 C80.52215986 555.25383165 82.28033142 552.5438828 84.03842163 549.8338623 C89.0729219 542.07292602 94.07077037 534.28849369 99.0625 526.5 C99.74965088 525.43048096 100.43680176 524.36096191 101.14477539 523.2590332 C104.16158657 518.55228756 107.15770439 513.84035292 110.03515625 509.046875 C110.48044678 508.31025635 110.9257373 507.5736377 111.38452148 506.81469727 C112.17806709 505.49389129 112.96120686 504.16674161 113.73071289 502.83178711 C116.54401404 498.15982517 119.80015376 495.27623478 124.92578125 493.33203125 C133.666733 492.19620136 143.61351458 491.5652205 151 497.0625 C155.67436799 501.63368106 159.04460171 507.54646893 160 514.0625 C159.64142889 519.44735735 158.11325453 523.24921868 155.625 528 C148.61512832 542.11787087 147.20696081 557.01338771 152 572.0625 C154.14678296 577.81171932 156.54970392 583.43703316 159 589.0625 C159.37624512 589.92907227 159.75249023 590.79564453 160.14013672 591.68847656 C164.66921553 602.09595681 169.28435534 612.4651298 173.9140625 622.828125 C219.05872573 723.90710519 219.05872573 723.90710519 199.02539062 776.5390625 C194.31947789 788.12008965 187.95336872 798.43767025 180 808.0625 C179.31550781 808.92230469 178.63101563 809.78210938 177.92578125 810.66796875 C164.7178142 826.41499046 144.99079446 836.22918069 125 840.0625 C124.09604492 840.23837646 123.19208984 840.41425293 122.26074219 840.59545898 C113.80664624 842.07578145 105.5547595 842.40327616 96.99951172 842.37817383 C94.76609974 842.37502272 92.53403009 842.39854514 90.30078125 842.42382812 C76.87720361 842.48364043 63.60576099 840.83388663 50.875 836.375 C50.13765625 836.12153809 49.4003125 835.86807617 48.640625 835.60693359 C36.838145 831.38126045 26.39469911 825.41739746 17 817.0625 C16.071875 816.299375 15.14375 815.53625 14.1875 814.75 C8.89614417 808.24919141 6.13015222 801.10725772 6.5859375 792.69921875 C7.70957287 785.5439935 10.58508365 780.74803555 16.21875 776.25390625 C22.22955957 772.23351827 27.88855344 772.16241953 35 773.0625 C39.01583696 774.55215461 42.42240251 776.72679216 46 779.0625 C62.53878839 789.61518052 80.14676626 798.48398017 100.3671875 794.37890625 C111.40130286 790.9956724 120.01480698 784.20029876 125.6640625 774.08203125 C136.35253081 752.04693772 139.24489931 720.92098602 131.22192383 697.55151367 C126.55224537 684.68581518 120.00625326 672.5851564 113.49658203 660.57641602 C105.09925774 645.03021595 99.00402468 628.98899258 94 612.0625 C93.29875 613.15046875 92.5975 614.2384375 91.875 615.359375 C72.44647988 645.47134328 51.82925485 674.64508294 30 703.0625 C29.04922466 704.30449271 28.09867404 705.54665751 27.1484375 706.7890625 C24.77567518 709.88802137 22.39069581 712.97734497 20 716.0625 C19.58508301 716.5982666 19.17016602 717.1340332 18.74267578 717.68603516 C4.89815487 735.53066154 -9.49696556 752.98461226 -24.77734375 769.62109375 C-26.68499871 771.71649683 -28.53736202 773.8435429 -30.375 776 C-34.84469595 781.15079247 -39.74655907 785.88603487 -44.59570312 790.67529297 C-47.61005953 793.65296562 -50.60191346 796.64216018 -53.515625 799.71875 C-73.33614594 820.33209178 -98.62070106 837.58820689 -128.03393555 838.34570312 C-159.62855003 838.70293989 -186.25527689 826.64258367 -209 805.0625 C-209.9590625 804.16789063 -210.918125 803.27328125 -211.90625 802.3515625 C-238.55555986 776.99305835 -250.96592826 743.3650426 -258 708.0625 C-259.64706923 709.99896083 -261.29286276 711.93647476 -262.9375 713.875 C-263.44112061 714.46812988 -263.94474121 715.06125977 -264.46362305 715.67236328 C-267.46736117 719.21986111 -270.40981748 722.80640847 -273.3125 726.4375 C-278.18771423 732.43708797 -283.4865257 738.01409245 -288.7890625 743.6328125 C-291.09281774 746.07849904 -293.33023397 748.5587285 -295.5 751.125 C-302.6750685 759.45027032 -310.7066917 767.33194265 -319.08984375 774.43359375 C-321.3780394 776.38487716 -323.5909906 778.41067687 -325.8125 780.4375 C-356.79487413 808.32632392 -390.75805358 831.84121431 -432 841.0625 C-432.72509766 841.22476074 -433.45019531 841.38702148 -434.19726562 841.55419922 C-467.87922552 848.71789964 -505.23698582 844.32213827 -534.5859375 825.8515625 C-565.07971676 805.71544681 -584.04027583 772.02066687 -591.3125 736.8125 C-600.32699054 689.28358743 -589.59755724 634.46451266 -563 594.0625 C-562.59281738 593.44197754 -562.18563477 592.82145508 -561.76611328 592.18212891 C-555.92681875 583.40581515 -549.30447291 575.64365749 -542 568.0625 C-541.33484375 567.33417969 -540.6696875 566.60585938 -539.984375 565.85546875 C-524.47378451 549.33473477 -501.15202545 539.36992047 -479 536.0625 C-478.29875 535.95164062 -477.5975 535.84078125 -476.875 535.7265625 C-452.49588801 532.59452381 -424.35413956 535.09927007 -404 550.0625 C-400.49970185 552.90616128 -397.21796912 555.90432422 -394 559.0625 C-393.0409375 559.98482422 -393.0409375 559.98482422 -392.0625 560.92578125 C-378.40076482 575.16692038 -375.34784017 594.58519931 -375.53369141 613.48950195 C-376.2042363 637.13910469 -386.74833236 656.68534962 -401 675.0625 C-401.42442383 675.61534668 -401.84884766 676.16819336 -402.28613281 676.73779297 C-413.26992009 690.86043233 -426.51540751 704.22634478 -440.6328125 715.19921875 C-443.19615471 717.21689901 -445.59272526 719.36145596 -448 721.5625 C-452.24651686 725.42783345 -456.6301311 729.07648246 -461.09375 732.6875 C-464.20392562 735.22914889 -467.25904794 737.82840387 -470.3125 740.4375 C-475.49027809 744.85113951 -480.78107031 749.09944132 -486.15551758 753.27099609 C-489.83552508 756.12869502 -493.43505203 759.06213655 -497 762.0625 C-495.23960797 773.20498137 -487.36145881 783.18332286 -478.5859375 789.9140625 C-465.64998071 798.25056799 -451.78985952 798.4166897 -437.06787109 795.4621582 C-404.7804215 788.45031478 -377.30724919 768.28597221 -353.40625 746.2578125 C-352.08149027 745.0491843 -350.7486513 743.84857087 -349.38305664 742.6862793 C-343.32883009 737.51773017 -337.71375104 731.92819171 -332.09985352 726.29272461 C-330.4407268 724.62823723 -328.77631949 722.96916553 -327.11132812 721.31054688 C-321.53019601 715.73327137 -316.10328984 710.08495958 -311 704.0625 C-309.95520969 702.87056527 -308.90834044 701.68044955 -307.859375 700.4921875 C-301.16427095 692.85477015 -294.72678194 685.07590051 -288.52441406 677.03417969 C-286.78153775 674.77994056 -285.02799629 672.53421983 -283.2734375 670.2890625 C-281.99467201 668.65113507 -280.71602494 667.01311519 -279.4375 665.375 C-278.82914307 664.59600342 -278.22078613 663.81700684 -277.59399414 663.0144043 C-277.02543701 662.28390869 -276.45687988 661.55341309 -275.87109375 660.80078125 C-275.36505615 660.15149658 -274.85901855 659.50221191 -274.33764648 658.83325195 C-270.69531796 654.01160407 -270.94335404 650.8250099 -271.3671875 645.015625 C-272.13176807 632.27723337 -272.15551242 619.57024389 -272.125 606.8125 C-272.12311676 605.61119446 -272.12123352 604.40988892 -272.11929321 603.17218018 C-271.96593951 519.10798208 -266.71816319 435.41169028 -249 353.0625 C-248.79955078 352.13026611 -248.59910156 351.19803223 -248.39257812 350.23754883 C-234.67357831 286.70169803 -217.36219332 223.61642277 -191 164.0625 C-190.54044922 163.0223877 -190.08089844 161.98227539 -189.60742188 160.91064453 C-171.87442215 121.04839027 -151.10664344 81.40784936 -124 47.0625 C-123.29875 46.16917969 -122.5975 45.27585938 -121.875 44.35546875 C-101.7353574 19.21687915 -76.1348209 -5.31363422 -43.046875 -10.62109375 C-26.91390828 -12.29644029 -13.02291023 -10.19742675 0 0 Z M-47.75 45.9375 C-57.98388916 55.22307511 -65.6290077 67.48368916 -73 79.0625 C-73.48162598 79.81853516 -73.96325195 80.57457031 -74.45947266 81.35351562 C-121.85405836 156.13130336 -153.49910059 237.99874859 -199.10728836 510.38887787 C-199.31125354 513.10838077 -199.51650736 515.82778425 -199.72189331 518.54718018 C-200.04794127 522.87417996 -200.36818488 527.201575 -200.68405533 531.5293293 C-200.80147071 533.1300139 -200.9203902 534.73058904 -201.04098129 536.33103752 C-201.73619923 545.5859286 -202.16548487 554.77455909 -202 564.0625 C-199.48456496 561.62665523 -197.71147006 559.20044418 -195.875 556.20703125 C-195.26043945 555.20824951 -194.64587891 554.20946777 -194.01269531 553.18041992 C-193.34850586 552.08963135 -192.68431641 550.99884277 -192 549.875 C-191.29532461 548.72301591 -190.59057021 547.57108016 -189.88574219 546.41918945 C-168.03756081 510.63781533 -147.17961306 474.35097397 -128 437.0625 C-127.26547607 435.64445068 -127.26547607 435.64445068 -126.51611328 434.19775391 C-111.70973322 405.54670063 -99.98139797 375.91111907 -88.9453125 345.65234375 C-88.01578611 343.10574872 -87.08250315 340.5605581 -86.1484375 338.015625 C-66.84483095 285.3414425 -47.41638028 231.32199211 -37 176.0625 C-36.7844043 174.92167969 -36.56880859 173.78085938 -36.34667969 172.60546875 C-33.5849948 157.67700519 -31.47758087 142.70265692 -29.75 127.625 C-29.66691589 126.9026416 -29.58383179 126.1802832 -29.49822998 125.43603516 C-27.82153331 110.69425173 -26.81302658 96.01094924 -26.81469727 81.17358398 C-26.81249766 78.99768857 -26.79420023 76.82229191 -26.77539062 74.64648438 C-26.53473983 56.53419649 -26.53473983 56.53419649 -33 40.0625 C-38.66355127 37.73517023 -43.49259572 42.5001695 -47.75 45.9375 Z M-491.3515625 596.0703125 C-514.46207348 624.00007696 -520.87456719 669.1028992 -519 704.0625 C-518.32062901 710.54425386 -517.06320831 716.87287506 -515 723.0625 C-512.17833881 721.76706614 -510.02213999 720.37220315 -507.75 718.26171875 C-507.14776611 717.70347412 -506.54553223 717.14522949 -505.92504883 716.57006836 C-504.97214966 715.66913452 -504.97214966 715.66913452 -504 714.75 C-503.33572998 714.12552979 -502.67145996 713.50105957 -501.98706055 712.85766602 C-496.20768574 707.36771 -490.78864464 701.60813429 -485.46484375 695.68017578 C-483.96137941 694.01984999 -482.43766259 692.380656 -480.90625 690.74609375 C-475.43110785 684.89819428 -470.14145147 678.97749852 -465.13671875 672.71484375 C-463.73335147 670.97282112 -462.29890858 669.25529745 -460.83203125 667.56640625 C-447.91622174 652.54749147 -433.53853467 631.07903405 -434.09375 610.60546875 C-434.95218393 603.51513464 -436.96530735 597.93563058 -441 592.0625 C-441.598125 591.155 -442.19625 590.2475 -442.8125 589.3125 C-447.94255822 584.03586869 -453.74056103 580.97599311 -461.125 580.8125 C-473.36292653 581.03282274 -483.10504479 587.35920224 -491.3515625 596.0703125 Z " fill="#213551" transform="translate(1262,18.9375)"/>
<path d="M0 0 C1.49506828 -0.00855011 1.49506828 -0.00855011 3.02033997 -0.01727295 C5.12381958 -0.02666591 7.22731353 -0.03323404 9.33081055 -0.03710938 C12.46626386 -0.04671187 15.60103092 -0.07774776 18.73632812 -0.109375 C61.56509078 -0.33440916 108.02607791 9.29922997 139.64453125 40.078125 C152.95009449 53.51359211 160.54224313 70.80803734 160.70703125 89.703125 C160.6488759 97.19780383 159.88842995 104.10078253 157.33203125 111.203125 C157.07679688 111.91339844 156.8215625 112.62367188 156.55859375 113.35546875 C151.92639915 124.08601129 142.71353396 131.43118732 132.33203125 136.203125 C117.15025021 141.84895741 103.17951658 142.24511356 87.33203125 139.203125 C86.31367188 139.03941406 85.2953125 138.87570312 84.24609375 138.70703125 C79.51124522 137.55899263 77.08517433 136.40315381 74.44921875 132.203125 C73.23433388 129.67558199 72.18286351 127.09329506 71.13671875 124.4921875 C66.51822275 113.05917173 59.37526313 102.47865328 51.33203125 93.203125 C50.55988281 92.23503906 49.78773438 91.26695312 48.9921875 90.26953125 C34.54092279 72.96133535 11.03104321 64.84034848 -10.66796875 62.203125 C-15.69229415 61.91128118 -20.69852717 61.86886055 -25.73046875 61.890625 C-26.41149658 61.89278015 -27.09252441 61.8949353 -27.79418945 61.89715576 C-38.98980598 61.95380844 -49.73631132 62.68356925 -60.66796875 65.203125 C-61.54791504 65.40180176 -62.42786133 65.60047852 -63.33447266 65.80517578 C-100.63682892 74.42234927 -135.71876168 90.71513224 -166.66796875 113.203125 C-167.34730469 113.69312988 -168.02664062 114.18313477 -168.7265625 114.68798828 C-176.63578539 120.41554703 -184.18066998 126.3071229 -191.30859375 132.9921875 C-193.30093723 134.85918487 -195.33025621 136.63302086 -197.41796875 138.390625 C-206.87743933 146.64084367 -215.81415024 155.69429498 -223.578125 165.5546875 C-225.788661 168.35607705 -228.09724728 171.05502232 -230.41796875 173.765625 C-259.71953203 208.96378771 -283.04577521 251.83559536 -297.66796875 295.203125 C-298.00489746 296.19747559 -298.34182617 297.19182617 -298.68896484 298.21630859 C-311.74224205 337.31377385 -319.07739912 378.20145515 -322.66796875 419.203125 C-322.76223145 420.17950928 -322.85649414 421.15589355 -322.95361328 422.16186523 C-327.92063631 477.93202634 -321.25526184 537.64759091 -284.66796875 582.203125 C-283.88421875 583.15960937 -283.10046875 584.11609375 -282.29296875 585.1015625 C-277.0119356 591.23133312 -271.09597839 596.3086548 -264.66796875 601.203125 C-263.50007813 602.09451172 -263.50007813 602.09451172 -262.30859375 603.00390625 C-228.45122363 627.71524182 -185.60390022 635.89431313 -144.46044922 630.02514648 C-133.01722074 628.14733411 -121.74835936 625.62425943 -110.66796875 622.203125 C-109.80059082 621.9354834 -108.93321289 621.6678418 -108.03955078 621.39208984 C-57.64844166 605.50413288 -11.64738701 576.14785112 25.64453125 539.015625 C26.77375 537.89341553 26.77375 537.89341553 27.92578125 536.74853516 C32.59904029 532.06183533 37.03234524 527.23331106 41.33203125 522.203125 C42.22110794 521.18207721 43.11041254 520.16122781 44 519.140625 C51.1741106 510.77639063 57.84176602 502.10627631 64.33203125 493.203125 C64.82316406 492.53297363 65.31429688 491.86282227 65.8203125 491.17236328 C82.29013933 468.61326341 98.95578985 444.84476689 102.64453125 416.578125 C102.73331543 415.92207275 102.82209961 415.26602051 102.91357422 414.59008789 C103.59546493 408.40523281 102.97511894 402.37288886 102.33203125 396.203125 C59.29047912 408.35577715 19.3520591 428.6378577 -19.66796875 450.203125 C-20.73112305 450.78900391 -21.79427734 451.37488281 -22.88964844 451.97851562 C-34.3809355 458.3240848 -45.778096 464.81965401 -57.10546875 471.453125 C-101.28050412 497.31028393 -101.28050412 497.31028393 -118.33984375 493.015625 C-126.34793975 490.22085324 -132.54119878 485.65044166 -136.66796875 478.203125 C-140.85286176 469.09192092 -142.02641417 458.74052844 -138.66796875 449.203125 C-124.63917293 420.39174731 -87.7142106 404.84927818 -60.66796875 391.203125 C-59.04834229 390.38521484 -59.04834229 390.38521484 -57.39599609 389.55078125 C-13.95232984 367.7629052 32.50800718 348.54804924 80.33203125 339.203125 C81.58113281 338.95691406 82.83023437 338.71070313 84.1171875 338.45703125 C106.87389303 334.73693846 130.83931731 335.12728698 150.3125 348.5703125 C158.92506282 355.3006596 163.83398862 365.06777071 167.33203125 375.203125 C167.65300781 376.12996094 167.97398437 377.05679687 168.3046875 378.01171875 C173.55863626 396.4127579 170.32972464 415.21352977 165.33203125 433.203125 C157.42576872 462.06522901 152.03498146 490.89337337 147.85284424 520.51739502 C147.40390555 523.69447933 146.95129445 526.87101368 146.49687195 530.0473175 C142.23021711 559.88435232 138.23134664 589.74612281 134.89453125 619.703125 C134.77478943 620.77132477 134.65504761 621.83952454 134.53167725 622.94009399 C124.20357288 699.11723459 124.20357288 699.11723459 144.33203125 771.203125 C144.82960938 772.10546875 145.3271875 773.0078125 145.83984375 773.9375 C147.53067064 776.43390409 148.68407635 777.74001772 151.33203125 779.203125 C155.40689409 779.85198851 159.32462643 780.02926399 163.44140625 780.078125 C171.24108036 780.32871694 178.15667958 783.00457693 183.73828125 788.6171875 C189.71494305 795.39305408 190.21753869 802.46005644 190.33203125 811.203125 C189.84462933 818.22171261 187.07627231 824.02050438 182.33203125 829.203125 C173.85775752 835.73683193 165.39910542 837.59637003 154.89453125 837.578125 C153.44397339 837.57570801 153.44397339 837.57570801 151.96411133 837.57324219 C140.14804128 837.37391379 128.80711625 834.8466018 118.33203125 829.203125 C117.53667969 828.78417969 116.74132812 828.36523438 115.921875 827.93359375 C109.24959159 824.19010244 103.77260567 819.55651072 98.33203125 814.203125 C97.56890625 813.45289063 96.80578125 812.70265625 96.01953125 811.9296875 C61.33691597 775.68153751 62.32294691 718.60586792 63.26629639 671.97607422 C64.03475201 639.55966204 69.26954731 607.816875 74.68994141 575.92211914 C74.86383392 574.89758133 75.03772644 573.87304352 75.21688843 572.81745911 C75.54776894 570.87201624 75.88024468 568.92684385 76.21450806 566.98197937 C76.36189423 566.11684219 76.5092804 565.25170502 76.66113281 564.36035156 C76.79118713 563.60256409 76.92124146 562.84477661 77.05523682 562.06402588 C77.38107244 560.18698125 77.38107244 560.18698125 77.33203125 558.203125 C76.93113281 558.66460938 76.53023438 559.12609375 76.1171875 559.6015625 C74.1947561 561.80734547 72.26312689 564.00492454 70.33203125 566.203125 C69.71457031 566.91597656 69.09710938 567.62882813 68.4609375 568.36328125 C63.43259141 574.07775644 58.14125882 579.49970854 52.76953125 584.890625 C52.06135254 585.603396 51.35317383 586.31616699 50.62353516 587.05053711 C46.02224101 591.63850808 41.26877181 595.97991044 36.33203125 600.203125 C35.32285048 601.08065305 34.31373059 601.95825113 33.3046875 602.8359375 C-21.28256888 649.58314498 -88.06449283 684.10013272 -159.66796875 694.203125 C-160.47169922 694.32026855 -161.27542969 694.43741211 -162.10351562 694.55810547 C-186.07880933 697.8946176 -212.76313213 698.2115733 -236.66796875 694.203125 C-237.5614502 694.06310059 -238.45493164 693.92307617 -239.37548828 693.77880859 C-287.48974034 686.03452901 -336.79281883 663.84760023 -366.48046875 623.828125 C-371.86291915 616.31659916 -376.42927503 608.40510109 -380.66796875 600.203125 C-381.04163574 599.48705078 -381.41530273 598.77097656 -381.80029297 598.03320312 C-421.71298687 520.62470339 -415.70363069 421.11990163 -393.66796875 339.203125 C-393.25659668 337.66108398 -393.25659668 337.66108398 -392.83691406 336.08789062 C-386.16091191 311.37790894 -377.29384923 287.47450119 -366.66796875 264.203125 C-366.12172852 262.98520264 -366.12172852 262.98520264 -365.56445312 261.74267578 C-346.75845878 219.85894158 -319.82727474 181.59892163 -288.96411133 147.73461914 C-287.53784082 146.1621578 -286.11945571 144.58245902 -284.71362305 142.99169922 C-278.9466847 136.48061747 -272.90685059 130.28770092 -266.74731445 124.15209961 C-265.10055471 122.51072704 -263.4592478 120.86403681 -261.81835938 119.21679688 C-256.2741003 113.66867351 -250.6608077 108.26963918 -244.66796875 103.203125 C-243.53787053 102.21881476 -242.4089349 101.23316792 -241.28125 100.24609375 C-233.6233713 93.60216219 -225.81095247 87.24518825 -217.66796875 81.203125 C-216.67869385 80.46690918 -216.67869385 80.46690918 -215.66943359 79.71582031 C-154.64728616 34.48813773 -77.14832547 0.35400492 0 0 Z " fill="#213551" transform="translate(417.66796875,166.796875)"/>
<path d="M0 0 C9.75796728 0.17741759 20.01139271 3.42048201 27.1640625 10.17578125 C31.98942968 15.44794169 34.63641419 19.67555012 34.44506836 27.05639648 C34.09242526 29.47325251 33.36955006 31.30455946 32.37890625 33.53515625 C29.50653484 40.50319884 27.62497422 47.73187413 25.6875 55 C25.48167297 55.76470612 25.27584595 56.52941223 25.06378174 57.31729126 C20.77274321 73.29012345 16.87049588 89.35847967 13 105.4375 C12.55963913 107.26504822 12.55963913 107.26504822 12.11038208 109.1295166 C11.2758788 112.5998558 10.44546843 116.07113969 9.6171875 119.54296875 C9.36455643 120.59649033 9.11192535 121.6500119 8.85163879 122.73545837 C8.50911324 124.17967918 8.50911324 124.17967918 8.15966797 125.65307617 C7.95888641 126.49633957 7.75810486 127.33960297 7.55123901 128.2084198 C7.05687589 130.22869766 7.05687589 130.22869766 7.125 132.25 C7.42043701 131.7238208 7.71587402 131.1976416 8.02026367 130.65551758 C25.60539771 99.41517107 44.41359371 68.27714765 68.125 41.25 C68.70121094 40.56292969 69.27742188 39.87585938 69.87109375 39.16796875 C83.21038553 23.36706203 101.64599268 3.89986663 123.55200195 2.04443359 C126.30902681 1.94526918 129.05374492 1.92100591 131.8125 1.9375 C132.79057617 1.94313965 133.76865234 1.9487793 134.77636719 1.95458984 C147.35939074 2.16577053 157.84358591 4.67405164 167.3828125 13.2890625 C185.22215075 31.91833455 181.4539438 66.33876539 182.55078125 90.5078125 C183.92444642 120.46450225 186.43800288 150.25845687 190.25912476 180.00726318 C190.45669802 181.54925282 190.65028259 183.09176046 190.83926392 184.63482666 C192.70078451 199.65889539 195.33575436 216.06002111 206.875 226.8125 C212.02810628 229.09175854 217.00197816 229.3145431 222.37109375 227.484375 C229.21365179 224.22478213 233.61597303 219.99770776 237.5 213.5 C248.17686897 196.35391704 248.17686897 196.35391704 258.25 193.6875 C263.97489292 192.73335118 269.02219589 193.41617258 274.125 196.25 C278.24404083 199.91136962 280.83395639 203.36035276 281.3984375 208.96484375 C281.95868718 226.74199702 271.33996237 240.3608616 260.125 253.25 C259.57328125 253.89839844 259.0215625 254.54679688 258.453125 255.21484375 C246.87833529 267.84970083 228.16889993 275.66135942 211.26171875 276.5703125 C189.97456156 277.25737822 169.80651551 272.55146639 153.359375 258.3671875 C124.84562926 231.34891793 117.71063346 188.5516495 114.5625 151.125 C114.35970369 148.83949068 114.15566086 146.55409167 113.95043945 144.26879883 C113.42923384 138.4271471 112.92476167 132.58418626 112.42504883 126.74066162 C111.93333994 121.02029485 111.42686535 115.30123798 110.921875 109.58203125 C109.9729563 98.80609459 109.04248143 88.0286559 108.125 77.25 C101.76324174 83.40015089 95.75366382 89.45584275 90.6875 96.75 C90.14657715 97.51497803 89.6056543 98.27995605 89.04833984 99.06811523 C83.08325802 107.59201745 77.5430347 116.37126554 72.125 125.25 C71.55555664 126.18166992 70.98611328 127.11333984 70.39941406 128.07324219 C56.13630177 151.47838191 42.60915406 175.27233006 29.64990234 199.42236328 C28.16094356 202.18334962 26.65642276 204.9351074 25.14453125 207.68359375 C18.38479849 219.9731046 11.86880179 232.37546595 5.4375 244.83984375 C2.65091783 250.24043722 -0.16255591 255.62598272 -3 261 C-8.66372872 271.72977752 -14.26921906 282.4898617 -19.875 293.25 C-37.25121913 293.48952182 -53.8056349 289.81265023 -67.875 279.25 C-68.83148437 278.55777344 -69.78796875 277.86554688 -70.7734375 277.15234375 C-72.15402344 276.05599609 -72.15402344 276.05599609 -73.5625 274.9375 C-74.80580078 273.95330078 -74.80580078 273.95330078 -76.07421875 272.94921875 C-78.88014248 268.74337645 -78.2497843 265.18174453 -77.875 260.25 C-77.80915207 259.2994725 -77.80915207 259.2994725 -77.74197388 258.32974243 C-77.33940119 252.5672741 -76.83401742 246.81526234 -76.3125 241.0625 C-76.18337219 239.6291481 -76.18337219 239.6291481 -76.05163574 238.1668396 C-70.28722426 174.6448662 -61.56811468 112.10185773 -48.56970215 49.62188721 C-48.08895116 47.28845826 -47.61729732 44.9531434 -47.1529541 42.61639404 C-46.42535372 38.95762933 -45.67205829 35.30491747 -44.9140625 31.65234375 C-44.59143936 29.98758751 -44.59143936 29.98758751 -44.26229858 28.28919983 C-42.55372843 20.25362771 -39.76588275 13.70138104 -33.5234375 8.1640625 C-22.90182548 2.14149898 -11.98756181 0.77339108 0 0 Z M5.125 134.25 C6.125 136.25 6.125 136.25 6.125 136.25 Z " fill="#213551" transform="translate(1922.875,575.75)"/>
<path d="M0 0 C1.49195912 -0.01143325 2.9838802 -0.03174526 4.47558594 -0.06152344 C29.32364602 -0.55544934 50.46397402 8.01356419 68.66430664 24.97094727 C75.2120873 32.01602772 79.36230443 40.48091698 79.07836914 50.24829102 C78.36558923 55.9943937 76.03029765 61.30501509 71.82446289 65.29516602 C66.38881541 68.73520865 61.38183642 71.3880616 54.82446289 70.29516602 C49.33679952 68.64309052 45.9188715 65.52489278 42.01196289 61.42016602 C33.66038069 52.72220483 24.04054956 48.42141403 12.03149414 47.95922852 C-6.50604976 47.69693877 -20.68075711 49.78103918 -35.17553711 62.29516602 C-58.47702504 88.68294374 -67.64077114 124.01442195 -71.17553711 158.29516602 C-71.2697998 159.13329834 -71.3640625 159.97143066 -71.46118164 160.83496094 C-72.49754382 171.22917307 -72.41924715 181.67240313 -72.42553711 192.10766602 C-72.42621185 193.11139252 -72.4268866 194.11511902 -72.42758179 195.14926147 C-72.82047409 233.088638 -72.82047409 233.088638 -56.44897461 266.16235352 C-50.92358682 271.24960483 -45.45393332 272.79373244 -38.01147461 272.60375977 C-20.09413444 270.65407674 -6.83679976 259.10533625 4.16137695 245.66088867 C6.95450115 242.02483544 9.42280565 238.19542272 11.82446289 234.29516602 C12.21021484 233.67867187 12.5959668 233.06217773 12.9934082 232.42700195 C30.02946285 205.02951745 42.06843518 175.58356433 49.82446289 144.29516602 C50.03296875 143.47516113 50.24147461 142.65515625 50.45629883 141.81030273 C53.71943872 128.67245031 54.78129752 115.36444014 55.69848633 101.89501953 C55.75199753 101.17467026 55.80550873 100.45432098 55.86064148 99.71214294 C56.00698818 97.73543385 56.13991517 95.75774439 56.27197266 93.7800293 C57.1936186 87.96669559 59.39626547 84.0120876 64.08618164 80.39282227 C74.05652805 74.0969406 87.80670605 73.70881603 99.10180664 75.94360352 C105.2531513 77.91810921 109.43708984 80.72280806 112.82446289 86.29516602 C125.69613094 124.91017018 101.58216038 185.74440023 84.51928711 219.90844727 C74.05299295 240.27528995 60.49518519 257.66691822 44.82446289 274.29516602 C44.13481445 275.02735352 43.44516602 275.75954102 42.73461914 276.51391602 C37.48424514 281.92534443 31.7297771 286.61915305 25.82446289 291.29516602 C24.34139648 292.50366211 24.34139648 292.50366211 22.82836914 293.73657227 C10.14005948 303.94574134 -3.71062611 312.09442458 -19.17553711 317.29516602 C-20.18229492 317.63418945 -21.18905273 317.97321289 -22.22631836 318.32250977 C-46.56141591 325.17168767 -76.06033852 319.2626215 -98.17553711 307.92016602 C-103.99773714 304.58796348 -109.16829915 300.74988117 -114.17553711 296.29516602 C-114.86131836 295.69188477 -115.54709961 295.08860352 -116.25366211 294.46704102 C-139.79969341 272.40422429 -147.78614348 237.18916275 -149.08569336 206.15844727 C-149.1153418 204.88356445 -149.14499023 203.60868164 -149.17553711 202.29516602 C-149.19600098 201.62404785 -149.21646484 200.95292969 -149.23754883 200.26147461 C-150.81337484 143.96150894 -139.83510393 85.1356934 -101.17553711 42.29516602 C-100.46010742 41.49594727 -99.74467773 40.69672852 -99.00756836 39.87329102 C-73.91840776 13.32491095 -35.86581326 0.19021808 0 0 Z " fill="#213551" transform="translate(1679.175537109375,543.704833984375)"/>
<path d="M0 0 C4.14989027 4.40139877 6.75754141 9.05991845 7.21875 15.11328125 C6.90870761 19.22909391 4.92486316 22.56858976 3.0625 26.1875 C-8.61852239 50.30664809 -9.77988512 67.21753829 -2.9375 93.1875 C-2.64842773 94.3010083 -2.64842773 94.3010083 -2.35351562 95.43701172 C0.83357427 107.22644863 6.14586933 118.1670266 11.24456787 129.21817017 C31.90759542 174.01926156 50.80927887 224.17923979 33.5625 273.31640625 C28.93170018 285.63495955 22.60716386 296.20722218 14.0625 306.1875 C13.43988281 306.92355469 12.81726562 307.65960937 12.17578125 308.41796875 C-6.04709303 328.22200349 -35.48240794 336.32751394 -61.50390625 337.41015625 C-86.61993955 338.07313319 -112.59406189 331.04774989 -131.4375 313.6875 C-133.31191553 311.88862062 -135.12392594 310.04979695 -136.9375 308.1875 C-137.69804687 307.424375 -138.45859375 306.66125 -139.2421875 305.875 C-147.41610121 297.23841193 -153.45107684 286.07888524 -154.9375 274.1875 C-157.53420678 277.38650638 -159.99664871 280.63640741 -162.375 284 C-167.43654406 290.99739579 -172.91817965 297.63760228 -178.40380859 304.30419922 C-179.77696943 305.99037602 -181.12346246 307.69262378 -182.45703125 309.41015625 C-190.1169878 319.1628505 -198.09134987 326.51859303 -210.8125 328.0625 C-217.90288702 328.48845567 -223.2694525 327.44051789 -228.75 322.8125 C-229.471875 321.94625 -230.19375 321.08 -230.9375 320.1875 C-231.9584375 319.07375 -231.9584375 319.07375 -233 317.9375 C-237.15186938 312.04452411 -239.77977209 306.18495454 -239.44921875 298.8671875 C-236.93621459 285.70748633 -227.48087119 278.25200951 -217.5859375 270.3984375 C-214.86191585 268.12440173 -212.41913097 265.72387283 -209.9375 263.1875 C-208.69168238 261.95023177 -207.44413988 260.71469904 -206.1953125 259.48046875 C-204.81765605 258.1120318 -203.44005306 256.74354103 -202.0625 255.375 C-201.38058594 254.70146484 -200.69867187 254.02792969 -199.99609375 253.33398438 C-196.01083223 249.36770029 -192.21557286 245.30200937 -188.54541016 241.04272461 C-186.27882786 238.42751677 -183.92132704 235.90737437 -181.5625 233.375 C-177.26998792 228.72845872 -173.20411969 223.9465076 -169.23828125 219.015625 C-167.19925087 216.50924471 -165.11361053 214.05137426 -163.00415039 211.60424805 C-156.2541598 203.75255957 -150.03126634 195.55547586 -143.9375 187.1875 C-143.46763672 186.54393555 -142.99777344 185.90037109 -142.51367188 185.23730469 C-110.33981853 140.95910179 -82.7666729 92.88630017 -57.9375 44.1875 C-57.43057617 43.20088379 -56.92365234 42.21426758 -56.40136719 41.19775391 C-50.79090947 30.27281152 -45.48970339 19.33326135 -41.01635742 7.88525391 C-38.71654625 2.21450189 -36.52086583 -0.78646194 -31.0859375 -3.859375 C-20.31366308 -8.13032081 -9.6843171 -5.9754297 0 0 Z M-52.9375 123.1875 C-53.48535156 124.26902344 -54.03320312 125.35054687 -54.59765625 126.46484375 C-75.20887346 166.63872304 -101.16313726 204.64408475 -128.9375 240.1875 C-130.31257261 241.95827695 -131.68758073 243.72910398 -133.0625 245.5 C-134.02046101 246.72945687 -134.97863125 247.95875097 -135.9375 249.1875 C-133.5568913 250.37780435 -132.436655 250.13865474 -129.8125 249.9375 C-124.234453 249.95523624 -121.05999521 251.45624336 -116.9375 255.1875 C-114.36103224 258.00333711 -111.93788319 260.94697115 -109.49853516 263.88134766 C-99.96357641 275.25213728 -86.98187896 283.90616313 -71.86962891 285.390625 C-69.76241447 285.48953204 -67.67191173 285.51688687 -65.5625 285.5 C-64.81935547 285.49436035 -64.07621094 285.4887207 -63.31054688 285.48291016 C-52.39730348 285.24266657 -44.07349211 281.81730363 -35.99609375 274.40625 C-24.09133063 261.85868109 -22.17326854 244.68586743 -22.5859375 228.1484375 C-23.05114635 218.01090077 -24.86642805 208.10427981 -26.9375 198.1875 C-27.1034668 197.37249023 -27.26943359 196.55748047 -27.44042969 195.71777344 C-29.89730381 184.07091509 -34.16540063 173.36520211 -38.76757812 162.41186523 C-44.10842162 149.62228428 -48.17406963 136.51256445 -51.9375 123.1875 C-52.2675 123.1875 -52.5975 123.1875 -52.9375 123.1875 Z " fill="#213551" transform="translate(2511.9375,523.8125)"/>
<path d="M0 0 C12.57308801 8.50083278 16.41418847 19.40663135 19.33203125 33.89453125 C24.79567696 71.25405459 8.57868299 104.80220729 -13.0703125 134.19140625 C-14.95694696 136.61432331 -16.90409415 138.95145762 -18.91796875 141.26953125 C-19.74683594 142.23117187 -20.57570313 143.1928125 -21.4296875 144.18359375 C-35.15824911 159.80377864 -52.9218279 174.58703407 -73.66796875 179.08203125 C-74.74046875 179.14390625 -75.81296875 179.20578125 -76.91796875 179.26953125 C-77.62308594 179.31980469 -78.32820313 179.37007812 -79.0546875 179.421875 C-85.84451006 179.71006781 -90.81303547 178.03369789 -96.66796875 174.70703125 C-100.49707047 170.55883772 -102.91796875 164.94589418 -102.91796875 159.26953125 C-101.9021875 158.78484375 -100.88640625 158.30015625 -99.83984375 157.80078125 C-72.44513245 144.54635412 -51.84639152 126.40686756 -40.5078125 97.69921875 C-36.70963547 87.16555435 -36.70963547 87.16555435 -36.91796875 76.26953125 C-38.67942874 74.30241858 -40.60340419 72.7990115 -42.6875 71.1796875 C-46.60424735 67.82541525 -49.20115456 63.61090355 -51.91796875 59.26953125 C-52.33175781 58.645625 -52.74554687 58.02171875 -53.171875 57.37890625 C-59.39004421 46.82408028 -58.99518415 31.86062322 -56.19921875 20.296875 C-53.09781668 10.57825729 -46.63390984 3.46527744 -37.91796875 -1.73046875 C-25.13128177 -8.1738384 -12.17944319 -7.22288264 0 0 Z " fill="#213551" transform="translate(2329.91796875,398.73046875)"/>
</svg>
