<?xml version="1.0" encoding="UTF-8"?>
<svg version="1.1" xmlns="http://www.w3.org/2000/svg" width="851" height="225">
<path d="M0 0 C7.61574791 -0.04665034 15.23148072 -0.08203343 22.84733963 -0.10362434 C26.38493196 -0.11399477 29.92242546 -0.12802821 33.45996094 -0.15087891 C37.54102444 -0.17707101 41.62198659 -0.1865284 45.703125 -0.1953125 C46.95361633 -0.20563507 48.20410767 -0.21595764 49.49249268 -0.22659302 C61.69298458 -0.22812844 74.64894376 0.26266831 84.10546875 8.9296875 C88.89264538 14.16103516 91.57133546 18.50784317 91.296875 25.8359375 C90.03171773 35.05826812 83.94792363 41.27596536 77 47 C73.10979154 49.56296087 69.13394509 51.85489447 65 54 C66.02673828 54.96873047 66.02673828 54.96873047 67.07421875 55.95703125 C70.6878366 59.57319122 73.711393 63.63353185 76.8125 67.6875 C78.0609325 69.30228857 79.30962853 70.91687343 80.55859375 72.53125 C82.51502958 75.06852753 84.46565 77.60979773 86.41015625 80.15625 C100.73202997 98.60669567 124.19013336 110.07268136 147 114 C147.75023437 114.13019531 148.50046875 114.26039063 149.2734375 114.39453125 C164.26023141 116.48376832 181.90187158 116.38887445 194.5625 107.125 C196.46573765 104.31151826 196.30209309 102.32302401 196 99 C194.1746875 99.2165625 194.1746875 99.2165625 192.3125 99.4375 C191.28576172 99.55931641 191.28576172 99.55931641 190.23828125 99.68359375 C187.80221623 100.02795896 185.40809975 100.49813683 183 101 C186.03403552 93.75040552 189.43998981 88.48770571 196 84 C200.72862677 82.42379108 206.3026876 81.67606459 210.91796875 83.94140625 C215.16352799 87.28543933 216.73235857 90.79970569 217.37109375 96.05078125 C217.52027839 103.37837973 217.14936974 108.5381685 212 114 C201.84402436 123.47155119 189.38425453 126.31252414 175.8671875 126.30078125 C174.44705353 126.30911232 174.44705353 126.30911232 172.99822998 126.31761169 C169.95699345 126.32933703 166.91623583 126.32316365 163.875 126.3125 C162.84010437 126.31100952 161.80520874 126.30951904 160.73895264 126.3079834 C145.96150398 126.26953856 131.52628767 125.96989063 117 123 C116.28473145 122.86609863 115.56946289 122.73219727 114.83251953 122.59423828 C92.97115146 118.42029043 71.77688709 107.64805047 58.73095703 89.20605469 C52.62936032 80.20960729 47.58521452 70.69450375 42.91894531 60.890625 C42.26103851 59.53705691 41.58062841 58.19433608 40.88574219 56.859375 C40.51868164 56.15296875 40.15162109 55.4465625 39.7734375 54.71875 C39.43489746 54.07873047 39.09635742 53.43871094 38.74755859 52.77929688 C38 51 38 51 38 48 C38.845625 47.69707031 39.69125 47.39414063 40.5625 47.08203125 C51.66330812 43.5271517 51.66330812 43.5271517 60.1953125 36.1328125 C61.09386069 33.7512236 61.23473316 31.97520891 61.1875 29.4375 C61.17783203 28.29087891 61.17783203 28.29087891 61.16796875 27.12109375 C61.07053505 24.81102284 61.07053505 24.81102284 60 22 C55.05143685 19.12664075 49.25503881 18.76100417 43.66796875 18.4140625 C42.41653076 18.33365723 41.16509277 18.25325195 39.87573242 18.17041016 C38.92674072 18.1141748 37.97774902 18.05793945 37 18 C37.06124829 28.97916416 37.13838155 39.95809134 37.23571491 50.93699837 C37.2804149 56.03513123 37.31967195 61.13318424 37.34643555 66.23144531 C37.37247208 71.15288476 37.41287721 76.07401688 37.46318626 80.99526596 C37.47985256 82.87146045 37.49136832 84.7477081 37.49761391 86.62396622 C37.50725753 89.25500851 37.53531977 91.885265 37.56762695 94.51611328 C37.56619186 95.2893544 37.56475677 96.06259552 37.5632782 96.85926819 C37.645956 101.62977724 38.40100628 104.9792662 41 109 C44.05039221 110.90206849 44.05039221 110.90206849 47 112 C47 112.66 47 113.32 47 114 C31.49 114 15.98 114 0 114 C0 113.34 0 112.68 0 112 C0.928125 111.4225 1.85625 110.845 2.8125 110.25 C6.49516463 107.65047202 7.37803301 106.16444779 9 102 C9.41327209 99.08638075 9.42063231 96.21519368 9.40405273 93.27587891 C9.41091599 92.41978531 9.41777924 91.56369171 9.42485046 90.68165588 C9.44309045 87.86312073 9.43928453 85.04514379 9.43359375 82.2265625 C9.43815733 80.25889913 9.44346342 78.29123735 9.44947815 76.32357788 C9.45840409 72.20295734 9.45599248 68.08253066 9.44604492 63.96191406 C9.4345638 58.69390799 9.45475638 53.42657309 9.48396206 48.15865517 C9.50235267 44.09558901 9.50202575 40.03268277 9.49632454 35.96958542 C9.49617163 34.02800938 9.50219049 32.0864223 9.51461601 30.14488602 C9.52957601 27.42380564 9.51881204 24.70395341 9.50170898 21.98291016 C9.51137695 21.1888829 9.52104492 20.39485565 9.53100586 19.57676697 C9.45835446 14.02724933 8.20092114 9.59789865 5 5 C2.39975951 3.13689678 2.39975951 3.13689678 0 2 C0 1.34 0 0.68 0 0 Z " fill="#213551" transform="translate(570,55)"/>
<path d="M0 0 C15.84 0 31.68 0 48 0 C44 4 44 4 41.875 5.75 C39.23142062 8.92229526 38.23180238 11.87989955 38 16 C39.74854484 25.04247474 46.30293472 30.329742 53 36 C54.25446086 37.07357103 55.50833318 38.14783002 56.76171875 39.22265625 C57.37362061 39.74738525 57.98552246 40.27211426 58.6159668 40.81274414 C59.07269775 41.20453857 59.52942871 41.59633301 60 42 C62.96652777 39.09156934 65.92173641 36.17189357 68.875 33.25 C69.71675781 32.425 70.55851562 31.6 71.42578125 30.75 C72.23144531 29.95078125 73.03710938 29.1515625 73.8671875 28.328125 C74.61081543 27.5949707 75.35444336 26.86181641 76.12060547 26.10644531 C79.79289262 21.99050695 80.4493142 18.63720219 80.31640625 13.25 C79.81766928 9.70342601 78.33674249 7.65251851 76 5 C74.36021682 3.95650161 72.69905634 2.94392019 71 2 C71 1.34 71 0.68 71 0 C86.51 0 102.02 0 118 0 C118 0.66 118 1.32 118 2 C117.071875 2.5775 116.14375 3.155 115.1875 3.75 C111.50180018 6.35167046 110.61938864 7.8296239 109 12 C108.58976681 14.95506933 108.58949142 17.86777101 108.61181641 20.84765625 C108.60655945 21.716716 108.60130249 22.58577576 108.59588623 23.48117065 C108.58272804 26.34179888 108.5914095 29.20186652 108.6015625 32.0625 C108.59954056 34.05737413 108.59662813 36.05224754 108.59286499 38.04711914 C108.5884473 42.22321628 108.59485489 46.39912062 108.60888672 50.57519531 C108.62597818 55.92177173 108.61613404 61.26789632 108.59816933 66.61445618 C108.58731655 70.73233429 108.59078471 74.8501057 108.5985527 78.96798706 C108.60055057 80.93911798 108.59810997 82.91025866 108.59111404 84.88137817 C108.58347505 87.63862687 108.59513809 90.39514901 108.61181641 93.15234375 C108.60574371 93.96291229 108.59967102 94.77348083 108.59341431 95.60861206 C108.6475982 100.45632899 109.29148958 103.81561419 112 108 C113.96374635 109.38617389 115.95912192 110.73012031 118 112 C118 112.66 118 113.32 118 114 C102.49 114 86.98 114 71 114 C71 113.34 71 112.68 71 112 C71.928125 111.62875 72.85625 111.2575 73.8125 110.875 C77.65074205 108.61721056 78.34933625 107.07511602 80 103 C80.42716627 100.01700514 80.42716627 100.01700514 80.34057617 96.90283203 C80.34034958 95.72206085 80.34012299 94.54128967 80.33988953 93.32473755 C80.32440567 92.06515228 80.30892181 90.80556702 80.29296875 89.5078125 C80.28872391 88.20673553 80.28447906 86.90565857 80.28010559 85.56515503 C80.26870479 82.12254237 80.23927974 78.68031533 80.20599365 75.237854 C80.17518917 71.71851822 80.1615782 68.19911953 80.14648438 64.6796875 C80.11440462 57.78630091 80.06326684 50.89316902 80 44 C74.5630994 50.42821769 69.17583095 56.82421108 64.375 63.75 C63.94316406 64.36359375 63.51132813 64.9771875 63.06640625 65.609375 C62.0396368 67.06966933 61.0190473 68.53430644 60 70 C55.79401389 66.03369325 52.40904105 61.72181118 49 57.0625 C47.98075931 55.6772122 46.95994599 54.29307999 45.9375 52.91015625 C45.49277344 52.30308838 45.04804687 51.69602051 44.58984375 51.07055664 C42.4715794 48.31180358 40.23810377 45.66246599 38 43 C37.90697346 50.42398208 37.83607077 57.84783674 37.79275131 65.27228546 C37.77195107 68.72047132 37.74377464 72.16825594 37.69824219 75.61621094 C37.64612756 79.58784035 37.62699211 83.55931207 37.609375 87.53125 C37.58872986 88.75863892 37.56808472 89.98602783 37.54681396 91.25061035 C37.54497608 98.31078656 38.09352924 103.04169945 42 109 C44.60024049 110.86310322 44.60024049 110.86310322 47 112 C47 112.66 47 113.32 47 114 C31.49 114 15.98 114 0 114 C0 113.34 0 112.68 0 112 C1.3921875 111.4121875 1.3921875 111.4121875 2.8125 110.8125 C6.68556379 108.61016961 8.13950871 106.51984395 9.56414795 102.34796143 C10.21023532 98.8674496 10.15599746 95.39761725 10.16113281 91.87011719 C10.16609772 91.05332993 10.17106262 90.23654266 10.17617798 89.39500427 C10.19076985 86.69561923 10.19759715 83.99629299 10.203125 81.296875 C10.20887953 79.41603596 10.21463722 77.53519693 10.22039795 75.65435791 C10.23089991 71.71016161 10.23674764 67.76598565 10.24023438 63.82177734 C10.24571304 58.78029092 10.26973107 53.73907539 10.29820633 48.6976738 C10.31687842 44.81135283 10.32204077 40.92509647 10.32357025 37.03873444 C10.32658771 35.18088553 10.33458547 33.32303752 10.34775543 31.46523285 C10.3649094 28.85910252 10.36291289 26.25362562 10.35644531 23.64746094 C10.37026749 22.50781136 10.37026749 22.50781136 10.3843689 21.34513855 C10.34271079 15.95628922 9.23235298 11.92282288 7 7 C4.72728611 4.83815021 2.78484629 3.39242314 0 2 C0 1.34 0 0.68 0 0 Z " fill="#213551" transform="translate(69,55)"/>
<path d="M0 0 C15.51 0 31.02 0 47 0 C47 0.66 47 1.32 47 2 C45.6078125 2.86625 45.6078125 2.86625 44.1875 3.75 C40.50562552 6.34897022 39.61546729 7.83381061 38 12 C37.621949 14.90339916 37.64886872 17.75589951 37.70703125 20.6796875 C37.71339851 21.89883347 37.71339851 21.89883347 37.71989441 23.14260864 C37.73659196 25.72041959 37.77422638 28.2974282 37.8125 30.875 C37.82755842 32.63019699 37.8412448 34.38540631 37.85351562 36.140625 C37.88646608 40.42738913 37.93818547 44.71355886 38 49 C39.01320313 48.36771484 39.01320313 48.36771484 40.046875 47.72265625 C40.93890625 47.17480469 41.8309375 46.62695312 42.75 46.0625 C43.63171875 45.51722656 44.5134375 44.97195312 45.421875 44.41015625 C50.92489122 41.40017313 57.23968348 41.01347744 63.29296875 42.6015625 C66.3530806 43.7052094 68.68151551 44.68151551 71 47 C71.0498487 42.87406157 71.08592957 38.74824248 71.10986328 34.62207031 C71.11985248 33.22164858 71.13344854 31.82124732 71.15087891 30.42089844 C71.59534242 17.71900785 71.59534242 17.71900785 67.125 6.125 C65.13477762 4.13477762 63.59987671 3.02138013 61 2 C61 1.34 61 0.68 61 0 C76.51 0 92.02 0 108 0 C107 3 107 3 104.625 4.25 C101.20382534 6.53078311 100.13024194 9.17335473 99 13 C98.60218718 15.92860506 98.58902683 18.80939155 98.61181641 21.76171875 C98.60655945 22.6098111 98.60130249 23.45790344 98.59588623 24.33169556 C98.58275188 27.11715463 98.59140093 29.90203576 98.6015625 32.6875 C98.59953988 34.63370879 98.59662687 36.57991684 98.59286499 38.52612305 C98.58845053 42.59789267 98.59484444 46.66946438 98.60888672 50.74121094 C98.62597801 55.94978084 98.61613212 61.15788691 98.59816933 66.36643982 C98.58730779 70.38313262 98.59078871 74.39971619 98.5985527 78.41641235 C98.60054816 80.33647721 98.59811853 82.25655211 98.59111404 84.17660522 C98.58346052 86.86409625 98.59515815 89.55084522 98.61181641 92.23828125 C98.60574371 93.02498199 98.59967102 93.81168274 98.59341431 94.6222229 C98.65251739 99.79198341 99.52701486 103.42755704 102 108 C105.06717124 110.29582863 105.06717124 110.29582863 108 112 C108 112.66 108 113.32 108 114 C92.49 114 76.98 114 61 114 C61 113.34 61 112.68 61 112 C61.928125 111.62875 62.85625 111.2575 63.8125 110.875 C67.62415047 108.63285266 68.47391998 107.09632006 70 103 C70.85715935 98.78529555 71.11811336 94.80380656 71.09765625 90.5078125 C71.09443359 89.30898437 71.09121094 88.11015625 71.08789062 86.875 C71.07951172 85.6375 71.07113281 84.4 71.0625 83.125 C71.05798828 81.86429687 71.05347656 80.60359375 71.04882812 79.3046875 C71.0370796 76.20307614 71.02065167 73.10156275 71 70 C70.46890625 70.27714844 69.9378125 70.55429688 69.390625 70.83984375 C68.33101562 71.38318359 68.33101562 71.38318359 67.25 71.9375 C66.20585937 72.47697266 66.20585937 72.47697266 65.140625 73.02734375 C61.63218459 74.62150737 58.58307205 75.12638453 54.75 75.0625 C52.89375 75.0315625 52.89375 75.0315625 51 75 C51 74.34 51 73.68 51 73 C51.95712891 72.70996094 51.95712891 72.70996094 52.93359375 72.4140625 C53.75988281 72.15367188 54.58617187 71.89328125 55.4375 71.625 C56.26121094 71.36976562 57.08492188 71.11453125 57.93359375 70.8515625 C60.17798016 70.19117773 60.17798016 70.19117773 61 68 C61.49488192 63.27050934 61.49488192 63.27050934 59.625 59.125 C55.96346752 56.5900929 52.33911873 56.51696603 48 57 C42.91731544 58.83298333 41.44897792 62.70896216 39.23925781 67.37207031 C37.21298754 73.30398052 37.18016704 79.0581274 37.32763672 85.24755859 C37.37543191 87.3944002 37.36864206 89.53634396 37.35546875 91.68359375 C37.41150045 98.64530605 37.45950453 103.33762507 42 109 C43.63978318 110.04349839 45.30094366 111.05607981 47 112 C47 112.66 47 113.32 47 114 C31.49 114 15.98 114 0 114 C0 113.34 0 112.68 0 112 C0.928125 111.4225 1.85625 110.845 2.8125 110.25 C6.49819982 107.64832954 7.38061136 106.1703761 9 102 C9.41023319 99.04493067 9.41050858 96.13222899 9.38818359 93.15234375 C9.39606903 91.84875412 9.39606903 91.84875412 9.40411377 90.51882935 C9.41727196 87.65820112 9.4085905 84.79813348 9.3984375 81.9375 C9.40045944 79.94262587 9.40337187 77.94775246 9.40713501 75.95288086 C9.4115527 71.77678372 9.40514511 67.60087938 9.39111328 63.42480469 C9.37402182 58.07822827 9.38386596 52.73210368 9.40183067 47.38554382 C9.41268345 43.26766571 9.40921529 39.1498943 9.4014473 35.03201294 C9.39944943 33.06088202 9.40189003 31.08974134 9.40888596 29.11862183 C9.41652495 26.36137313 9.40486191 23.60485099 9.38818359 20.84765625 C9.39425629 20.03708771 9.40032898 19.22651917 9.40658569 18.39138794 C9.3524018 13.54367101 8.70851042 10.18438581 6 6 C4.03625365 4.61382611 2.04087808 3.26987969 0 2 C0 1.34 0 0.68 0 0 Z " fill="#213551" transform="translate(374,55)"/>
<path d="M0 0 C12.29059884 11.16455957 17.83833463 27.86575488 19.01953125 44.0390625 C19.33458525 62.3121945 13.9368117 78.54720985 1.81640625 92.2578125 C-6.74980204 100.8525273 -16.96566158 105.67266173 -29.18359375 105.8828125 C-41.40152592 105.67266173 -51.61738546 100.8525273 -60.18359375 92.2578125 C-72.28773431 78.5656087 -78.03838348 61.87118904 -77.45703125 43.55859375 C-76.04554046 26.51988347 -70.12561769 10.89061014 -57.18359375 -0.7421875 C-38.83237359 -15.75422763 -18.21889706 -14.53600731 0 0 Z M-40.18359375 10.2578125 C-50.20341803 25.81705184 -51.16362655 46.26309599 -48.12109375 64.0703125 C-45.96686456 73.48357939 -42.34983073 83.57868678 -34.18359375 89.2578125 C-31.31751246 90.69085314 -29.37058592 90.56425405 -26.18359375 90.2578125 C-18.93071672 86.93357719 -15.63380126 80.14344787 -12.953125 72.9609375 C-7.05313286 54.47287547 -7.17168307 33.49326826 -14.94140625 15.484375 C-17.35300092 11.16170531 -20.67864306 6.51028784 -25.18359375 4.2578125 C-32.17963947 3.42777318 -35.70134317 4.76732951 -40.18359375 10.2578125 Z " fill="#213551" transform="translate(259.18359375,64.7421875)"/>
<path d="M0 0 C10.28304538 -0.02312376 20.56608462 -0.04091525 30.84915066 -0.05181217 C35.6234828 -0.05704093 40.39779721 -0.06413844 45.17211914 -0.07543945 C49.77566262 -0.0862686 54.37918899 -0.09227689 58.98274422 -0.09487724 C60.74309623 -0.09673144 62.50344726 -0.10035196 64.26379204 -0.10573006 C66.72072277 -0.11294086 69.17758195 -0.11399093 71.63452148 -0.11352539 C72.73719109 -0.1189183 72.73719109 -0.1189183 73.86213684 -0.12442017 C78.88594784 -0.11405216 78.88594784 -0.11405216 80 1 C80.08847743 3.52094076 80.11527301 6.01430893 80.09765625 8.53515625 C80.0962413 9.28840683 80.09482635 10.04165741 80.09336853 10.81773376 C80.08775376 13.2326956 80.07519883 15.64756601 80.0625 18.0625 C80.0574869 19.69596221 80.05292366 21.32942586 80.04882812 22.96289062 C80.03777954 26.97529585 80.02050506 30.98763241 80 35 C76.63918477 33.87972826 76.02570265 33.06597578 73.875 30.375 C67.07341696 22.40171569 58.48035844 16.0101991 48 14 C46.08438746 13.93311409 44.16664408 13.91468281 42.25 13.9375 C41.26515625 13.94652344 40.2803125 13.95554687 39.265625 13.96484375 C38.14414062 13.98224609 38.14414062 13.98224609 37 14 C37.01160156 15.23234375 37.02320313 16.4646875 37.03515625 17.734375 C37.09431789 26.87762114 37.017297 35.89882504 36 45 C45.88246253 45.32699325 52.9739118 44.77036861 61.23828125 39.12109375 C63 38 63 38 66 37 C66 46.9 66 56.8 66 67 C62 65 62 65 59.94921875 63.7109375 C54.64488059 60.57780511 50.2644075 59.66918819 44.14453125 59.8515625 C43.45476196 59.86227783 42.76499268 59.87299316 42.05432129 59.8840332 C40.36933229 59.91176364 38.68459879 59.95435126 37 60 C36.95050647 64.91128067 36.91423618 69.82241566 36.89013672 74.73388672 C36.8800885 76.40415985 36.86644764 78.07441542 36.84912109 79.74462891 C36.82482074 82.14750504 36.81350513 84.55014827 36.8046875 86.953125 C36.79436493 87.69806213 36.78404236 88.44299927 36.77340698 89.21051025 C36.77026261 94.42539127 36.77026261 94.42539127 39 99 C45.35419395 102.258561 53.51554771 101.67659562 60.375 100.3125 C64.45535818 98.83512893 66.41469277 97.47400659 69 94 C69 92.35 69 90.7 69 89 C65.04 89 61.08 89 57 89 C59.47007422 82.82481446 61.9237442 78.94508869 67.94921875 75.796875 C72.64204014 73.97337869 77.45092384 73.19049608 82.3125 74.734375 C85.73189323 76.36864382 88.50165479 78.11561311 91 81 C93.14362137 87.43086411 92.3256874 92.86005701 89.3828125 98.828125 C83.97044721 107.32890213 75.52988824 110.48163479 66.21484375 113.03930664 C59.77538157 114.44665399 53.33888204 114.24790558 46.77734375 114.1953125 C45.42257396 114.19157439 44.06780143 114.1887312 42.71302795 114.18673706 C39.17685252 114.17916332 35.64084586 114.15957004 32.10473633 114.1373291 C28.48456097 114.11673443 24.86435789 114.10770645 21.24414062 114.09765625 C14.16269209 114.07631708 7.08135716 114.04225845 0 114 C0 113.34 0 112.68 0 112 C0.928125 111.4225 1.85625 110.845 2.8125 110.25 C6.49819982 107.64832954 7.38061136 106.1703761 9 102 C9.41023319 99.04493067 9.41050858 96.13222899 9.38818359 93.15234375 C9.39606903 91.84875412 9.39606903 91.84875412 9.40411377 90.51882935 C9.41727196 87.65820112 9.4085905 84.79813348 9.3984375 81.9375 C9.40045944 79.94262587 9.40337187 77.94775246 9.40713501 75.95288086 C9.4115527 71.77678372 9.40514511 67.60087938 9.39111328 63.42480469 C9.37402182 58.07822827 9.38386596 52.73210368 9.40183067 47.38554382 C9.41268345 43.26766571 9.40921529 39.1498943 9.4014473 35.03201294 C9.39944943 33.06088202 9.40189003 31.08974134 9.40888596 29.11862183 C9.41652495 26.36137313 9.40486191 23.60485099 9.38818359 20.84765625 C9.39425629 20.03708771 9.40032898 19.22651917 9.40658569 18.39138794 C9.3524018 13.54367101 8.70851042 10.18438581 6 6 C4.03625365 4.61382611 2.04087808 3.26987969 0 2 C0 1.34 0 0.68 0 0 Z " fill="#213551" transform="translate(485,55)"/>
<path d="M0 0 C3.70200614 1.37619158 6.11190984 1.30384255 9.84765625 0.05859375 C11.49765625 -0.93140625 13.14765625 -1.92140625 14.84765625 -2.94140625 C16.16765625 5.96859375 17.48765625 14.87859375 18.84765625 24.05859375 C15.84765625 23.05859375 15.84765625 23.05859375 14.28515625 20.93359375 C8.027808 13.55313171 -1.43192399 7.83674762 -11.12109375 6.71484375 C-16.3251914 6.3632214 -16.3251914 6.3632214 -20.9375 8.33984375 C-22.64106332 10.7500298 -22.61272716 13.13938493 -22.74609375 16.0234375 C-21.82201214 19.19084881 -19.82984897 20.24371573 -17.15234375 22.05859375 C-11.3789035 25.02046585 -5.26489496 27.06896815 0.94848633 28.88427734 C11.74022174 32.04843891 20.06170027 36.00734971 25.84765625 46.05859375 C29.64815776 53.6308051 30.44069628 62.66380603 28.0390625 70.796875 C22.61272481 82.87000696 11.61267764 90.60092944 -0.41015625 95.34375 C-13.15644504 99.71256397 -28.98400541 102.03875523 -41.90234375 97.05859375 C-50.26758072 92.81622357 -56.96821697 87.02851186 -60.15234375 78.05859375 C-62.2858406 70.76914618 -61.31949571 63.85050899 -58.15234375 57.05859375 C-53.61242989 49.56698672 -46.44738247 46.58733635 -38.46484375 43.74609375 C-30.63808161 42.12167142 -24.21331565 43.39538277 -17.15234375 47.05859375 C-13.836334 49.96091028 -10.57778236 53.4628797 -9.84375 57.94140625 C-9.51365886 63.6829915 -10.65172469 66.8690288 -14.36328125 71.2578125 C-17.12399947 74.03661403 -19.75888568 76.07374092 -23.15234375 78.05859375 C-24.14234375 77.72859375 -25.13234375 77.39859375 -26.15234375 77.05859375 C-25.65734375 75.57359375 -25.65734375 75.57359375 -25.15234375 74.05859375 C-24.61592357 68.06512979 -24.68240561 63.19924285 -28.15234375 58.05859375 C-30.88974751 55.81776945 -30.88974751 55.81776945 -33.58984375 56.12109375 C-37.0023441 57.36956949 -38.18932609 59.04395949 -40.15234375 62.05859375 C-41.93877792 67.82013971 -42.05288595 73.75096006 -39.58984375 79.30859375 C-37.21830074 83.41160934 -34.6281225 86.31801313 -30.15234375 88.05859375 C-20.83479028 89.52500537 -14.18121747 87.07591798 -6.33984375 82.37109375 C-0.25932131 75.94311288 1.27486149 67.18429584 1.109375 58.6171875 C0.585424 53.49497996 -1.05968642 49.90908768 -4.94140625 46.4765625 C-11.34786766 42.1867235 -18.62636258 40.14245112 -25.87670898 37.73852539 C-33.47998841 35.13285478 -38.94516028 31.86712412 -44.15234375 25.68359375 C-46.15391543 20.4294681 -46.62783039 15.8971421 -45.21484375 10.43359375 C-40.89141719 3.35889575 -35.07684132 -0.77478409 -27.19921875 -3.27734375 C-17.13775118 -5.47022771 -9.33101618 -4.00224631 0 0 Z " fill="#213551" transform="translate(738.15234375,57.94140625)"/>
<path d="M0 0 C31.02 0 62.04 0 94 0 C94 11.55 94 23.1 94 35 C92.35 33.35 90.7 31.7 89 30 C81.44414468 22.58383277 74.37648369 17.75784852 64.33032227 14.43310547 C63.51950699 14.16432587 62.70869171 13.89554626 61.87330627 13.61862183 C61.2551152 13.41447662 60.63692413 13.21033142 60 13 C60.03809895 24.33580553 60.09752216 35.67128187 60.18390274 47.00682831 C60.2233519 52.27084063 60.25555303 57.5346863 60.27099609 62.79882812 C60.28617942 67.88242809 60.32065505 72.96556983 60.36830902 78.04896545 C60.38310548 79.98490915 60.39104002 81.92091828 60.39188385 83.85691833 C60.39426048 86.57632866 60.42139568 89.2944798 60.45410156 92.01367188 C60.4490712 92.80777466 60.44404083 93.60187744 60.43885803 94.42004395 C60.54148427 99.96297493 61.80527605 104.40500397 65 109 C67.60024049 110.86310322 67.60024049 110.86310322 70 112 C70 112.66 70 113.32 70 114 C54.49 114 38.98 114 23 114 C23 113.34 23 112.68 23 112 C23.928125 111.608125 24.85625 111.21625 25.8125 110.8125 C29.30740499 108.82520108 30.36651237 107.6108674 32 104 C33.17068803 99.54740161 33.17184266 95.11110261 33.20532227 90.5378418 C33.21522186 89.6983046 33.22512146 88.8587674 33.23532104 87.99378967 C33.26681598 85.22896103 33.29164585 82.46411522 33.31640625 79.69921875 C33.33698615 77.77821923 33.3579829 75.85722412 33.37937927 73.93623352 C33.43449292 68.88764027 33.48394932 63.83900687 33.53222656 58.79034424 C33.58251987 53.63558391 33.63816503 48.48088165 33.69335938 43.32617188 C33.80080995 33.21749757 33.90228388 23.10877277 34 13 C32.06768911 13.6294382 30.13660663 14.26264837 28.20605469 14.89746094 C27.13055359 15.24967712 26.05505249 15.60189331 24.94696045 15.96478271 C15.23941786 19.37487799 6.6858784 26.4711824 1 35 C0.34 35 -0.32 35 -1 35 C-0.67 23.45 -0.34 11.9 0 0 Z " fill="#213551" transform="translate(278,55)"/>
<path d="M0 0 C3 2.5625 3 2.5625 5 5 C5.53625 4.484375 6.0725 3.96875 6.625 3.4375 C9 2 9 2 12.0625 2.0625 C15 3 15 3 16.875 4.5 C18.62241351 8.38314114 18.72857787 11.8209873 18 16 C14.6260281 24.07446267 8.28362261 28.83674782 0.390625 32.15234375 C-3.33311671 33.47269007 -7.11638334 34.30223436 -11 35 C-10.67 34.01 -10.34 33.02 -10 32 C-8.92732518 24.59990159 -10.59741164 20.45347714 -14.64453125 14.3203125 C-16.59403104 10.98312843 -16.81051757 8.75785418 -16 5 C-11.43462949 -0.67586604 -7.02183187 -2.06283388 0 0 Z " fill="#213551" transform="translate(678,41)"/>
<path d="M0 0 C10.28304538 -0.02312376 20.56608462 -0.04091525 30.84915066 -0.05181217 C35.6234828 -0.05704093 40.39779721 -0.06413844 45.17211914 -0.07543945 C49.77566262 -0.0862686 54.37918899 -0.09227689 58.98274422 -0.09487724 C60.74309623 -0.09673144 62.50344726 -0.10035196 64.26379204 -0.10573006 C66.72072277 -0.11294086 69.17758195 -0.11399093 71.63452148 -0.11352539 C72.73719109 -0.1189183 72.73719109 -0.1189183 73.86213684 -0.12442017 C78.88594784 -0.11405216 78.88594784 -0.11405216 80 1 C80.0883967 3.3756852 80.11530305 5.72208674 80.09765625 8.09765625 C80.0962413 8.80651474 80.09482635 9.51537323 80.09336853 10.24571228 C80.08775443 12.51801712 80.07519963 14.79022475 80.0625 17.0625 C80.05748681 18.59960796 80.05292359 20.13671745 80.04882812 21.67382812 C80.03778042 25.44925642 80.02050641 29.22461171 80 33 C79.67 33 79.34 33 79 33 C78.67 23.1 78.34 13.2 78 3 C74.56231201 3.00785522 74.56231201 3.00785522 71.05517578 3.01586914 C63.49549381 3.03241552 55.93581106 3.04347544 48.3761158 3.05181217 C43.79126149 3.0570378 39.20642569 3.06412967 34.62158203 3.07543945 C30.19958183 3.08627967 25.77759946 3.09227925 21.35558701 3.09487724 C19.66583856 3.09672944 17.97609113 3.10034614 16.28635025 3.10573006 C13.92541622 3.11295551 11.56455653 3.1139903 9.20361328 3.11352539 C8.14841492 3.1189183 8.14841492 3.1189183 7.07189941 3.12442017 C2.22810432 3.11405216 2.22810432 3.11405216 0 2 C0 1.34 0 0.68 0 0 Z " fill="#213551" transform="translate(485,55)"/>
</svg>
