<?xml version="1.0" encoding="UTF-8"?>
<svg version="1.1" xmlns="http://www.w3.org/2000/svg" width="386" height="180">
<path d="M0 0 C8.25 0 16.5 0 25 0 C25.33 1.32 25.66 2.64 26 4 C24.68 4.33 23.36 4.66 22 5 C22.58984005 12.46516317 24.74604547 19.25849321 27 26.375 C27.55300781 28.15583984 27.55300781 28.15583984 28.1171875 29.97265625 C29.76610609 35.60041949 29.76610609 35.60041949 32 41 C35.3 29.45 38.6 17.9 42 6 C40.02 5.34 38.04 4.68 36 4 C36 2.68 36 1.36 36 0 C48.21 0 60.42 0 73 0 C73 1.32 73 2.64 73 4 C71.02 4.33 69.04 4.66 67 5 C67 23.81 67 42.62 67 62 C69.31 62.33 71.62 62.66 74 63 C74 63.99 74 64.98 74 66 C71.39048764 67.30475618 69.47298715 67.11301572 66.5546875 67.09765625 C64.94013672 67.09282227 64.94013672 67.09282227 63.29296875 67.08789062 C62.16503906 67.07951172 61.03710938 67.07113281 59.875 67.0625 C58.17150391 67.05573242 58.17150391 67.05573242 56.43359375 67.04882812 C53.62234362 67.03701615 50.8111977 67.02054507 48 67 C48 65.68 48 64.36 48 63 C48.804375 62.87625 49.60875 62.7525 50.4375 62.625 C51.283125 62.41875 52.12875 62.2125 53 62 C54.25839937 59.48320126 54.12698785 57.75594264 54.12939453 54.93945312 C54.13412277 53.35771301 54.13412277 53.35771301 54.13894653 51.74401855 C54.1369223 50.60130493 54.13489807 49.45859131 54.1328125 48.28125 C54.13376923 47.11243286 54.13472595 45.94361572 54.13571167 44.73937988 C54.13639313 42.26456651 54.13454122 39.78975136 54.13037109 37.31494141 C54.1250224 33.51590988 54.13031728 29.71699658 54.13671875 25.91796875 C54.13605796 23.5182289 54.13477679 21.11848913 54.1328125 18.71875 C54.13483673 17.57603638 54.13686096 16.43332275 54.13894653 15.25598145 C54.13579437 14.20148804 54.13264221 13.14699463 54.12939453 12.06054688 C54.12859894 11.1294812 54.12780334 10.19841553 54.12698364 9.23913574 C54.14606245 6.96224683 54.14606245 6.96224683 53 5 C52.34 5 51.68 5 51 5 C50.78115646 5.71552536 50.56231293 6.43105072 50.33683777 7.16825867 C48.26945646 13.92347324 46.19566257 20.6766778 44.11471081 27.42772198 C43.04519485 30.89825427 41.97814081 34.36950326 40.91674805 37.8425293 C39.89163376 41.19652011 38.86000745 44.54844452 37.82390785 47.89905739 C37.23952994 49.79482357 36.66184812 51.69264967 36.08427429 53.59049988 C35.72412735 54.75132584 35.36398041 55.91215179 34.99291992 57.1081543 C34.67981369 58.12741501 34.36670746 59.14667572 34.04411316 60.19682312 C32.98160415 63.04938816 31.64719091 65.44706516 30 68 C28.35 67.67 26.7 67.34 25 67 C21.58067885 56.50863578 18.27261412 45.99146476 15.15625 35.40625 C14.911595 34.57635056 14.66694 33.74645111 14.41487122 32.8914032 C13.18023168 28.69900899 11.9525792 24.50470548 10.7331543 20.30786133 C10.27407933 18.74295625 9.81485731 17.1780943 9.35546875 15.61328125 C9.14736572 14.88915039 8.9392627 14.16501953 8.72485352 13.41894531 C7.77893941 10.21231961 6.87138846 7.8070827 5 5 C2.43717258 4.27034634 2.43717258 4.27034634 0 4 C0 2.68 0 1.36 0 0 Z " fill="#213551" transform="translate(81,48)"/>
<path d="M0 0 C4.80137245 -0.09978872 9.60212521 -0.17189617 14.40429688 -0.21972656 C16.03363578 -0.23969079 17.66290445 -0.2668723 19.29199219 -0.30175781 C29.87752951 -0.52256043 39.13822618 -0.68941906 47.8125 6.25 C48.534375 7.1575 49.25625 8.065 50 9 C50.4640625 9.52980469 50.928125 10.05960938 51.40625 10.60546875 C56.15176889 16.78782531 55.92853584 23.50163513 55 31 C53.31046748 37.28108559 49.32025162 41.42967662 44 45 C38.45448844 47.83723847 32.09432559 47.37814719 26 47 C24.515 46.505 24.515 46.505 23 46 C23.33 56.56 23.66 67.12 24 78 C26.64 78.66 29.28 79.32 32 80 C32 81.32 32 82.64 32 84 C21.44 84 10.88 84 0 84 C0 82.68 0 81.36 0 80 C0.969375 79.87625 1.93875 79.7525 2.9375 79.625 C4.4534375 79.315625 4.4534375 79.315625 6 79 C7.44498338 76.11003324 7.12731121 73.60778788 7.12939453 70.37890625 C7.13114685 69.69907684 7.13289917 69.01924744 7.13470459 68.31881714 C7.13911375 66.06668563 7.13618841 63.81463234 7.1328125 61.5625 C7.13348581 60.00073227 7.13445606 58.43896464 7.13571167 56.87719727 C7.13718737 53.60204064 7.13503817 50.32691127 7.13037109 47.05175781 C7.12467388 42.84822928 7.12795356 38.64476459 7.13394356 34.4412384 C7.1375526 31.21569333 7.136409 27.99016345 7.13381577 24.76461792 C7.13314745 23.2144266 7.13397161 21.66423391 7.13629532 20.11404419 C7.13882745 17.94969005 7.13497332 15.78544011 7.12939453 13.62109375 C7.12859894 12.3880249 7.12780334 11.15495605 7.12698364 9.88452148 C7.19881745 7.05809814 7.19881745 7.05809814 6 5 C4.02111039 4.27306096 2.02045442 3.60183749 0 3 C0 2.01 0 1.02 0 0 Z M24.34082031 5.05029297 C22.27123308 8.05971097 22.61190894 11.17370035 22.671875 14.6953125 C22.67374817 15.44336151 22.67562134 16.19141052 22.67755127 16.96212769 C22.68426665 18.54071521 22.69817108 20.11928624 22.71875 21.69775391 C22.74997267 24.12287736 22.7597276 26.54735151 22.765625 28.97265625 C22.7747923 30.50521632 22.7851672 32.03776974 22.796875 33.5703125 C22.80112488 34.29944855 22.80537476 35.02858459 22.80975342 35.77981567 C22.56090858 39.17796396 22.56090858 39.17796396 24 42 C28.10289532 42.57249702 29.69368458 42.20421028 33.1875 39.875 C38.48118936 34.96932975 39.78690565 29.1964153 40.25 22.25 C40.14452407 16.05035928 38.41715014 10.8767664 34.6875 5.9375 C32.11738518 3.77878125 32.11738518 3.77878125 28.875 3.5 C26.08850556 3.79594085 26.08850556 3.79594085 24.34082031 5.05029297 Z " fill="#213551" transform="translate(1,47)"/>
<path d="M0 0 C2 2 2 2 2.22705078 4.06298828 C2.21657715 4.89040527 2.20610352 5.71782227 2.1953125 6.5703125 C2.18886719 7.46621094 2.18242187 8.36210938 2.17578125 9.28515625 C2.15902344 10.22230469 2.14226562 11.15945312 2.125 12.125 C2.11597656 13.06988281 2.10695313 14.01476562 2.09765625 14.98828125 C2.07404522 17.32577292 2.04111516 19.66276123 2 22 C0.35 22 -1.3 22 -3 22 C-3.38671875 20.96359375 -3.7734375 19.9271875 -4.171875 18.859375 C-4.69735694 17.48936851 -5.22342989 16.11958861 -5.75 14.75 C-6.00265625 14.06808594 -6.2553125 13.38617188 -6.515625 12.68359375 C-8.06977454 8.68165869 -9.48896365 5.6809076 -13 3 C-16.3226367 2.64400321 -18.99672897 2.77705088 -22.25 3.5 C-25.25522502 6.07590716 -26.2633924 9.17227123 -27 13 C-27.19639332 16.4737069 -26.65904028 18.93313059 -25 22 C-20.82753201 26.32755087 -15.92737457 29.63456445 -11.0390625 33.09765625 C-3.32718459 38.58048452 3.2243731 43.59370885 6 53 C7.06049602 61.31900209 6.05399738 68.17224392 1 75 C-5.74150699 81.55122251 -12.12799191 83.36070505 -21.3125 83.375 C-22.53743164 83.41173828 -22.53743164 83.41173828 -23.78710938 83.44921875 C-29.60784794 83.47704698 -34.17804838 82.38231824 -39 79 C-42.07680491 72.84639017 -40.2723312 62.67973882 -39 56 C-37.02 55.505 -37.02 55.505 -35 55 C-34.5875 55.94875 -34.175 56.8975 -33.75 57.875 C-33.47414063 58.50921875 -33.19828125 59.1434375 -32.9140625 59.796875 C-32.26763527 61.35493038 -31.66200554 62.93020697 -31.0859375 64.515625 C-29.1943193 69.65221427 -27.66092268 73.78914215 -23 77 C-18.34515455 78.44817414 -15.10163129 78.4896139 -10.625 76.5 C-7.08846461 73.13187106 -5.13797421 69.97219441 -4.90625 64.98046875 C-5.34548803 59.23743147 -7.45286537 55.26656472 -11.80859375 51.390625 C-15.73370049 48.25053961 -19.83712436 45.43751304 -24.02246094 42.65698242 C-30.83580096 38.09389334 -35.34697058 34.40807846 -38.3125 26.5 C-39.65435458 19.6687403 -39.26300108 14.15049807 -36 8 C-33.5625 5.1875 -33.5625 5.1875 -31 3 C-30.360625 2.443125 -29.72125 1.88625 -29.0625 1.3125 C-20.87162277 -3.89987642 -8.94325405 -3.24844654 0 0 Z " fill="#213551" transform="translate(370,49)"/>
<path d="M0 0 C7.21977321 4.34100288 12.3255758 11.46917519 14.625 19.5 C17.51964253 33.86822561 16.8235163 45.8785999 8.625 58.5 C3.00047878 64.70860612 -2.37137766 67.86957858 -10.72265625 68.51953125 C-17.84619368 68.46707516 -23.38020345 65.54112957 -28.515625 60.734375 C-37.70430416 49.69251685 -38.44762914 37.18405901 -37.375 23.5 C-35.59386933 14.60452453 -30.99805584 6.97601287 -23.6875 1.5625 C-16.90151586 -2.66273541 -7.41289417 -3.30594691 0 0 Z M-18.375 6.5 C-25.84358453 17.9483839 -26.36636372 34.35119337 -23.6875 47.44140625 C-21.98845763 53.55087946 -19.8150416 59.78263824 -14.375 63.5 C-10.831503 64.50014579 -10.831503 64.50014579 -7.375 63.5 C-1.00905869 58.91060045 1.35842875 51.54877537 2.875 44.125 C4.8888615 31.04397173 3.70444263 17.76366499 -3.09375 6.171875 C-4.44842819 4.21776357 -4.44842819 4.21776357 -7.375 2.5 C-12.48745602 1.83315791 -14.83844157 2.77730691 -18.375 6.5 Z " fill="#213551" transform="translate(261.375,48.5)"/>
<path d="M0 0 C13.91743268 -1.5036842 13.91743268 -1.5036842 18.3046875 1.6640625 C20.17731035 4.34307797 21.57928034 7.0550409 23 10 C23.6751071 11.21512573 24.36059427 12.42452478 25.0546875 13.62890625 C26.58849406 16.29242679 28.09466879 18.96826305 29.578125 21.66015625 C33.56787614 28.86056533 37.80857888 35.91590796 42 43 C42 30.46 42 17.92 42 5 C40.68 4.34 39.36 3.68 38 3 C38.33 2.01 38.66 1.02 39 0 C43.62 0 48.24 0 53 0 C53 1.32 53 2.64 53 4 C52.01 4.33 51.02 4.66 50 5 C48.65551267 7.68897467 48.83804236 9.81591649 48.79467773 12.82666016 C48.77473251 14.04777496 48.75478729 15.26888977 48.73423767 16.52700806 C48.71725344 17.86435823 48.70037463 19.20170975 48.68359375 20.5390625 C48.66302397 21.90384553 48.64202749 23.26862218 48.62062073 24.63339233 C48.56540241 28.22707973 48.51599213 31.8208246 48.46777344 35.41461182 C48.41755663 39.08114746 48.36187151 42.74759956 48.30664062 46.4140625 C48.199062 53.60930426 48.09761643 60.80461546 48 68 C46.12594604 68.59698486 46.12594604 68.59698486 44 69 C40.44026607 66.25882374 38.45728051 62.68278494 36.2421875 58.828125 C35.89423126 58.22804626 35.54627502 57.62796753 35.18777466 57.00970459 C34.07757116 55.09316428 32.97576323 53.17197523 31.875 51.25 C25.79788735 40.68530054 19.46523174 30.34437079 13 20 C12.67 33.86 12.34 47.72 12 62 C14.31 62.33 16.62 62.66 19 63 C18.67 64.32 18.34 65.64 18 67 C12.39 67 6.78 67 1 67 C0.67 65.68 0.34 64.36 0 63 C1.98 62.34 3.96 61.68 6 61 C6 42.85 6 24.7 6 6 C4.02 5.34 2.04 4.68 0 4 C0 2.68 0 1.36 0 0 Z " fill="#213551" transform="translate(276,48)"/>
<path d="M0 0 C2.3125 0.0625 2.3125 0.0625 5 1 C8.10797156 7.07223721 9.84202048 13.69268079 11.79296875 20.20703125 C12.14386063 21.36877365 12.4947525 22.53051605 12.85627747 23.72746277 C13.59355765 26.17180525 14.32884566 28.61674942 15.06225586 31.06225586 C16.18929522 34.81848315 17.32366727 38.57243926 18.45898438 42.32617188 C19.17491352 44.70299421 19.89042313 47.07994296 20.60546875 49.45703125 C20.94603806 50.5840596 21.28660736 51.71108795 21.63749695 52.87226868 C22.10347038 54.4298011 22.10347038 54.4298011 22.57885742 56.01879883 C22.99164192 57.3927758 22.99164192 57.3927758 23.4127655 58.79450989 C24 61 24 61 24 63 C26.31 63.66 28.62 64.32 31 65 C30.505 66.485 30.505 66.485 30 68 C21.75 68 13.5 68 5 68 C5 66.68 5 65.36 5 64 C6.98 63.505 6.98 63.505 9 63 C7.83445193 56.9490696 6.54656904 50.96533774 5 45 C1.04 45 -2.92 45 -7 45 C-8.32 50.61 -9.64 56.22 -11 62 C-9.02 62.66 -7.04 63.32 -5 64 C-5.33 65.32 -5.66 66.64 -6 68 C-12.27 68 -18.54 68 -25 68 C-25.33 67.01 -25.66 66.02 -26 65 C-25.21842529 64.7726416 -24.43685059 64.5452832 -23.6315918 64.31103516 C-20.86398274 63.23981554 -20.86398274 63.23981554 -19.76489258 60.80224609 C-19.33406372 59.42673584 -19.33406372 59.42673584 -18.89453125 58.0234375 C-18.55558838 56.97486572 -18.21664551 55.92629395 -17.86743164 54.84594727 C-17.5193042 53.70053467 -17.17117676 52.55512207 -16.8125 51.375 C-16.43665771 50.19542725 -16.06081543 49.01585449 -15.67358398 47.80053711 C-14.64775678 44.56594871 -13.64019801 41.32681003 -12.64233398 38.08355713 C-11.30027834 33.73029284 -9.93829047 29.38320173 -8.57963562 25.03509521 C-7.46956561 21.48018283 -6.36510105 17.92377938 -5.2746582 14.36279297 C-5.0706842 13.70088455 -4.86671021 13.03897614 -4.65655518 12.35700989 C-4.10286196 10.55974025 -3.55241484 8.76147148 -3.00219727 6.96313477 C-2.16594984 4.49065365 -1.2460505 2.28564857 0 0 Z M-2 27 C-3.32 31.62 -4.64 36.24 -6 41 C-2.7 41 0.6 41 4 41 C2.68 36.38 1.36 31.76 0 27 C-0.66 27 -1.32 27 -2 27 Z " fill="#213551" transform="translate(70,47)"/>
<path d="M0 0 C8.25 0 16.5 0 25 0 C25.33 1.32 25.66 2.64 26 4 C24.02 4.66 22.04 5.32 20 6 C19.9493732 13.4930534 19.91429737 20.98606284 19.89013672 28.47924805 C19.88006672 31.02939502 19.86640996 33.57953042 19.84912109 36.12963867 C19.82491688 39.7908819 19.81352695 43.45197274 19.8046875 47.11328125 C19.79436493 48.2571077 19.78404236 49.40093414 19.77340698 50.579422 C19.77325592 51.64029526 19.77310486 52.70116852 19.77294922 53.79418945 C19.76628738 55.19650566 19.76628738 55.19650566 19.75949097 56.62715149 C19.84010466 59.26712111 19.84010466 59.26712111 22 62 C26.39216451 62.67571762 28.44380201 62.34227569 32.25 60 C35.61482092 56.87809396 36.68083153 53.3239411 38 49 C38.99 49 39.98 49 41 49 C41.02684312 51.81256281 41.04676188 54.62487241 41.0625 57.4375 C41.07087891 58.23994141 41.07925781 59.04238281 41.08789062 59.86914062 C41.0965143 61.91295221 41.0522815 63.95683902 41 66 C40 67 40 67 36.21459961 67.11352539 C34.52717271 67.11336622 32.83974095 67.10766917 31.15234375 67.09765625 C29.82270348 67.09553383 29.82270348 67.09553383 28.46620178 67.09336853 C25.62326746 67.08775215 22.78041069 67.07519691 19.9375 67.0625 C18.01497509 67.05748711 16.09244896 67.05292384 14.16992188 67.04882812 C9.44658451 67.03777741 4.72330542 67.02050183 0 67 C0 65.68 0 64.36 0 63 C1.98 62.34 3.96 61.68 6 61 C6 42.85 6 24.7 6 6 C4.02 5.34 2.04 4.68 0 4 C0 2.68 0 1.36 0 0 Z " fill="#213551" transform="translate(157,48)"/>
<path d="M0 0 C8.25 0 16.5 0 25 0 C25.33 1.32 25.66 2.64 26 4 C23.69 4.33 21.38 4.66 19 5 C19 23.81 19 42.62 19 62 C22.465 62.495 22.465 62.495 26 63 C26 63.99 26 64.98 26 66 C23.44276771 67.27861615 21.63262898 67.11336609 18.7734375 67.09765625 C17.2265625 67.09282227 17.2265625 67.09282227 15.6484375 67.08789062 C14.02808594 67.07532227 14.02808594 67.07532227 12.375 67.0625 C10.74304688 67.05573242 10.74304688 67.05573242 9.078125 67.04882812 C6.38536211 67.03701776 3.69270812 67.02054778 1 67 C0.67 65.68 0.34 64.36 0 63 C1.98 62.34 3.96 61.68 6 61 C6 42.85 6 24.7 6 6 C4.02 5.34 2.04 4.68 0 4 C0 2.68 0 1.36 0 0 Z " fill="#213551" transform="translate(199,48)"/>
<path d="M0 0 C3.125 0.375 3.125 0.375 6 1 C6.04241723 3.33294775 6.04092937 5.66702567 6 8 C5 9 5 9 2.0625 9.1875 C-1 9 -1 9 -3 7 C-2.67028521 3.70285207 -2.3773161 2.3773161 0 0 Z M-1 3 C0 7 0 7 0 7 Z M4 5 C5 7 5 7 5 7 Z " fill="#213551" transform="translate(378,123)"/>
</svg>
