<?xml version="1.0" encoding="UTF-8"?>
<svg version="1.1" xmlns="http://www.w3.org/2000/svg" width="1024" height="188">
<!-- Left Half of Logo -->
<path d="M0 0 C1.03596817 -0.00570007 2.07193634 -0.01140015 3.13929749 -0.01727295 C5.3269856 -0.0266832 7.51468764 -0.03324104 9.70239258 -0.03710938 C12.99391544 -0.04675416 16.28479676 -0.07779122 19.57617188 -0.109375 C35.03076331 -0.18795482 49.70716227 0.80663451 64.41015625 5.953125 C65.15595947 6.20989014 65.9017627 6.46665527 66.67016602 6.73120117 C85.11264992 13.3455102 99.75347234 25.87763153 108.41015625 43.515625 C113.8973639 56.21241382 116.22271736 69.20117558 116.30078125 82.98046875 C116.30648132 83.79068985 116.3121814 84.60091095 116.3180542 85.4356842 C116.32743549 87.14241256 116.33401055 88.84915847 116.33789062 90.5559082 C116.34751549 93.10337004 116.37857138 95.64999502 116.41015625 98.19726562 C116.56362621 121.92878002 112.24583476 145.26019405 95.09765625 162.890625 C72.96351227 184.55117446 41.78728518 188.43819063 12.09765625 188.203125 C-18.23522321 187.39045576 -48.27864642 183.63157355 -70.61621094 161.10107422 C-87.1565915 143.44603947 -90.45231517 119.77811463 -90.29345703 96.55834961 C-90.27738125 93.77212438 -90.29339476 90.98735338 -90.3125 88.20117188 C-90.34183367 64.3010978 -86.03455591 42.55663944 -69.37109375 24.453125 C-50.82940894 6.56585259 -25.18979274 0.10955188 0 0 Z " fill="#213551" transform="translate(879.90234375,-0.203125)"/>
<!-- Right Half of Logo -->
<path d="M0 0 C17.97980486 12.2167064 27.73210812 29.5101333 32.0625 50.5625 C32.90076893 56.48852418 33.23174695 62.35992676 33.265625 68.33984375 C33.27132507 69.15006485 33.27702515 69.96028595 33.28289795 70.7950592 C33.29227924 72.50178756 33.2988543 74.20853347 33.30273438 75.9152832 C33.31235924 78.46274504 33.34341513 81.00937002 33.375 83.55664062 C33.52846996 107.28815502 29.21067851 130.61956905 12.0625 148.25 C-9.67087231 169.51835292 -39.28753482 173.06546206 -68.38867188 173.59960938 C-71.31624554 173.5569857 -74.08239366 173.21228282 -76.9375 172.5625 C-76.9375 172.2325 -76.9375 171.9025 -76.9375 171.5625 C-75.93332031 171.40394531 -74.92914062 171.24539062 -73.89453125 171.08203125 C-54.54780912 167.85440623 -37.93643655 161.05438992 -26.08984375 144.8515625 C-17.33222251 131.46877288 -15.18071583 115.93380365 -17.40234375 100.2890625 C-22.09837457 79.11524308 -37.48560657 65.298137 -53.3125 51.8125 C-62.22323295 44.04661496 -70.22561673 34.72362081 -71.17578125 22.49609375 C-71.39724691 12.06389558 -70.06280816 2.87437753 -62.640625 -4.94140625 C-44.77167488 -20.63821335 -18.14329688 -11.13055077 0 0 Z " fill="#213551" transform="translate(962.9375,14.4375)"/>
<!-- W -->
<path d="M0 0 C1.86778259 0.22332764 1.86778259 0.22332764 4 1 C5.16627502 2.89923096 5.16627502 2.89923096 6.11547852 5.42675781 C6.48042923 6.3750647 6.84537994 7.32337158 7.22138977 8.30041504 C7.60337021 9.34080933 7.98535065 10.38120361 8.37890625 11.453125 C8.78799728 12.52896851 9.19708832 13.60481201 9.61857605 14.71325684 C10.94809026 18.22009004 12.25535954 21.73477308 13.5625 25.25 C14.46306539 27.63759277 15.36508373 30.024638 16.26855469 32.41113281 C18.04759714 37.11734525 19.81823019 41.82656889 21.58056641 46.5390625 C23.62366626 52.00144968 25.68452724 57.45674506 27.76171875 62.90625 C28.02767349 63.60417664 28.29362823 64.30210327 28.56764221 65.0211792 C28.81981003 65.68289124 29.07197784 66.34460327 29.33178711 67.02636719 C31.23132575 72.01375974 33.11766132 77.00609442 35 82 C43.65589421 56.4363627 51.83225338 30.72295668 60 5 C68.58 5 77.16 5 86 5 C83.74994324 15.1252554 83.74994324 15.1252554 82.08325195 19.93896484 C81.71083878 21.02231613 81.3384256 22.10566742 80.95472717 23.22184753 C80.35258644 24.94894707 80.35258644 24.94894707 79.73828125 26.7109375 C79.31546371 27.9361763 78.89264618 29.1614151 78.45701599 30.42378235 C77.31718893 33.72621993 76.1712559 37.02650738 75.02403259 40.32638168 C73.82860363 43.76821653 72.63881792 47.21200165 71.44824219 50.65551758 C68.64013524 58.77311928 65.82163075 66.88709066 63 75 C62.60592957 76.13326721 62.21185913 77.26653442 61.80584717 78.43414307 C58.00364035 89.36577287 54.18981964 100.29331273 50.36868286 111.21833801 C46.55170887 122.13604757 42.77277263 133.06694655 39 144 C36.71907043 143.96607971 36.71907043 143.96607971 34 143 C32.54639052 140.47286338 31.51513448 138.24336507 30.49487305 135.54272461 C30.18202866 134.76229294 29.86918427 133.98186127 29.54685974 133.17778015 C28.51617318 130.5930437 27.51403673 127.99819817 26.51171875 125.40234375 C25.80314689 123.60946857 25.09282211 121.81728525 24.3808136 120.02577209 C22.51051106 115.30608349 20.66421683 110.57735267 18.82269287 105.84637451 C16.93976864 101.02147608 15.03439174 96.20546815 13.13085938 91.38867188 C9.39848887 81.93436819 5.69141023 72.47036441 2 63 C-0.62702109 68.12880636 -3.01057565 73.24798833 -5.11621094 78.609375 C-5.39964859 79.32255386 -5.68308624 80.03573273 -5.97511292 80.77052307 C-6.89824416 83.09569269 -7.81635041 85.42281002 -8.734375 87.75 C-9.3785338 89.37536759 -10.02300904 91.00060981 -10.66778564 92.62573242 C-12.35432964 96.87902595 -14.03660101 101.13399652 -15.71795654 105.38934326 C-17.43827559 109.74106168 -19.16267384 114.09116291 -20.88671875 118.44140625 C-24.26178312 126.95936899 -27.6323312 135.47911089 -31 144 C-33.34744263 143.84884644 -33.34744263 143.84884644 -36 143 C-37.37350464 140.6255188 -37.37350464 140.6255188 -38.44091797 137.41845703 C-38.85313599 136.2144072 -39.265354 135.01035736 -39.69006348 133.76982117 C-40.12445581 132.43259891 -40.55848641 131.09525911 -40.9921875 129.7578125 C-41.45804655 128.3733356 -41.92581811 126.98950094 -42.39538574 125.60627747 C-43.39258096 122.65618193 -44.37676298 119.70218625 -45.35076904 116.74435425 C-46.87475947 112.11645567 -48.4261616 107.49806954 -49.98291016 102.88110352 C-51.79560731 97.50006083 -53.60251414 92.11715939 -55.40094566 86.73133183 C-58.99551415 75.9705698 -62.69644089 65.24892547 -66.45852661 54.54556274 C-67.6534631 51.14506101 -68.84231524 47.74244532 -70.03138733 44.33988953 C-71.60337793 39.84244415 -73.17824556 35.34600537 -74.75323486 30.84960938 C-76.31851935 26.38024735 -77.87912913 21.90927874 -79.4375 17.4375 C-79.99606689 15.84699829 -79.99606689 15.84699829 -80.56591797 14.22436523 C-80.89350098 13.28278564 -81.22108398 12.34120605 -81.55859375 11.37109375 C-81.84017334 10.56599365 -82.12175293 9.76089355 -82.41186523 8.93139648 C-83 7 -83 7 -83 5 C-74.42 5 -65.84 5 -57 5 C-54.68110861 10.79722848 -52.4860429 16.29408403 -50.61816406 22.19384766 C-50.31005043 23.16164154 -50.31005043 23.16164154 -49.99571228 24.14898682 C-49.33214575 26.23624224 -48.67382502 28.32510929 -48.015625 30.4140625 C-47.55084383 31.87961019 -47.08572979 33.34505236 -46.62030029 34.81039429 C-45.40707063 38.63313364 -44.19831316 42.45727219 -42.99053955 46.28173828 C-41.752946 50.19780946 -40.511048 54.11251496 -39.26953125 58.02734375 C-36.84218269 65.68357935 -34.41956563 73.34130125 -32 81 C-30.24451049 78.36676574 -29.21373167 76.22248985 -28.09570312 73.29858398 C-27.72771606 72.34165146 -27.359729 71.38471893 -26.98059082 70.39878845 C-26.58480835 69.3583992 -26.18902588 68.31800995 -25.78125 67.24609375 C-25.36387573 66.15780777 -24.94650146 65.06952179 -24.51647949 63.94825745 C-23.17418946 60.44598645 -21.83699134 56.94179675 -20.5 53.4375 C-19.63055037 51.16588468 -18.76076204 48.89439897 -17.890625 46.62304688 C-16.14810014 42.07337905 -14.40742566 37.52300956 -12.66796875 32.97216797 C-8.46247717 21.97485426 -4.2307343 10.98762252 0 0 Z " fill="#213551" transform="translate(485,23)"/>
<!-- Logo S -->
<path d="M0 0 C0.96550781 0.00902344 1.93101562 0.01804688 2.92578125 0.02734375 C5.28412099 0.05069365 7.64192286 0.08343953 10 0.125 C7.76605859 2.35894141 6.26489655 2.84414791 3.3125 3.875 C-5.14666208 7.21478445 -9.19971417 11.56280297 -13.0546875 19.7578125 C-16.7152595 28.92436883 -16.09561239 39.57668369 -12.32421875 48.6015625 C-7.25579172 58.25998096 1.04177988 65.80611156 9.4375 72.5625 C24.12766217 84.42841246 36.06899784 98.9607551 39 118.125 C40.37419838 134.24669322 37.36564482 148.69540798 28 162.125 C27.53851562 162.78886719 27.07703125 163.45273438 26.6015625 164.13671875 C16.626093 176.96644108 0.48302298 183.29839908 -15 186.125 C-16.2375 186.351875 -17.475 186.57875 -18.75 186.8125 C-30.12933446 187.90666678 -30.12933446 187.90666678 -35 185.125 C-34.29875 184.91746094 -33.5975 184.70992187 -32.875 184.49609375 C-24.49111186 181.77360834 -17.90534108 178.16806268 -13.625 170.1875 C-9.07879035 159.70707863 -8.64609667 149.85022108 -12.6328125 139.05859375 C-18.24914607 127.00754657 -30.27668477 117.95299279 -40.25 109.5 C-47.86678553 102.81089989 -53.93876666 96.04510376 -58.5 87 C-58.82613281 86.35554932 -59.15226563 85.71109863 -59.48828125 85.04711914 C-66.17170073 70.99594069 -66.24618407 52.81876533 -61.328125 38.203125 C-59.11360155 33.07064123 -56.33418669 28.59907958 -53 24.125 C-52.49984375 23.41859375 -51.9996875 22.7121875 -51.484375 21.984375 C-39.70811041 6.87744972 -18.49281301 -0.33159527 0 0 Z " fill="#F4F1E3" transform="translate(908,-0.125)"/>
<!-- A1 -->
<path d="M0 0 C1.32 0 2.64 0 4 0 C11.78063827 16.39346656 19.43014515 32.83263137 26.75 49.4375 C32.60383653 62.71556818 38.62456292 75.90756899 44.75 89.0625 C50.29113506 100.97239183 55.81831549 112.88639679 61.1875 124.875 C61.68668945 125.97980713 62.18587891 127.08461426 62.70019531 128.22290039 C63.14331055 129.21926514 63.58642578 130.21562988 64.04296875 131.2421875 C64.42477295 132.0966748 64.80657715 132.95116211 65.19995117 133.83154297 C66 136 66 136 66 139 C57.42 139 48.84 139 40 139 C38.906875 136.669375 37.81375 134.33875 36.6875 131.9375 C36.34936279 131.21812256 36.01122559 130.49874512 35.6628418 129.75756836 C35.38609619 129.16596924 35.10935059 128.57437012 34.82421875 127.96484375 C34.54666748 127.3730835 34.26911621 126.78132324 33.9831543 126.17163086 C32.60849875 123.13523625 31.31296145 120.06357672 30 117 C11.52 117 -6.96 117 -26 117 C-28.97 123.93 -31.94 130.86 -35 138 C-36 139 -36 139 -38.59204102 139.11352539 C-39.71795654 139.10828857 -40.84387207 139.10305176 -42.00390625 139.09765625 C-43.21884766 139.09443359 -44.43378906 139.09121094 -45.68554688 139.08789062 C-46.96494141 139.07951172 -48.24433594 139.07113281 -49.5625 139.0625 C-50.84576172 139.05798828 -52.12902344 139.05347656 -53.45117188 139.04882812 C-56.63416022 139.03699545 -59.81705762 139.02051068 -63 139 C-59.73017202 130.28913444 -55.7860906 121.89694967 -51.86419678 113.46716309 C-49.83727826 109.10969306 -47.81937018 104.74805213 -45.80078125 100.38671875 C-45.39267212 99.5054129 -44.98456299 98.62410706 -44.56408691 97.71609497 C-40.79795811 89.57718923 -37.07794616 81.4178082 -33.375 73.25 C-32.16027928 70.57155877 -30.9454324 67.89317479 -29.73046875 65.21484375 C-29.27859695 64.21858978 -29.27859695 64.21858978 -28.81759644 63.20220947 C-25.12465319 55.06450288 -21.40558117 46.93874329 -17.6875 38.8125 C-11.77259108 25.88362215 -5.87374201 12.94764766 0 0 Z M1 50 C-0.76003249 54.19507195 -2.51986988 58.39022568 -4.27954102 62.58544922 C-4.87584401 64.00702016 -5.47219661 65.4285703 -6.06860352 66.85009766 C-6.35598389 67.53507324 -6.64336426 68.22004883 -6.93945312 68.92578125 C-7.22571564 69.60805786 -7.51197815 70.29033447 -7.80691528 70.99328613 C-8.37990721 72.35985614 -8.95239854 73.72663616 -9.52438354 75.09362793 C-10.85506546 78.27379658 -12.19182762 81.4508587 -13.54150391 84.62304688 C-13.99831543 85.70134766 -14.45512695 86.77964844 -14.92578125 87.890625 C-15.52966675 89.30649902 -15.52966675 89.30649902 -16.14575195 90.75097656 C-17.11835981 92.91064633 -17.11835981 92.91064633 -17 95 C-4.46 95 8.08 95 21 95 C19.060521 89.181563 17.09847812 83.60857601 14.6796875 78.0078125 C14.37555939 77.29519257 14.07143127 76.58257263 13.75808716 75.84835815 C12.80039207 73.60579474 11.83796375 71.36530541 10.875 69.125 C9.90574339 66.86291975 8.93750655 64.60041037 7.9704895 62.33737183 C7.37210349 60.93774797 6.77229058 59.53873307 6.17086792 58.14041138 C5.01652472 55.44622772 3.92744319 52.78232957 3 50 C2.34 50 1.68 50 1 50 Z " fill="#213551" transform="translate(146,24)"/>
<!-- A2 -->
<path d="M0 0 C1.32 0 2.64 0 4 0 C12.84168312 19.20621844 21.66309244 38.42109345 30.40039062 57.67504883 C34.60025609 66.92875332 38.82013713 76.17311654 43.05026245 85.4130249 C45.04291143 89.7674276 47.03209368 94.12341466 49.02101135 98.47952271 C50.70005622 102.15648643 52.38108755 105.8325192 54.06591797 109.50683594 C55.735156 113.14768465 57.39882268 116.7910307 59.05856323 120.43621826 C59.6813343 121.80143323 60.30608039 123.16574914 60.93289185 124.52911377 C61.79383602 126.40248687 62.6477517 128.27890847 63.5 130.15625 C63.9846875 131.21650391 64.469375 132.27675781 64.96875 133.36914062 C66 136 66 136 66 139 C57.42 139 48.84 139 40 139 C36.39753171 131.79506342 33.09821692 124.4357206 30 117 C11.52 117 -6.96 117 -26 117 C-28.97 123.93 -31.94 130.86 -35 138 C-36 139 -36 139 -38.59204102 139.11352539 C-39.71795654 139.10828857 -40.84387207 139.10305176 -42.00390625 139.09765625 C-43.21884766 139.09443359 -44.43378906 139.09121094 -45.68554688 139.08789062 C-46.96494141 139.07951172 -48.24433594 139.07113281 -49.5625 139.0625 C-50.84576172 139.05798828 -52.12902344 139.05347656 -53.45117188 139.04882812 C-56.63416022 139.03699545 -59.81705762 139.02051068 -63 139 C-59.44160252 130.2330997 -55.59819724 121.61907326 -51.64379883 113.02636719 C-50.23058277 109.95542465 -48.82199317 106.88236689 -47.41314697 103.80941772 C-46.68301565 102.2168914 -45.95266802 100.62446423 -45.22210693 99.03213501 C-41.93637107 91.86860655 -38.67322119 84.69493584 -35.41607666 77.51837158 C-23.67502984 51.64958104 -11.84511371 25.82127663 0 0 Z M1 50 C-0.76003249 54.19507195 -2.51986988 58.39022568 -4.27954102 62.58544922 C-4.87584401 64.00702016 -5.47219661 65.4285703 -6.06860352 66.85009766 C-6.35598389 67.53507324 -6.64336426 68.22004883 -6.93945312 68.92578125 C-7.22571564 69.60805786 -7.51197815 70.29033447 -7.80691528 70.99328613 C-8.37990721 72.35985614 -8.95239854 73.72663616 -9.52438354 75.09362793 C-10.85506546 78.27379658 -12.19182762 81.4508587 -13.54150391 84.62304688 C-13.99831543 85.70134766 -14.45512695 86.77964844 -14.92578125 87.890625 C-15.52966675 89.30649902 -15.52966675 89.30649902 -16.14575195 90.75097656 C-17.11835981 92.91064633 -17.11835981 92.91064633 -17 95 C-4.46 95 8.08 95 21 95 C17.27448047 85.06528127 13.54007936 75.38657489 9.1875 65.75 C8.2197387 63.60026937 7.25476666 61.44928028 6.29296875 59.296875 C5.8755542 58.37229492 5.45813965 57.44771484 5.02807617 56.49511719 C4.13474378 54.32702005 3.48894421 52.28776361 3 50 C2.34 50 1.68 50 1 50 Z " fill="#213551" transform="translate(607,24)"/>
<!-- E -->
<path d="M0 0 C26.07 0 52.14 0 79 0 C79 7.26 79 14.52 79 22 C61.18 22 43.36 22 25 22 C25 32.56 25 43.12 25 54 C41.5 54 58 54 75 54 C75 60.93 75 67.86 75 75 C58.5 75 42 75 25 75 C25 87.54 25 100.08 25 113 C43.15 113 61.3 113 80 113 C80 120.26 80 127.52 80 135 C53.6 135 27.2 135 0 135 C0 90.45 0 45.9 0 0 Z " fill="#213551" transform="translate(314,28)"/>
<!-- S -->
<path d="M0 0 C1 1 1 1 1.11352539 3.22485352 C1.10567017 4.66235962 1.10567017 4.66235962 1.09765625 6.12890625 C1.09282227 7.68061523 1.09282227 7.68061523 1.08789062 9.26367188 C1.07532227 10.8965918 1.07532227 10.8965918 1.0625 12.5625 C1.05798828 13.65498047 1.05347656 14.74746094 1.04882812 15.87304688 C1.03699826 18.58208495 1.02051543 21.29101599 1 24 C-3.8823922 22.89225857 -8.2785881 20.70188667 -12.8046875 18.61523438 C-21.63883063 14.64322896 -30.82789217 12.02980847 -40.3125 15.25 C-43.60461442 16.67308532 -45.9470845 17.96168506 -48 21 C-49.05679422 25.36808277 -49.37095103 27.78822664 -48.0625 32.0625 C-42.55538373 39.90596863 -34.47433623 44.26022502 -26.25 48.8125 C-11.55969964 57.18488171 0.97944245 65.5226846 7 82 C9.60748092 93.09097517 8.19682275 104.3207073 2.71484375 114.3515625 C-4.13807844 124.23962293 -14.17608679 129.46927569 -25.625 132.25 C-43.45637078 135.34262837 -59.32055599 131.41517077 -76 125 C-76 115.76 -76 106.52 -76 97 C-73.751875 98.2375 -71.50375 99.475 -69.1875 100.75 C-58.0634128 106.75153464 -45.46320745 112.58226594 -32.5625 109.3984375 C-25.79762016 107.48658123 -25.79762016 107.48658123 -20.8125 103.0625 C-18.6920944 97.67993193 -17.70003354 92.44332581 -19.80078125 86.87890625 C-24.83960719 77.99602753 -34.35130238 73.00094504 -42.9375 68.0625 C-55.01932878 60.94576078 -68.37890914 52.93006834 -73.33984375 39.03515625 C-75.49424449 29.130012 -75.44523425 17.80232557 -70 9 C-62.61199551 -1.54894818 -53.24515437 -5.29614693 -40.94384766 -7.67480469 C-27.0227942 -10.00372245 -12.4618586 -6.16440692 0 0 Z " fill="#213551" transform="translate(76,33)"/>
<!-- F -->
<path d="M0 0 C26.4 0 52.8 0 80 0 C80 7.26 80 14.52 80 22 C61.85 22 43.7 22 25 22 C25 32.89 25 43.78 25 55 C42.16 55 59.32 55 77 55 C77 61.93 77 68.86 77 76 C59.84 76 42.68 76 25 76 C25 95.47 25 114.94 25 135 C16.75 135 8.5 135 0 135 C0 90.45 0 45.9 0 0 Z " fill="#213551" transform="translate(220,28)"/>
<!-- Y -->
<path d="M0 0 C4.00088693 -0.24888281 7.99873665 -0.42936435 12.00561523 -0.54931641 C13.36513772 -0.59934038 14.72412913 -0.66739674 16.08178711 -0.75439453 C27.2722092 -1.45302536 27.2722092 -1.45302536 31.25830078 1.89916992 C33.10394897 4.509341 34.55294998 7.15111268 36 10 C37.1031707 11.74111168 38.22307083 13.47173526 39.359375 15.19140625 C40.4918725 16.9803237 41.62202539 18.77072728 42.75 20.5625 C46.25357664 26.10738943 49.75678474 31.65034709 53.3515625 37.13671875 C53.86364258 37.91909912 54.37572266 38.70147949 54.90332031 39.50756836 C55.86510588 40.97306279 56.83045509 42.43622629 57.79980469 43.89672852 C61 48.780246 61 48.780246 61 51 C61.66 51 62.32 51 63 51 C63.26321045 50.28336182 63.5264209 49.56672363 63.79760742 48.82836914 C65.04121802 45.9030435 66.51502586 43.41529918 68.23828125 40.74609375 C68.88788818 39.73546875 69.53749512 38.72484375 70.20678711 37.68359375 C71.24911499 36.07677734 71.24911499 36.07677734 72.3125 34.4375 C73.02220947 33.33664063 73.73191895 32.23578125 74.46313477 31.1015625 C75.92287251 28.83789254 77.3854105 26.57607209 78.85058594 24.31591797 C80.87484724 21.19307415 82.89484798 18.06751463 84.9140625 14.94140625 C86.08809251 13.12731341 87.26254749 11.31349549 88.4375 9.5 C88.98639893 8.65236084 89.53529785 7.80472168 90.10083008 6.93139648 C90.60251709 6.15997314 91.1042041 5.3885498 91.62109375 4.59375 C92.0586499 3.92021484 92.49620605 3.24667969 92.94702148 2.55273438 C94 1 94 1 95 0 C97.14558827 -0.08775605 99.29404421 -0.10695219 101.44140625 -0.09765625 C102.74658203 -0.09443359 104.05175781 -0.09121094 105.39648438 -0.08789062 C106.7851569 -0.07953401 108.17382877 -0.07106905 109.5625 -0.0625 C110.95507656 -0.05748666 112.34765481 -0.05292347 113.74023438 -0.04882812 C117.1601987 -0.03699434 120.58007844 -0.0205088 124 0 C122.55846968 4.04433194 120.59969399 7.30316687 118.17578125 10.83984375 C117.60855095 11.67184799 117.60855095 11.67184799 117.02986145 12.5206604 C115.79521365 14.32937851 114.55391134 16.13341898 113.3125 17.9375 C112.44925333 19.19947818 111.58646511 20.46177007 110.72412109 21.72436523 C108.98046354 24.27592967 107.23428853 26.82573982 105.48583984 29.37402344 C102.62666451 33.5421279 99.78220234 37.72019192 96.93823242 41.89868164 C95.25451419 44.3722308 93.56937008 46.84479237 91.8828125 49.31640625 C91.3168335 50.18370361 90.75085449 51.05100098 90.16772461 51.94458008 C88.43657565 54.38464419 86.67917871 56.52903304 84.70922852 58.7644043 C73.17886148 72.55606777 73.21938591 86.47226305 73.64379883 103.58190918 C73.71755877 107.13577838 73.7154887 110.68962711 73.72070312 114.24414062 C73.74158097 121.16477578 73.85046629 128.0809573 74 135 C65.75 135 57.5 135 49 135 C49.10380981 132.4027002 49.10380981 132.4027002 49.2097168 129.75292969 C52.0862911 87.16995073 52.0862911 87.16995073 34.13671875 50.43359375 C33.2657959 49.53108887 32.39487305 48.62858398 31.49755859 47.69873047 C27.49016757 43.36855448 24.39778342 38.49477618 21.1875 33.5625 C19.99613057 31.80591297 18.80086747 30.05195991 17.6015625 28.30078125 C13.74288407 22.62544126 9.8919244 16.94512894 6.0625 11.25 C5.45237061 10.34967041 4.84224121 9.44934082 4.21362305 8.52172852 C3.659729 7.69471436 3.10583496 6.8677002 2.53515625 6.015625 C2.044104 5.28633789 1.55305176 4.55705078 1.04711914 3.80566406 C0 2 0 2 0 0 Z " fill="#213551" transform="translate(641,28)"/>
<!-- TM -->
<path d="M0 0 C4.95 0 9.9 0 15 0 C15.66 1.65 16.32 3.3 17 5 C18.93798263 2.22739701 18.93798263 2.22739701 20 0 C21.32 0 22.64 0 24 0 C24 4.29 24 8.58 24 13 C23.01 13 22.02 13 21 13 C20.67 12.01 20.34 11.02 20 10 C19.01 11.485 19.01 11.485 18 13 C17.34 13 16.68 13 16 13 C15.34 11.35 14.68 9.7 14 8 C13.67 9.65 13.34 11.3 13 13 C12.01 12.67 11.02 12.34 10 12 C10 8.7 10 5.4 10 2 C9.01 2 8.02 2 7 2 C7 5.63 7 9.26 7 13 C6.01 13 5.02 13 4 13 C4 9.37 4 5.74 4 2 C2.68 2 1.36 2 0 2 C0 1.34 0 0.68 0 0 Z " fill="#213551" transform="translate(995,175)"/>
</svg>
