<?xml version="1.0" encoding="UTF-8"?>
<svg version="1.1" xmlns="http://www.w3.org/2000/svg" width="3840" height="2160">
<path d="M0 0 C4.3216192 0.01709034 8.64268353 0.00689252 12.96428394 -0.01032162 C43.27440176 -0.11240798 73.45887 1.4976501 103.49902344 5.70361328 C104.25962067 5.80682892 105.0202179 5.91004456 105.80386353 6.01638794 C131.50165189 9.50821574 156.96455659 14.35484076 182.18652344 20.39111328 C183.36263184 20.67148437 184.53874023 20.95185547 185.75048828 21.24072266 C254.45076732 37.81881636 321.17826734 64.75582727 382.18652344 100.39111328 C383.19328125 100.97763672 384.20003906 101.56416016 385.23730469 102.16845703 C400.93753586 111.35161111 416.18388804 121.10995207 431.18652344 131.39111328 C431.96431152 131.9230127 432.74209961 132.45491211 433.54345703 133.00292969 C451.39536254 145.26440153 468.53310071 158.55318102 485.18652344 172.39111328 C486.05978271 173.11572754 486.05978271 173.11572754 486.95068359 173.85498047 C493.59743765 179.38547138 500.09795729 185.04394577 506.45605469 190.90673828 C508.63403271 192.88841786 510.83268003 194.83347569 513.05371094 196.76611328 C523.4961342 205.88012416 533.43509314 215.54629448 543.24902344 225.32861328 C544.0338208 226.10881836 544.81861816 226.88902344 545.62719727 227.69287109 C549.76122506 231.83795599 553.72548131 236.06773229 557.54467773 240.50415039 C560.13494081 243.48112337 562.85422707 246.33350628 565.56152344 249.20361328 C570.2084212 254.16950031 574.62947792 259.24362236 578.88183594 264.55517578 C581.06569356 267.2424311 583.30611319 269.86535169 585.57495117 272.48046875 C591.26145154 279.03540393 596.6787131 285.73190143 601.89160156 292.67089844 C603.24800455 294.47278672 604.61514367 296.2661803 605.98339844 298.05908203 C660.81481274 370.18058953 702.06823058 451.82535271 752.93652344 655.89111328 C753.03162201 656.59738861 753.12672058 657.30366394 753.22470093 658.03134155 C757.20695302 688.00681516 758.70160173 718.08084792 758.57763672 748.29516602 C758.56056035 752.48670196 758.57073909 756.67766515 758.58795834 760.86918163 C758.64985453 778.69824368 758.20003547 796.40931665 756.80761719 814.18798828 C756.74643581 814.97094206 756.68525444 815.75389584 756.62221909 816.56057549 C750.41615127 894.17869377 731.7504676 970.96992123 656.99194336 1132.38256836 C655.62103974 1134.66703696 654.27204475 1136.95917617 652.93774414 1139.26489258 C647.08657353 1149.35966875 640.88492164 1159.14782349 634.37402344 1168.82861328 C633.89574097 1169.54279419 633.4174585 1170.2569751 632.92468262 1170.99279785 C625.57737962 1181.96265717 618.12019348 1192.83412023 610.18652344 1203.39111328 C609.76048828 1203.96055664 609.33445312 1204.53 608.89550781 1205.11669922 C602.38996364 1213.78232688 595.5474505 1222.17518958 588.68359375 1230.55761719 C587.35232391 1232.18805367 586.03046175 1233.82616147 584.70996094 1235.46533203 C580.1590198 1241.10174499 575.4218467 1246.51162577 570.51855469 1251.84423828 C568.56247092 1253.98053077 566.64464647 1256.13891985 564.74902344 1258.32861328 C555.46968368 1268.9677458 545.69085527 1279.04621413 535.69702148 1289.01098633 C533.48857681 1291.21403438 531.28557793 1293.42242797 529.08300781 1295.63134766 C527.6555942 1297.05810093 526.22787067 1298.48454423 524.79980469 1299.91064453 C523.83074944 1300.88273613 523.83074944 1300.88273613 522.84211731 1301.87446594 C518.99362755 1305.70353283 515.03292816 1309.3496789 510.92102051 1312.89472961 C508.70041606 1314.81048738 506.53851243 1316.78736853 504.37402344 1318.76611328 C500.05391553 1322.66474725 495.60580963 1326.36615186 491.08105469 1330.02392578 C488.57315249 1332.07492272 486.10576256 1334.16506423 483.64990234 1336.27783203 C470.50235522 1347.56217005 456.49771899 1357.75258167 442.40087891 1367.80908203 C440.24276826 1369.35092955 438.09129385 1370.90167976 435.94042969 1372.45361328 C425.61765916 1379.86618988 415.01940359 1386.74918512 404.18652344 1393.39111328 C402.73898682 1394.27935791 402.73898682 1394.27935791 401.26220703 1395.18554688 C386.79832579 1404.02983569 372.16289267 1412.4476087 357.18652344 1420.39111328 C355.66067627 1421.20829834 355.66067627 1421.20829834 354.10400391 1422.04199219 C283.97911258 1459.53673131 207.50494393 1484.41761109 52.18652344 1506.39111328 C51.51436798 1506.43241364 50.84221252 1506.47371399 50.14968872 1506.51626587 C35.47375786 1507.41235992 20.82484832 1507.59254625 6.12402344 1507.57861328 C4.34680908 1507.57770691 4.34680908 1507.57770691 2.53369141 1507.57678223 C-17.31656775 1507.54943108 -37.03408649 1507.08036466 -56.81347656 1505.39111328 C-57.54002441 1505.33030579 -58.26657227 1505.26949829 -59.01513672 1505.20684814 C-123.57566229 1499.76099519 -186.73210533 1485.86506182 -247.81347656 1464.39111328 C-249.04807617 1463.95798828 -250.28267578 1463.52486328 -251.5546875 1463.07861328 C-296.67617561 1447.11082097 -340.98225878 1426.43037402 -381.81347656 1401.39111328 C-382.69890137 1400.8505127 -383.58432617 1400.30991211 -384.49658203 1399.75292969 C-416.07542067 1380.41732296 -446.39122086 1359.14640096 -474.81347656 1335.39111328 C-475.32716797 1334.96233887 -475.84085938 1334.53356445 -476.37011719 1334.09179688 C-482.78663373 1328.72757382 -489.12137344 1323.29342636 -495.30175781 1317.65673828 C-497.40392035 1315.7605419 -499.52594349 1313.89428825 -501.66113281 1312.03564453 C-512.64088031 1302.44258381 -523.05639139 1292.2470154 -533.37597656 1281.95361328 C-534.30361816 1281.03056396 -535.23125977 1280.10751465 -536.18701172 1279.15649414 C-540.69503366 1274.63825456 -545.06842862 1270.06954609 -549.22436523 1265.2253418 C-551.7920198 1262.26163174 -554.49827474 1259.43062247 -557.18847656 1256.57861328 C-561.86031557 1251.58566044 -566.31147971 1246.48542571 -570.58691406 1241.14501953 C-572.5801801 1238.67966416 -574.62288785 1236.26601286 -576.69116211 1233.86352539 C-583.75478907 1225.64126757 -590.31600956 1217.06432904 -596.81347656 1208.39111328 C-597.38501465 1207.62992188 -597.95655273 1206.86873047 -598.54541016 1206.08447266 C-650.42819869 1136.83015007 -689.8509239 1059.54982364 -745.06347656 836.51611328 C-745.14069946 835.82564911 -745.21792236 835.13518494 -745.29748535 834.42379761 C-748.09011858 809.05458906 -749.15717156 783.68877791 -749.07421875 758.18481445 C-749.06283641 754.66198113 -749.06961906 751.13945071 -749.0810976 747.61662769 C-749.15161161 722.03331524 -748.04611685 696.510032 -745.12597656 671.07861328 C-745.04488647 670.36350586 -744.96379639 669.64839844 -744.88024902 668.91162109 C-741.19445091 636.73076675 -735.51639459 604.84926341 -727.81347656 573.39111328 C-727.65447876 572.74134521 -727.49548096 572.09157715 -727.33166504 571.42211914 C-714.22548494 518.15401521 -694.96538664 467.05791983 -670.58642578 417.97216797 C-669.06216908 414.8934297 -667.55838835 411.80634906 -666.06738281 408.71142578 C-660.16322566 396.534324 -653.45392896 384.88591119 -646.52441406 373.26611328 C-644.94166066 370.60650939 -643.37499093 367.93822343 -641.81347656 365.26611328 C-627.31012431 340.58389291 -610.92296226 316.9870967 -593.36425781 294.38720703 C-591.89499731 292.49604301 -590.43205707 290.60013716 -588.96972656 288.70361328 C-583.86915923 282.11988936 -578.60058335 275.71506102 -573.14428711 269.42285156 C-570.20516622 266.0319602 -567.35569371 262.5927725 -564.56347656 259.07861328 C-558.74675899 251.92038246 -552.31976571 245.32561177 -545.96142578 238.65234375 C-543.80012614 236.37705877 -541.65057386 234.09127427 -539.50488281 231.80126953 C-538.80242432 231.05184082 -538.09996582 230.30241211 -537.3762207 229.53027344 C-536.04796141 228.1125622 -534.72027883 226.69431031 -533.39331055 225.27539062 C-527.12520312 218.60026323 -520.76030054 212.14229014 -513.81347656 206.17236328 C-511.73010578 204.31686118 -509.77066449 202.37888227 -507.81347656 200.39111328 C-503.97743278 196.51072217 -499.95171551 192.94387791 -495.81347656 189.39111328 C-494.7320182 188.44663508 -493.65135718 187.50124349 -492.57128906 186.55517578 C-477.54430143 173.41419106 -462.1456332 160.9252641 -446.08105469 149.07080078 C-444.13282855 147.62767031 -442.19673064 146.17077977 -440.26660156 144.70361328 C-411.88601879 123.27525091 -381.10251971 104.43892614 -349.66210938 87.89550781 C-346.88801581 86.43047828 -344.12725386 84.94276194 -341.36816406 83.44970703 C-289.77870176 55.74921131 -233.66844103 35.17204979 -176.81347656 21.39111328 C-176.07091614 21.21104736 -175.32835571 21.03098145 -174.56329346 20.84545898 C-117.25363851 7.02652578 -58.9595549 -0.23503021 0 0 Z M-57.81347656 255.39111328 C-58.90837402 255.54030212 -58.90837402 255.54030212 -60.02539062 255.69250488 C-154.10281488 268.67266843 -242.8481782 306.24828069 -315.81347656 367.39111328 C-316.41111816 367.8896582 -317.00875977 368.38820313 -317.62451172 368.90185547 C-330.7815431 379.90776482 -343.16377222 391.66316426 -355.31347656 403.76611328 C-356.56862061 405.01424805 -356.56862061 405.01424805 -357.84912109 406.28759766 C-362.71031388 411.16147266 -367.34592977 416.15553452 -371.81347656 421.39111328 C-372.78668111 422.50895748 -373.76060992 423.62617165 -374.73535156 424.74267578 C-399.08580295 452.85078183 -419.92026757 483.57489926 -437.64453125 516.25 C-438.72844018 518.23535534 -439.83399164 520.20672707 -440.94628906 522.17626953 C-453.80704751 545.28213993 -463.50483557 570.34712792 -471.81347656 595.39111328 C-472.16603516 596.44363281 -472.51859375 597.49615234 -472.88183594 598.58056641 C-489.3433469 648.21217639 -497.0305027 700.41274975 -497.06347656 752.64111328 C-497.06415131 753.61544312 -497.06482605 754.58977295 -497.06552124 755.59362793 C-496.98388244 830.68606102 -479.80184366 903.53731455 -447.81347656 971.39111328 C-447.37680664 972.32101074 -446.94013672 973.2509082 -446.49023438 974.20898438 C-430.91937703 1007.08559633 -410.64390151 1038.10485606 -387.81347656 1066.39111328 C-387.03101563 1067.36822266 -386.24855469 1068.34533203 -385.44238281 1069.35205078 C-381.09041776 1074.73732469 -376.58820152 1079.94719074 -371.92285156 1085.06298828 C-370.05672089 1087.12264362 -368.24277868 1089.21500223 -366.43847656 1091.32861328 C-361.83939237 1096.615411 -356.79821793 1101.47254104 -351.81347656 1106.39111328 C-349.00017356 1109.19062558 -346.20705806 1112.00822374 -343.43066406 1114.84423828 C-336.96488533 1121.42119876 -330.51687618 1127.72078084 -323.26660156 1133.43408203 C-320.98163416 1135.25696207 -318.83688458 1137.1608059 -316.68847656 1139.14111328 C-309.76884506 1145.34788754 -302.25686129 1150.83568218 -294.81347656 1156.39111328 C-294.09482422 1156.92929688 -293.37617187 1157.46748047 -292.63574219 1158.02197266 C-274.09775563 1171.84548489 -254.54733947 1183.87380487 -234.29931641 1195.01904297 C-232.20825258 1196.17321491 -230.12806305 1197.3435408 -228.05175781 1198.52392578 C-162.29010362 1235.0327187 -83.74832188 1253.77177573 -8.81347656 1255.39111328 C-7.82976074 1255.41302734 -6.84604492 1255.43494141 -5.83251953 1255.45751953 C66.65584742 1256.80676787 139.92336786 1243.07611754 206.18652344 1213.39111328 C207.23453125 1212.92737305 208.28253906 1212.46363281 209.36230469 1211.98583984 C238.81686936 1198.90948062 266.99804539 1183.21625267 293.18652344 1164.39111328 C294.29906494 1163.59519775 294.29906494 1163.59519775 295.43408203 1162.78320312 C307.06829059 1154.43037623 318.26039177 1145.64808487 329.18652344 1136.39111328 C329.84668457 1135.83536621 330.5068457 1135.27961914 331.18701172 1134.70703125 C338.50431912 1128.53469495 345.58468995 1122.23089168 352.24438477 1115.34765625 C355.06538136 1112.43982069 358.02433736 1109.91563539 361.18652344 1107.39111328 C362.28375254 1106.21422586 363.34810425 1105.00565574 364.37402344 1103.76611328 C367.12798599 1100.53423966 370.02165159 1097.54307746 373.06152344 1094.57861328 C377.39753535 1090.29515909 381.2535604 1085.78013841 385.05371094 1081.02001953 C386.94573133 1078.68791381 388.90298513 1076.47407643 390.93652344 1074.26611328 C412.27017837 1050.47739489 429.88630633 1022.32032147 445.18652344 994.39111328 C445.67475586 993.50117676 446.16298828 992.61124023 446.66601562 991.69433594 C487.02536594 917.56030188 506.74957722 834.62524614 504.18652344 703.39111328 C503.99316406 701.57377686 503.99316406 701.57377686 503.79589844 699.71972656 C497.84259376 645.74723176 483.6463566 593.80113101 461.18652344 544.39111328 C460.78868652 543.50584961 460.39084961 542.62058594 459.98095703 541.70849609 C446.32077894 511.42754648 428.75477199 483.1758687 409.18652344 456.39111328 C408.71988281 455.75028809 408.25324219 455.10946289 407.77246094 454.44921875 C398.66747011 441.98767548 388.84082469 430.3097143 378.45703125 418.89672852 C377.02491 417.31631342 375.60003429 415.72927358 374.18554688 414.13305664 C368.82892102 408.09961216 363.2650752 402.31370364 357.54760742 396.62182617 C356.11812627 395.19773837 354.69411833 393.76833284 353.27050781 392.33837891 C348.06997513 387.14508427 342.77842606 382.15804179 337.18652344 377.39111328 C335.98306337 376.33438109 334.7812211 375.27580345 333.58105469 374.21533203 C326.20006422 367.7365984 318.71448345 361.49149805 310.83886719 355.62255859 C309.72436377 354.79195055 308.61243269 353.95788123 307.50292969 353.12060547 C236.05448101 299.21023972 151.63350792 265.42473361 47.18652344 253.39111328 C46.22601074 253.29685059 45.26549805 253.20258789 44.27587891 253.10546875 C10.76508517 250.19984851 -24.46805459 250.82766026 -57.81347656 255.39111328 Z " fill="#213551" transform="translate(1914.8134765625,32.60888671875)"/>
<path d="M0 0 C1.42031525 0.00323273 1.42031525 0.00323273 2.86932373 0.00653076 C17.05463823 0.05828997 30.93579241 0.44637437 44.875 3.3125 C45.8542041 3.51117676 46.8334082 3.70985352 47.84228516 3.91455078 C78.6723848 10.36668795 108.30865595 21.22659085 134.875 38.3125 C135.53371094 38.73466797 136.19242188 39.15683594 136.87109375 39.59179688 C151.34283797 48.97163109 165.03813994 59.74262337 176.875 72.3125 C178.1125 73.55 178.1125 73.55 179.375 74.8125 C180.6125 76.05 180.6125 76.05 181.875 77.3125 C182.82246094 78.20775391 182.82246094 78.20775391 183.7890625 79.12109375 C190.56400468 85.64466881 196.23721478 92.81434687 201.875 100.3125 C202.2992627 100.87066406 202.72352539 101.42882812 203.16064453 102.00390625 C242.30520105 153.76833738 258.88370771 221.4702138 250.28125 285.59057617 C249.84725468 288.50492194 249.37417797 291.40864247 248.875 294.3125 C248.71402832 295.25383789 248.55305664 296.19517578 248.38720703 297.16503906 C240.33913875 342.17546515 219.35269569 385.99065649 187.875 419.3125 C186.74470833 420.62044571 185.61956689 421.93286248 184.5 423.25 C176.70273567 432.16115924 168.19586859 440.02342838 158.875 447.3125 C157.86695312 448.11429688 156.85890625 448.91609375 155.8203125 449.7421875 C103.91657057 490.70869724 37.24892337 509.40506251 -28.48046875 502.05859375 C-55.05360927 498.71997715 -80.83227941 491.62310156 -105.125 480.3125 C-105.81207031 479.99313477 -106.49914063 479.67376953 -107.20703125 479.34472656 C-129.12266726 469.02594001 -149.48185885 455.97920777 -167.125 439.3125 C-168.43294571 438.18220833 -169.74536248 437.05706689 -171.0625 435.9375 C-179.974046 428.13989725 -187.84212299 419.63785053 -195.125 410.3125 C-195.85589844 409.39621826 -195.85589844 409.39621826 -196.6015625 408.46142578 C-205.01955467 397.90524287 -212.41819261 387.02914869 -219.125 375.3125 C-219.5163916 374.63815918 -219.9077832 373.96381836 -220.31103516 373.26904297 C-235.28619711 347.24276023 -244.538543 317.90023041 -249.125 288.3125 C-249.24214355 287.59513672 -249.35928711 286.87777344 -249.47998047 286.13867188 C-259.39994398 222.99287147 -241.304682 155.76267314 -204.125 104.3125 C-197.38416393 95.11413976 -190.02771597 86.53215139 -182.125 78.3125 C-181.47644043 77.6313916 -180.82788086 76.9502832 -180.15966797 76.24853516 C-169.87112323 65.49350728 -159.30081611 55.87819081 -147.125 47.3125 C-146.06659912 46.55960693 -146.06659912 46.55960693 -144.98681641 45.79150391 C-102.28224983 15.62831922 -52.1831359 -0.21424565 0 0 Z " fill="#213551" transform="translate(1919.125,534.6875)"/>
<path d="M0 0 C7.70468629 6.66147961 15.23735409 15.34970819 19.8125 24.5 C20.1425 11.96 20.4725 -0.58 20.8125 -13.5 C46.5525 -13.5 72.2925 -13.5 98.8125 -13.5 C98.87874729 23.61343158 98.93409696 60.726807 98.96569599 97.84028088 C98.96944771 102.23076027 98.97333071 106.62123954 98.97729492 111.01171875 C98.97808185 111.88571328 98.97886878 112.75970782 98.97967956 113.66018704 C98.9927017 127.77605566 99.01633779 141.89188729 99.04395839 156.00773403 C99.07210172 170.51266747 99.08869505 185.01758166 99.09476548 199.52254128 C99.09886349 208.45898322 99.11176418 217.39532057 99.1362494 226.33173028 C99.15221707 232.47579526 99.15687567 238.61980689 99.15300413 244.76389107 C99.15109956 248.29850538 99.15383143 251.83293811 99.17011642 255.36751938 C99.30412829 289.51669099 94.84558893 321.20134836 72.8125 348.5 C72.39129883 349.02432617 71.97009766 349.54865234 71.53613281 350.08886719 C51.0349959 375.10056746 19.00607134 387.52624434 -12.1875 392.5 C-13.280625 392.67732666 -14.37375 392.85465332 -15.5 393.03735352 C-26.4956598 394.62440693 -37.38755407 394.83954786 -48.48632812 394.81567383 C-51.55114297 394.81251172 -54.61499087 394.83607502 -57.6796875 394.86132812 C-69.83258544 394.90055175 -81.29290496 393.99872845 -93.1875 391.5 C-94.13399414 391.30656006 -95.08048828 391.11312012 -96.05566406 390.91381836 C-98.26350603 390.43167464 -100.44239104 389.89750526 -102.625 389.3125 C-103.78249756 389.00276245 -103.78249756 389.00276245 -104.96337891 388.68676758 C-132.93001503 380.8259211 -159.45924292 364.34230249 -174.37109375 338.88671875 C-181.26964167 326.02426489 -185.1875 314.14403502 -185.1875 299.5 C-158.4575 299.5 -131.7275 299.5 -104.1875 299.5 C-102.5375 303.46 -100.8875 307.42 -99.1875 311.5 C-93.44361802 322.85324681 -85.25623387 330.01244282 -73.34765625 334.46875 C-53.17177426 341.05272138 -30.28102952 341.14013298 -10.9375 331.9375 C3.97353116 324.33370871 11.5004205 312.21959426 16.734375 296.796875 C20.58778788 282.6097832 20.05134493 268.19070648 19.9375 253.625 C19.92744816 251.37630608 19.91832622 249.1276078 19.91015625 246.87890625 C19.88832205 241.41917431 19.85501986 235.95960801 19.8125 230.5 C19.11870239 231.50341431 19.11870239 231.50341431 18.41088867 232.52709961 C17.7944751 233.41405518 17.17806152 234.30101074 16.54296875 235.21484375 C15.93606201 236.09003662 15.32915527 236.96522949 14.70385742 237.86694336 C0.35446374 257.84347762 -22.7344759 268.89913124 -46.5 273.3125 C-77.80839629 278.41727909 -113.57389762 273.59223723 -140.03466797 255.21728516 C-170.89589525 232.84390392 -186.86688866 199.94192667 -192.82910156 162.78808594 C-193.00650879 161.6554834 -193.00650879 161.6554834 -193.1875 160.5 C-193.30319336 159.80938477 -193.41888672 159.11876953 -193.53808594 158.40722656 C-197.15731522 136.1441337 -196.73950045 111.56555338 -192.1875 89.5 C-191.93806641 88.26515869 -191.93806641 88.26515869 -191.68359375 87.00537109 C-186.06083291 60.08380044 -174.46505122 36.04636344 -156.1875 15.5 C-155.42824219 14.63890625 -154.66898438 13.7778125 -153.88671875 12.890625 C-116.3813142 -26.9456239 -42.97152054 -35.71249639 0 0 Z M-86.1875 53.5 C-87.198125 54.221875 -88.20875 54.94375 -89.25 55.6875 C-105.67033387 70.06663215 -111.79661764 94.70920639 -113.1875 115.5 C-114.5583956 142.67922931 -110.69836779 172.99494866 -92.30859375 194.32421875 C-80.00566036 206.94435485 -65.13051444 212.2707992 -47.6875 212.875 C-37.27579235 212.52899159 -26.35121069 210.5678097 -17.1875 205.5 C-16.011875 204.90445312 -16.011875 204.90445312 -14.8125 204.296875 C1.40611318 195.47800408 11.47980035 179.81606653 16.8125 162.5 C24.38321526 132.91402489 23.16893296 97.39553848 8.11328125 70.16796875 C0.08643026 56.76175639 -12.63547313 47.28618515 -27.5703125 42.78125 C-32.70970895 41.56355328 -37.92409103 40.88851173 -43.1875 40.5 C-43.84878906 40.44585938 -44.51007813 40.39171875 -45.19140625 40.3359375 C-60.40065032 39.7010165 -74.03923942 44.72369008 -86.1875 53.5 Z " fill="#213551" transform="translate(2076.1875,1738.5)"/>
<path d="M0 0 C2.44900768 2.20504523 4.80008169 4.4154177 7.0390625 6.8359375 C7.81636719 7.58810547 7.81636719 7.58810547 8.609375 8.35546875 C23.6819465 23.86737529 26.17688444 44.80881041 26.21264648 65.38061523 C26.21896032 66.95338114 26.22572702 68.52614529 26.23291016 70.09890747 C26.24752137 73.47367926 26.25926959 76.84844443 26.26885796 80.22323418 C26.28437865 85.56536416 26.30832675 90.90743616 26.33375549 96.24952698 C26.40478015 111.43625213 26.46473033 126.62300971 26.51586914 141.80981445 C26.54421814 150.20664896 26.57961924 158.60342492 26.62252289 167.00019795 C26.64920625 172.30479366 26.66716551 177.60932327 26.67856014 182.91397274 C26.6877207 186.22058527 26.70509804 189.52711769 26.72473907 192.83368301 C26.73217765 194.36021343 26.7362934 195.88676444 26.73673439 197.41331291 C26.60424431 208.80690387 26.60424431 208.80690387 29.0390625 219.8359375 C35.49114188 222.65401039 35.49114188 222.65401039 49.0390625 223.8359375 C49.0390625 241.3259375 49.0390625 258.8159375 49.0390625 276.8359375 C36.97529098 282.86782326 26.54763402 284.35869486 13.1640625 284.2109375 C12.50641907 284.20661713 11.84877563 284.20229675 11.17120361 284.19784546 C-7.37462723 284.05498581 -25.21543974 281.43389861 -38.9609375 267.8359375 C-43.92769275 261.88674715 -46.96516056 254.92771034 -49.9609375 247.8359375 C-50.63898438 248.54878906 -51.31703125 249.26164062 -52.015625 249.99609375 C-57.88717624 256.0783695 -63.74068326 261.35583747 -70.9609375 265.8359375 C-72.00894531 266.49335937 -73.05695313 267.15078125 -74.13671875 267.828125 C-106.44895897 287.51221894 -149.24903443 291.40247233 -185.7109375 283.0859375 C-198.16868579 280.04453459 -209.49230712 275.34569232 -219.9609375 267.8359375 C-221.20423828 266.97935547 -221.20423828 266.97935547 -222.47265625 266.10546875 C-240.01572455 253.18914374 -249.30833163 233.1309278 -252.546875 212.015625 C-254.68353647 193.23513861 -253.00397941 174.0741926 -244.9609375 156.8359375 C-244.27451172 155.36253906 -244.27451172 155.36253906 -243.57421875 153.859375 C-232.16506752 132.07565552 -210.43379892 120.85543981 -187.8359375 113.7734375 C-165.23464336 107.09856638 -141.61041413 104.75311512 -118.27832031 102.06640625 C-86.87722675 99.44654826 -86.87722675 99.44654826 -60.9609375 83.8359375 C-55.85554257 75.43673938 -56.40132136 64.94622982 -58.234375 55.59765625 C-60.63885429 46.45804949 -65.73499563 40.79650262 -73.78125 35.96875 C-83.38704769 30.97648955 -93.38839962 30.62563436 -103.99902344 30.59570312 C-106.05966557 30.58606044 -108.11928132 30.55501461 -110.1796875 30.5234375 C-123.62274543 30.41467571 -137.5126855 32.64099761 -148.09375 41.65234375 C-155.75322072 49.85891952 -158.53042589 59.02813449 -160.3828125 69.80859375 C-160.9609375 72.8359375 -160.9609375 72.8359375 -161.9609375 73.8359375 C-164.51683638 73.93099802 -167.04561722 73.96150511 -169.60180664 73.94946289 C-170.80171486 73.94968193 -170.80171486 73.94968193 -172.02586365 73.9499054 C-174.68263415 73.94920605 -177.33933543 73.94141268 -179.99609375 73.93359375 C-181.83312441 73.93172965 -183.67015556 73.93030571 -185.50718689 73.92930603 C-190.35203412 73.92548025 -195.19685158 73.91564946 -200.04168701 73.90460205 C-204.98156328 73.89438922 -209.92144435 73.88980869 -214.86132812 73.88476562 C-224.56121103 73.87402724 -234.26107179 73.8569501 -243.9609375 73.8359375 C-243.81661067 71.77035037 -243.66808931 69.70505607 -243.51782227 67.63989258 C-243.435569 66.48975174 -243.35331573 65.3396109 -243.26856995 64.15461731 C-242.86622172 59.81416181 -242.03885748 55.72324012 -240.8984375 51.5234375 C-240.5729895 50.32050049 -240.5729895 50.32050049 -240.2409668 49.09326172 C-233.03054634 23.97708781 -216.00511861 5.41842445 -193.56420898 -7.33666992 C-142.91357384 -35.07408137 -46.18196803 -39.26219432 0 0 Z M-58.578125 135.75390625 C-64.05867127 138.83552829 -69.56570533 140.74469181 -75.61328125 142.3203125 C-76.44132767 142.53670883 -77.26937408 142.75310516 -78.12251282 142.97605896 C-87.20383139 145.26650817 -96.38064737 146.61712132 -105.6484375 147.8984375 C-128.25565491 150.73148947 -128.25565491 150.73148947 -149.4609375 158.5859375 C-150.12254883 158.92882813 -150.78416016 159.27171875 -151.46582031 159.625 C-159.64019339 164.04488796 -165.84908123 169.92620165 -168.9609375 178.8359375 C-172.15998631 190.01422299 -172.44624547 202.73519948 -166.671875 213.1640625 C-165.21524664 215.20490009 -163.68567836 217.0174164 -161.9609375 218.8359375 C-161.44660156 219.39023438 -160.93226562 219.94453125 -160.40234375 220.515625 C-150.59811373 229.96718488 -135.21482721 231.21921235 -122.2734375 231.1484375 C-121.22269043 231.14424805 -120.17194336 231.14005859 -119.08935547 231.13574219 C-100.81737464 230.87194766 -85.69499206 226.40344862 -71.95703125 214.03125 C-55.72921072 197.11365633 -55.7767948 173.06478004 -55.8984375 151.1484375 C-55.90346503 149.56054829 -55.90802571 147.97265754 -55.91210938 146.38476562 C-55.92300995 142.53511725 -55.94020467 138.68554497 -55.9609375 134.8359375 C-57.12592052 134.75366276 -57.12592052 134.75366276 -58.578125 135.75390625 Z " fill="#213551" transform="translate(1622.9609375,1743.1640625)"/>
<path d="M0 0 C6.35410781 5.55984433 11.69382042 11.69968492 16.8125 18.3984375 C17.47894531 19.24921875 18.14539062 20.1 18.83203125 20.9765625 C46.65191912 57.63077374 50.8125 99.59772714 50.8125 144.3984375 C-19.4775 144.3984375 -89.7675 144.3984375 -162.1875 144.3984375 C-157.96291138 177.18434421 -157.96291138 177.18434421 -139.01171875 203.19921875 C-120.92194946 216.67277897 -98.53609602 218.55631593 -76.70507812 216.12158203 C-60.50379355 213.57432386 -42.99287155 204.69701238 -33.25 191.3359375 C-30.58485005 187.40042123 -29.12980007 183.930471 -27.1875 179.3984375 C-3.0975 179.3984375 20.9925 179.3984375 45.8125 179.3984375 C43.74624761 186.28594547 41.63905105 192.60230791 38.6875 199.0859375 C38.29353027 199.9517041 37.89956055 200.8174707 37.49365234 201.70947266 C23.65345265 231.53056296 1.99954019 254.92422221 -28.1875 268.3984375 C-29.71697266 269.10419922 -29.71697266 269.10419922 -31.27734375 269.82421875 C-68.37698504 285.57084705 -117.25205058 284.37775201 -154.48706055 269.83422852 C-172.34247686 262.50710549 -187.28780323 252.80801802 -201.1875 239.3984375 C-201.96738281 238.68171875 -202.74726563 237.965 -203.55078125 237.2265625 C-233.35699314 209.06154522 -243.67120615 166.83543818 -245.31640625 127.30078125 C-246.12419473 85.56504335 -232.57556352 43.60299176 -203.70605469 13.01245117 C-202.21121451 11.46280019 -200.70336996 9.92750218 -199.1875 8.3984375 C-198.33800781 7.53605469 -197.48851563 6.67367188 -196.61328125 5.78515625 C-144.31456893 -44.43121837 -55.00950683 -45.57228914 0 0 Z M-146.09375 48.8359375 C-156.81679113 61.95965948 -160.79089802 74.63921375 -162.1875 91.3984375 C-119.2875 91.3984375 -76.3875 91.3984375 -32.1875 91.3984375 C-34.25789857 72.76485034 -40.75197294 54.0860731 -55.1875 41.3984375 C-81.32542821 22.80160868 -123.76316683 24.88719613 -146.09375 48.8359375 Z " fill="#213551" transform="translate(2441.1875,1749.6015625)"/>
<path d="M0 0 C13.344375 -0.020625 26.68875 -0.04125 40.4375 -0.0625 C46.76699829 -0.07615601 46.76699829 -0.07615601 53.22436523 -0.09008789 C58.3614502 -0.09460449 58.3614502 -0.09460449 60.76332092 -0.09544373 C62.44744633 -0.09698329 64.1315706 -0.10050847 65.81568909 -0.10557556 C68.36078824 -0.11285292 70.9058198 -0.11390742 73.45092773 -0.11352539 C74.20616698 -0.1171235 74.96140623 -0.12072161 75.73953152 -0.12442875 C80.88597366 -0.11402634 80.88597366 -0.11402634 82 1 C82.09516211 3.7388842 82.12554594 6.45247941 82.11352539 9.19165039 C82.11367142 10.05011063 82.11381744 10.90857086 82.1139679 11.79304504 C82.11326847 14.64460738 82.1054747 17.49610525 82.09765625 20.34765625 C82.09579218 22.31920842 82.09436822 24.29076105 82.09336853 26.26231384 C82.08954251 31.46226267 82.07971152 36.66218375 82.06866455 41.86212158 C82.05665806 48.09539466 82.05204859 54.32867699 82.04621124 60.56195831 C82.03649981 70.04132486 82.01734384 79.52063049 82 89 C101.47 89 120.94 89 141 89 C141 107.48 141 125.96 141 145 C121.53 145 102.06 145 82 145 C82.08550418 165.31488845 82.17912698 185.62968666 82.28752708 205.94446468 C82.33760204 215.37742944 82.38404549 224.81038573 82.421875 234.2434082 C82.4548649 242.46732881 82.49473463 250.69118271 82.54279006 258.91502959 C82.56798557 263.26757318 82.58978721 267.62007291 82.60334396 271.9726696 C82.61622757 276.07419264 82.63834918 280.17556473 82.66738319 284.27700424 C82.67640993 285.77772318 82.68213767 287.27846639 82.68421364 288.77921104 C82.50174724 303.8183093 82.50174724 303.8183093 89 317 C96.15240526 323.67557825 106.88459072 323.16534246 116.0625 323.125 C116.91521484 323.12886719 117.76792969 323.13273437 118.64648438 323.13671875 C126.17371368 323.12557555 133.43786372 322.54015259 141 322 C141 343.12 141 364.24 141 386 C127.04355206 388.79128959 113.58210575 389.18660361 99.41552734 389.18530273 C96.76773896 389.18748538 94.12037129 389.20570765 91.47265625 389.22460938 C76.97974952 389.27353889 62.29544152 388.72163956 48.25 384.8125 C47.07642944 384.49104004 47.07642944 384.49104004 45.87915039 384.16308594 C30.17448621 379.62792916 16.81797091 371.05011733 8 357 C0.71736936 342.89114337 -0.44143649 328.88338471 -0.34057617 313.3581543 C-0.33972826 311.51389581 -0.34020824 309.66963632 -0.34190369 307.82537842 C-0.34275866 302.85720792 -0.32521425 297.88925809 -0.30418181 292.92113853 C-0.28533128 287.7148374 -0.283658 282.50853031 -0.28010559 277.30220032 C-0.27080961 267.46048756 -0.24622918 257.61887568 -0.21605712 247.7772072 C-0.18243664 236.56552506 -0.16600792 225.35383792 -0.15097082 214.14211786 C-0.11967727 191.09467656 -0.06469601 168.04737341 0 145 C-16.17 145 -32.34 145 -49 145 C-49 126.52 -49 108.04 -49 89 C-32.83 89 -16.66 89 0 89 C0 59.63 0 30.26 0 0 Z " fill="#213551" transform="translate(1215,1636)"/>
<path d="M0 0 C1.11433914 0.00303635 1.11433914 0.00303635 2.25119019 0.00613403 C3.41942825 0.00350555 3.41942825 0.00350555 4.61126709 0.00082397 C7.19829505 -0.00359493 9.78525522 -0.00065643 12.37228394 0.00271606 C14.16207899 0.00204304 15.95187396 0.00107302 17.7416687 -0.00018311 C21.49778105 -0.00166013 25.25386966 0.00049462 29.00997925 0.00515747 C33.83578887 0.01085476 38.66154288 0.00757578 43.48735046 0.00158501 C47.18466616 -0.00202048 50.88196858 -0.00088208 54.57928467 0.0017128 C56.35917162 0.0023821 58.13905975 0.00155353 59.91894531 -0.00076675 C62.40212216 -0.00329309 64.88520768 0.00054702 67.36837769 0.00613403 C68.11127045 0.0041098 68.85416321 0.00208557 69.61956787 0 C74.69552132 0.02126595 74.69552132 0.02126595 75.80978394 1.13552856 C75.90494605 3.87441276 75.93532988 6.58800798 75.92330933 9.32717896 C75.92345535 10.18563919 75.92360138 11.04409943 75.92375183 11.92857361 C75.9230524 14.78013595 75.91525864 17.63163382 75.90744019 20.48318481 C75.90557611 22.45473698 75.90415216 24.42628961 75.90315247 26.39784241 C75.89932645 31.59779123 75.88949546 36.79771232 75.87844849 41.99765015 C75.86644199 48.23092322 75.86183252 54.46420556 75.85599518 60.69748688 C75.84628374 70.17685343 75.82712777 79.65615905 75.80978394 89.13552856 C95.27978394 89.13552856 114.74978394 89.13552856 134.80978394 89.13552856 C134.80978394 107.61552856 134.80978394 126.09552856 134.80978394 145.13552856 C115.33978394 145.13552856 95.86978394 145.13552856 75.80978394 145.13552856 C75.89533784 165.02472512 75.98898739 184.91383021 76.09731102 204.80291462 C76.14735391 214.03852508 76.19379755 223.27412704 76.23165894 232.50979614 C76.26468238 240.56307161 76.30457022 248.61627941 76.35257399 256.66948003 C76.37773642 260.9304254 76.39954753 265.19132648 76.4131279 269.45232582 C76.42604193 273.47013695 76.44819509 277.48779536 76.47716713 281.50552177 C76.48617043 282.97314925 76.491916 284.44080128 76.49399757 285.9084549 C76.29314751 302.42806083 76.29314751 302.42806083 82.80978394 317.13552856 C90.9760326 323.17855257 100.77428967 323.45601498 110.62228394 323.32302856 C111.96516479 323.32206177 111.96516479 323.32206177 113.33517456 323.32107544 C120.56502597 323.27476322 127.55930042 322.69325807 134.80978394 322.13552856 C134.80978394 343.25552856 134.80978394 364.37552856 134.80978394 386.13552856 C120.853336 388.92681815 107.39188968 389.32213218 93.22531128 389.3208313 C90.5775229 389.32301394 87.93015523 389.34123621 85.28244019 389.36013794 C70.79051742 389.40906414 56.1038962 388.85912893 42.05978394 384.94802856 C41.27595337 384.73227173 40.4921228 384.51651489 39.68453979 384.29421997 C24.41790351 379.87005556 10.47537849 371.535801 2.04806519 357.63943481 C-5.32423019 342.73204889 -6.48833222 328.20339121 -6.41726685 311.90432739 C-6.41670182 310.08006802 -6.41702108 308.25580819 -6.41815186 306.43154907 C-6.4187228 301.5087633 -6.40701058 296.58607613 -6.39300394 291.66331315 C-6.38045325 286.50770974 -6.37932267 281.35210376 -6.37695312 276.19648743 C-6.37075107 266.4468163 -6.35435756 256.69719033 -6.33425415 246.94753903 C-6.31185539 235.84230205 -6.30089173 224.73706285 -6.29086328 213.63180888 C-6.26999016 190.79969046 -6.23483906 167.96761205 -6.19021606 145.13552856 C-6.78934311 145.13774918 -7.38847015 145.13996979 -8.00575256 145.14225769 C-14.21819464 145.16431021 -20.43062568 145.17943502 -26.64309692 145.19046021 C-28.96439058 145.1955019 -31.28568104 145.20233508 -33.60696411 145.21096802 C-36.93550401 145.22304081 -40.26400209 145.22875835 -43.59255981 145.23318481 C-45.15973 145.24092674 -45.15973 145.24092674 -46.75856018 145.24882507 C-47.71948074 145.2489006 -48.68040131 145.24897614 -49.67044067 145.24905396 C-50.52093491 145.25127457 -51.37142914 145.25349518 -52.24769592 145.25578308 C-54.19021606 145.13552856 -54.19021606 145.13552856 -55.19021606 144.13552856 C-55.28380796 142.41687448 -55.30766218 140.69437113 -55.30374146 138.97317505 C-55.30366592 137.87210922 -55.30359039 136.7710434 -55.30351257 135.63661194 C-55.29835129 134.43871536 -55.29319 133.24081879 -55.28787231 132.00662231 C-55.28645737 130.78725479 -55.28504242 129.56788727 -55.28358459 128.31156921 C-55.27796573 124.39869787 -55.26541003 120.48588275 -55.25271606 116.57302856 C-55.24770349 113.9278471 -55.24314017 111.28266474 -55.23904419 108.63748169 C-55.22883902 102.1367913 -55.20926727 95.63622323 -55.19021606 89.13552856 C-39.02021606 89.13552856 -22.85021606 89.13552856 -6.19021606 89.13552856 C-6.20181763 82.79463013 -6.21341919 76.45373169 -6.22537231 69.92068481 C-6.23047901 65.91482442 -6.23529278 61.90896802 -6.23904419 57.90310669 C-6.24503286 51.53827079 -6.25213381 45.1734492 -6.26565552 38.80862427 C-6.27648361 33.67988871 -6.28249273 28.55116851 -6.28509331 23.42242241 C-6.2869477 21.46111242 -6.29056857 19.49980332 -6.29594612 17.53849983 C-6.30315553 14.80137409 -6.30420705 12.06431259 -6.30374146 9.32717896 C-6.30733673 8.50790924 -6.31093201 7.68863953 -6.31463623 6.84454346 C-6.30200156 0.02640253 -6.30200156 0.02640253 0 0 Z " fill="#213551" transform="translate(2538.190216064453,1635.8644714355469)"/>
<path d="M0 0 C0 25.08 0 50.16 0 76 C-6.93 75.505 -6.93 75.505 -14 75 C-39.48850573 73.97667658 -62.89546623 75.01085678 -83.40625 91.9921875 C-100.10684532 107.60610024 -106.25724238 130.8626955 -108 153 C-108.16324779 157.89913007 -108.18489727 162.79805631 -108.20532227 167.69946289 C-108.21491782 169.16875473 -108.22492885 170.6380439 -108.23532104 172.10733032 C-108.26219459 176.07152982 -108.28329837 180.035741 -108.30332303 183.99998021 C-108.32529175 188.15198055 -108.35262684 192.30394558 -108.37937927 196.45591736 C-108.42915974 204.3073182 -108.47415249 212.15873879 -108.51740164 220.01017803 C-108.5761657 230.62756992 -108.64237328 241.24491527 -108.70815182 251.86226559 C-108.81149721 268.5748123 -108.90493861 285.28739936 -109 302 C-136.06 302 -163.12 302 -191 302 C-191 203.99 -191 105.98 -191 5 C-165.26 5 -139.52 5 -113 5 C-112.67 22.16 -112.34 39.32 -112 57 C-109.03 51.72 -106.06 46.44 -103 41 C-101.10148064 38.35911089 -99.40118662 36.04969375 -97.25 33.6875 C-96.75032715 33.12466309 -96.2506543 32.56182617 -95.73583984 31.98193359 C-71.92179034 5.80053527 -34.8758235 -9.51158823 0 0 Z " fill="#213551" transform="translate(1882,1720)"/>
</svg>
