<?xml version="1.0" encoding="UTF-8"?>
<svg version="1.1" xmlns="http://www.w3.org/2000/svg" width="2560" height="970">
<path d="M0 0 C88.77 0 177.54 0 269 0 C286.31329122 80.97898484 286.31329122 80.97898484 291.34765625 104.52734375 C291.5233191 105.34900992 291.69898196 106.17067609 291.87996793 107.01724124 C298.46340206 137.8114076 305.04610127 168.60573098 311.62801743 199.40022182 C313.34397219 207.42856379 315.06000418 215.45688924 316.77609634 223.48520184 C318.2166543 230.22450144 319.65716739 236.96381063 321.09765625 243.703125 C321.2397477 244.36789675 321.38183914 245.0326685 321.52823639 245.71758485 C325.30107263 263.36880612 329.072647 281.02029644 332.84270352 298.67211163 C332.98851654 299.35482376 333.13432956 300.0375359 333.28456116 300.74093628 C333.4304741 301.42411702 333.57638704 302.10729776 333.72672158 302.81118095 C334.76966947 307.69430736 335.81276103 312.57740307 336.85594177 317.46047974 C337.00398614 318.1534681 337.15203051 318.84645646 337.30456108 319.56044447 C338.04877581 323.04404923 338.79300963 326.5276499 339.53725719 330.01124763 C340.91728421 336.47085151 342.29707447 342.93050567 343.67611694 349.39031982 C356.38986716 408.93999157 369.20779618 468.46705147 382 528 C382.33 353.76 382.66 179.52 383 0 C452.63 0 522.26 0 594 0 C594 308.22 594 616.44 594 934 C508.86 934 423.72 934 336 934 C324.46636263 884.40535929 324.46636263 884.40535929 320.57421875 867.421875 C320.1082314 865.3906816 319.64220076 863.35949813 319.1761322 861.32832336 C317.93737955 855.9287257 316.69954019 850.5289191 315.46198273 845.12904739 C314.66949073 841.67142603 313.87673885 838.21386434 313.08392334 834.75631714 C303.1658673 791.50104698 293.28367629 748.2376039 283.40909672 704.97239363 C282.0293023 698.92689439 280.64944064 692.8814105 279.26953125 686.8359375 C279.11795028 686.1718449 278.9663693 685.5077523 278.81019497 684.82353568 C272.2676269 656.16020622 265.70968445 627.50040255 259.14892197 598.8412323 C248.6015546 552.76729073 238.07858893 506.68784194 227.57348633 460.60424805 C227.31333174 459.46303497 227.05317715 458.3218219 226.78513908 457.14602661 C225.58367263 451.87551871 224.3823157 446.60498591 223.18127441 441.3343811 C219.12881812 423.55442194 215.06342191 405.77747084 211 388 C210.67 568.18 210.34 748.36 210 934 C140.7 934 71.4 934 0 934 C0 625.78 0 317.56 0 0 Z " fill="#213551" transform="translate(1246,19)"/>
<path d="M0 0 C1.25803877 -0.00424107 1.25803877 -0.00424107 2.54149246 -0.00856781 C6.99511257 -0.02344967 11.44870131 -0.03274393 15.90234375 -0.03710938 C19.50303482 -0.04145774 23.10348136 -0.05522312 26.70410156 -0.078125 C106.46613253 -0.57494508 183.09070989 13.23676024 241.9140625 70.890625 C257.19765967 86.18398649 268.99818913 104.60936126 277.9765625 124.203125 C278.3075293 124.91098145 278.63849609 125.61883789 278.97949219 126.34814453 C287.05392264 143.77577887 292.21635091 162.08331621 295.3515625 181.015625 C295.5072168 181.9432666 295.66287109 182.8709082 295.82324219 183.82666016 C298.41444045 201.03114932 298.12336956 218.62802984 298.10354614 235.98085022 C298.1047011 238.21196262 298.10629113 240.44307483 298.10827339 242.67418665 C298.11241523 248.74917304 298.11039949 254.82414356 298.10728717 260.89912999 C298.10524645 266.79557557 298.10792879 272.6920179 298.11043453 278.58846302 C298.11567839 291.37897333 298.11525267 304.16947862 298.11235562 316.9599894 C298.10983306 328.15303401 298.10918662 339.34607679 298.11037827 350.53912163 C298.11049284 351.65586428 298.11049284 351.65586428 298.11060974 352.79516738 C298.11092111 355.81783906 298.11123951 358.84051074 298.1115695 361.86318242 C298.11462355 390.17630169 298.11186284 418.48941778 298.1064726 446.80253656 C298.10172706 471.92019861 298.10215261 497.03785558 298.10693359 522.15551758 C298.11229579 550.42069735 298.11440739 578.68587431 298.11132133 606.95105451 C298.11100065 609.96768439 298.1106878 612.98431426 298.11037827 616.00094414 C298.11029919 616.74363435 298.11022011 617.48632457 298.11013864 618.25152055 C298.10900433 629.43426808 298.1103255 640.61701357 298.11285782 651.79976082 C298.11572467 664.52269272 298.11498609 677.24561885 298.10957707 689.96855003 C298.10695749 696.45392465 298.10590536 702.93928901 298.10922623 709.42466354 C298.11222518 715.37150937 298.11053693 721.3183355 298.10524867 727.26517957 C298.10413977 729.40622441 298.10468138 731.54727095 298.10712446 733.68831468 C298.1250803 750.74441403 298.09670346 767.84476375 295.2265625 784.703125 C295.0510083 785.7564502 294.8754541 786.80977539 294.69458008 787.89501953 C288.3230495 824.69653402 273.12198884 860.33060298 247.9765625 888.203125 C246.80889998 889.57727942 245.64210689 890.95217355 244.4765625 892.328125 C198.22083769 944.48883595 129.42361116 962.06929263 62.3125 966.609375 C-18.60720092 971.24972079 -110.96371044 967.79734794 -177.0234375 915.203125 C-177.56339355 914.77741211 -178.10334961 914.35169922 -178.65966797 913.91308594 C-192.6955445 902.75079651 -205.81993199 889.99141114 -216.0234375 875.203125 C-216.47025879 874.55762695 -216.91708008 873.91212891 -217.37744141 873.24707031 C-224.17669412 863.3167371 -230.01189718 853.13995432 -235.0234375 842.203125 C-235.3544043 841.49526855 -235.68537109 840.78741211 -236.02636719 840.05810547 C-250.97231579 807.79917046 -255.18441124 773.81978152 -255.15715027 738.66648865 C-255.15902041 736.3761334 -255.16132192 734.08577847 -255.16401559 731.79542404 C-255.17011489 725.52412919 -255.1700022 719.25284771 -255.16882122 712.98155057 C-255.16863776 706.90532378 -255.17313375 700.82910193 -255.1774341 694.75287696 C-255.18708642 680.79600124 -255.18991756 666.8391292 -255.19049116 652.88225054 C-255.19095139 642.09993155 -255.19301331 631.31761401 -255.19619179 620.53529549 C-255.19708939 617.42721639 -255.1979792 614.3191373 -255.19886667 611.2110582 C-255.19908771 610.4382919 -255.19930876 609.66552559 -255.19953651 608.86934213 C-255.20568761 587.14338367 -255.20963739 565.4174257 -255.20919323 543.69146633 C-255.20917765 542.8729586 -255.20916207 542.05445088 -255.20914602 541.21113988 C-255.20906292 537.06297848 -255.20896388 532.91481708 -255.20886131 528.76665568 C-255.2088314 527.53098554 -255.2088314 527.53098554 -255.20880087 526.27035237 C-255.20876044 524.60446896 -255.20871864 522.93858556 -255.20867548 521.27270215 C-255.20806296 495.3640061 -255.21556636 469.45532316 -255.22924805 443.54663086 C-255.24462782 414.41058701 -255.25321312 385.27455177 -255.25228482 356.13850361 C-255.2522102 353.02822403 -255.25216149 349.91794445 -255.25213051 346.80766487 C-255.25211885 346.04188617 -255.2521072 345.27610747 -255.25209519 344.48712335 C-255.25206449 332.1947396 -255.25843453 319.90236728 -255.26706277 307.60998692 C-255.27556348 295.24301187 -255.27651035 282.87605343 -255.26995345 270.50907706 C-255.26659614 263.81703764 -255.26660685 257.1250444 -255.2753067 250.43300629 C-255.28320286 244.29583412 -255.28170859 238.15873553 -255.27302257 232.02156509 C-255.27149442 229.81232544 -255.27327762 227.60308022 -255.27888265 225.39384716 C-255.32097255 207.61323996 -254.42007863 190.09008376 -250.7734375 172.640625 C-250.55800293 171.59326172 -250.34256836 170.54589844 -250.12060547 169.46679688 C-239.80442826 121.0640898 -212.92341852 77.6402205 -173.0234375 48.203125 C-172.19714844 47.58179688 -171.37085938 46.96046875 -170.51953125 46.3203125 C-151.70090377 32.62824851 -130.19273562 22.15039008 -108.0234375 15.203125 C-106.87367432 14.8326001 -106.87367432 14.8326001 -105.70068359 14.45458984 C-71.78104668 3.62800672 -35.4817782 0.08269688 0 0 Z M-12.0234375 217.203125 C-12.67957031 217.67621094 -13.33570313 218.14929688 -14.01171875 218.63671875 C-24.4030102 226.77003556 -31.20671765 240.28449285 -33.0234375 253.203125 C-33.32248268 259.34536467 -33.29801882 265.4817978 -33.28413391 271.63008118 C-33.28715617 273.52258126 -33.29104603 275.41508013 -33.29572648 277.30757684 C-33.30600559 282.4974188 -33.30382486 287.68719168 -33.29954588 292.87703931 C-33.2970785 298.47839755 -33.30609299 304.07973916 -33.31358337 309.68109131 C-33.32633218 320.65081616 -33.32812382 331.62051654 -33.32578311 342.59024755 C-33.32399995 351.50726749 -33.32574956 360.42428 -33.33000755 369.34129906 C-33.33060274 370.61050578 -33.33119793 371.87971251 -33.33181116 373.18738004 C-33.33302291 375.76580046 -33.33423705 378.34422088 -33.33545353 380.9226413 C-33.34324053 398.2347843 -33.34716005 415.54692292 -33.34313679 432.85906696 C-33.34298041 433.53580306 -33.34282404 434.21253915 -33.34266292 434.9097824 C-33.34185716 438.33958554 -33.34101139 441.76938866 -33.34014962 445.19919179 C-33.33997853 445.88033567 -33.33980744 446.56147955 -33.33963117 447.26326415 C-33.33928451 448.64070202 -33.33893598 450.01813989 -33.33858558 451.39557776 C-33.33322906 472.82582788 -33.34115775 494.25603685 -33.35961914 515.6862793 C-33.38034696 539.77551607 -33.39102925 563.864721 -33.38704365 587.95396966 C-33.38513125 600.70416888 -33.38762302 613.45433061 -33.40175819 626.20452309 C-33.41367028 637.05925577 -33.41507879 647.9139279 -33.40296803 658.76866142 C-33.39707811 664.30530349 -33.39598316 669.84183477 -33.40797043 675.37846947 C-33.41882472 680.45081846 -33.41573111 685.5229641 -33.40170874 690.59530356 C-33.39906058 692.426326 -33.40143208 694.25736436 -33.40944461 696.08837119 C-33.48445272 714.51386385 -30.54910011 730.20431176 -17.30859375 744.01953125 C-6.55008788 754.2998813 6.49153121 760.07644273 21.4765625 760.578125 C37.06451918 760.03514828 50.30887099 754.01155943 61.27734375 743.12890625 C71.06284639 732.52204449 76.14324287 719.81030556 76.10799026 705.43741512 C76.11106922 704.26917618 76.11106922 704.26917618 76.11421037 703.07733646 C76.11988142 700.45794948 76.11842298 697.83861507 76.11700439 695.21922302 C76.11958798 693.32605127 76.12260112 691.43288007 76.1260078 689.53970963 C76.13408199 684.32944706 76.1358676 679.11919827 76.13660526 673.90893018 C76.13845511 668.29250873 76.14600214 662.67609444 76.15274048 657.05967712 C76.1663277 644.77443628 76.17234923 632.4891987 76.17675114 620.2039516 C76.17951312 612.533393 76.18375041 604.86283566 76.18825531 597.19227791 C76.20044889 575.95637163 76.21078314 554.72046668 76.2141304 533.48455715 C76.21435203 532.11141894 76.21457382 530.73828074 76.21479575 529.36514253 C76.21501639 527.98870812 76.21523688 526.61227371 76.2154572 525.23583931 C76.21589975 522.47452764 76.21634687 519.71321597 76.21679688 516.9519043 C76.21690627 516.2672602 76.21701566 515.5826161 76.21712836 514.87722521 C76.22075801 492.68367041 76.23667454 470.49014829 76.25998724 448.296606 C76.28459654 424.82573217 76.29829705 401.35488365 76.29949832 377.88399464 C76.30041503 365.09237286 76.30616621 352.30079387 76.32431793 339.50918388 C76.33972126 328.61593072 76.34483801 317.72273357 76.33657983 306.82947158 C76.33267407 301.27260181 76.33359942 295.71584483 76.34763718 290.15898895 C76.36038034 285.06798117 76.35917479 279.97717088 76.34704646 274.88616336 C76.34509019 273.04828994 76.34816464 271.2104025 76.35689083 269.37254875 C76.43556807 251.67598552 73.81082507 235.55126835 61.109375 222.109375 C47.55597134 209.99571019 33.21779079 205.2525495 15.17919922 206.02832031 C4.80408896 206.85170525 -3.78784369 211.09024542 -12.0234375 217.203125 Z " fill="#213551" transform="translate(888.0234375,2.796875)"/>
<path d="M0 0 C1.14062897 -0.00100708 2.28125793 -0.00201416 3.45645142 -0.00305176 C23.16133441 0.00865163 42.56746809 0.83940828 62.125 3.25 C63.23617187 3.38390137 64.34734375 3.51780273 65.4921875 3.65576172 C115.12239039 9.91262562 164.65216727 27.2886777 202.125 61.25 C203.16946412 62.164029 204.21505337 63.07677377 205.26171875 63.98828125 C211.94298986 69.8720062 217.68386156 76.193824 223.125 83.25 C223.93710938 84.25804688 224.74921875 85.26609375 225.5859375 86.3046875 C235.6541553 98.88801758 243.25621605 112.71277136 250.125 127.25 C250.63675781 128.31992188 251.14851563 129.38984375 251.67578125 130.4921875 C267.56714223 165.53028259 274.36995599 206.13671388 274.23852539 244.46606445 C274.23870619 246.20800347 274.23870619 246.20800347 274.23889065 247.98513317 C274.23815221 251.69453627 274.23057341 255.4038873 274.22265625 259.11328125 C274.22118351 261.42329891 274.22016485 263.7333169 274.21960449 266.04333496 C274.21439008 274.54972844 274.20042885 283.05611475 274.1875 291.5625 C274.166875 310.599375 274.14625 329.63625 274.125 349.25 C202.185 349.25 130.245 349.25 56.125 349.25 C55.795 318.23 55.465 287.21 55.125 255.25 C51.37028986 237.72801934 47.65270507 225.94496139 33.125 215.25 C17.31254226 205.95988023 -3.89979291 204.44126844 -21.625 208.375 C-32.49755175 211.81850612 -40.88059962 217.16932911 -48.875 225.25 C-49.42671875 225.76820313 -49.9784375 226.28640625 -50.546875 226.8203125 C-62.39326566 238.98515452 -67.19538785 258.27128702 -67.02734375 274.68359375 C-66.1347547 295.57933233 -58.80936769 314.50331736 -43.875 329.25 C-43.06160156 330.06855469 -42.24820313 330.88710938 -41.41015625 331.73046875 C-32.53326336 340.55265044 -23.45781385 347.64421698 -12.875 354.25 C-12.24948242 354.64654785 -11.62396484 355.0430957 -10.97949219 355.45166016 C8.16555601 367.51234936 29.14775751 376.40486788 49.72750854 385.69958496 C63.64182813 391.98481592 77.41448872 398.52992528 91.125 405.25 C92.23222412 405.79116455 92.23222412 405.79116455 93.36181641 406.34326172 C97.17097861 408.20960959 100.96057028 410.1113172 104.73925781 412.03857422 C106.54312558 412.95453736 108.35036456 413.86386544 110.15917969 414.77001953 C177.1572296 448.36538911 244.6031567 494.75665274 270.42578125 568.59375 C281.47873537 602.1034191 284.57875028 637.13524735 285.125 672.25 C285.14143555 673.28380798 285.14143555 673.28380798 285.15820312 674.33850098 C286.36323939 753.67153164 274.62724504 835.27816669 218.125 895.25 C178.45455658 935.56605365 124.08425972 955.39899313 69.0625 963.5 C68.04978027 963.65106201 67.03706055 963.80212402 65.99365234 963.95776367 C44.50605426 966.90694399 22.91325421 967.63096481 1.25 967.5625 C-0.60786636 967.55926727 -0.60786636 967.55926727 -2.50326538 967.55596924 C-80.67583932 967.33887374 -162.2845389 953.00958963 -220.875 897.25 C-221.58011719 896.59773437 -222.28523438 895.94546875 -223.01171875 895.2734375 C-275.17752673 845.54132847 -278.71078376 771.34070347 -280.875 704.25 C-280.875 668.94 -280.875 633.63 -280.875 597.25 C-209.595 597.25 -138.315 597.25 -64.875 597.25 C-64.545 631.57 -64.215 665.89 -63.875 701.25 C-60.68057353 717.22213233 -57.2059746 728.77947445 -46.875 741.25 C-46.35550781 741.89453125 -45.83601563 742.5390625 -45.30078125 743.203125 C-35.18926434 754.51172325 -18.64660311 760.29699335 -3.875 761.25 C12.23279619 761.96538923 27.3198703 759.29957033 39.875 748.53515625 C57.96646952 730.16100752 58.58755998 701.73351372 58.42221069 677.59004211 C58.10076643 651.95725443 47.30412951 631.83207684 29.31152344 613.94824219 C7.65576046 593.17940465 -20.10855255 581.14985655 -47.47735596 569.86846924 C-164.74463469 521.4725752 -164.74463469 521.4725752 -210.875 480.25 C-211.895539 479.35252978 -212.91636467 478.45538541 -213.9375 477.55859375 C-219.34331984 472.74770789 -224.26111658 467.81675064 -228.875 462.25 C-229.63296875 461.37988281 -230.3909375 460.50976562 -231.171875 459.61328125 C-255.98274654 430.75715892 -270.32557703 395.23622814 -277.875 358.25 C-278.06932617 357.29899414 -278.26365234 356.34798828 -278.46386719 355.36816406 C-284.04133815 327.16932743 -285.40200767 298.41687967 -285.26611328 269.74316406 C-285.24892613 266.08669972 -285.25927641 262.43088654 -285.27644253 258.77444363 C-285.55084239 189.61117225 -269.38309785 121.0754173 -219.625 70.5625 C-173.24938596 24.55947322 -105.67430214 5.47853054 -41.875 1.25 C-40.73579102 1.1660498 -39.59658203 1.08209961 -38.42285156 0.99560547 C-25.6232677 0.10416116 -12.82661622 0.00790353 0 0 Z " fill="#213551" transform="translate(2175.875,1.75)"/>
<path d="M0 0 C73.92 0 147.84 0 224 0 C228.62493058 28.90581614 228.62493058 28.90581614 230.57252312 42.89613152 C230.71678789 43.93022707 230.86105266 44.96432262 231.00968909 46.0297544 C231.1592456 47.10210342 231.3088021 48.17445243 231.46289062 49.27929688 C231.78983268 51.6101778 232.11698902 53.94102867 232.44433784 56.27185249 C233.3312414 62.59126534 234.215159 68.91109256 235.09853411 75.23099947 C235.9547457 81.35481068 236.81376051 87.47822902 237.67246355 93.60169126 C239.42222045 106.07987412 241.16974639 118.55836842 242.91595459 131.03704834 C244.64320398 143.38018568 246.371496 155.72317632 248.10113525 168.065979 C248.20915336 168.83680592 248.31717147 169.60763283 248.42846285 170.40181814 C248.97669902 174.3140402 249.52495385 178.22625965 250.0732162 182.13847804 C253.90782972 209.50122924 257.74026993 236.8642844 261.57128906 264.22753906 C265.1191334 289.56817172 268.66775999 314.90869455 272.21777344 340.24902344 C272.3764454 341.38164341 272.3764454 341.38164341 272.53832287 342.5371446 C273.8047013 351.57669819 275.07111771 360.61624645 276.33755381 369.65579195 C278.1815017 382.81749237 280.02540351 395.97919923 281.86925644 409.14091295 C282.06941345 410.56966469 282.26957097 411.99841636 282.46972901 413.42716795 C285.25836635 433.33280442 288.04635644 453.23853142 290.83366084 473.14435458 C291.38209768 477.06102496 291.93055853 480.97769197 292.4790287 484.89435768 C292.65715516 486.16637358 292.83528163 487.43838948 293.01880586 488.74895132 C293.37328565 491.28031662 293.72776647 493.81168177 294.08224833 496.34304678 C294.91114353 502.26230699 295.73997207 508.18157651 296.56861496 514.10087204 C301.69720479 550.73605657 306.84542758 587.36846379 312 624 C318.08817691 580.23146869 324.17566714 536.4628419 330.26270331 492.69415194 C331.72622141 482.17076078 333.18976449 471.6473731 334.65338898 461.12399673 C338.41908319 434.04886839 342.18449027 406.97370014 345.94921875 379.8984375 C346.08489215 378.92269967 346.22056554 377.94696184 346.36035025 376.9416562 C354.15570461 320.87851576 361.94273918 264.8142276 369.71776121 208.74826374 C370.53011892 202.89034566 371.3425472 197.03243737 372.15502357 191.17453575 C373.50501903 181.44115371 374.8549598 171.70776409 376.20483398 161.97436523 C376.31365432 161.18970768 376.42247466 160.40505012 376.53459258 159.59661506 C379.10850758 141.03705885 381.68151048 122.47737669 384.25264999 103.91743577 C385.95376913 91.63784407 387.65585487 79.35838669 389.35893804 67.07906723 C390.44969968 59.21427054 391.53915487 51.34929399 392.62761134 43.48417789 C393.28269084 38.75289106 393.93900613 34.02177631 394.59569919 29.29071319 C394.8963468 27.12289199 395.19647797 24.95499909 395.49605286 22.78702939 C395.9011308 19.85605125 396.30803981 16.92533308 396.71542358 13.99467468 C396.89057541 12.72239248 396.89057541 12.72239248 397.06926566 11.4244076 C397.17813092 10.64401476 397.28699618 9.86362191 397.39916039 9.0595808 C397.49177599 8.39108866 397.5843916 7.72259652 397.67981374 7.03384703 C398.05080005 4.67731431 398.53215398 2.33923009 399 0 C472.92 0 546.84 0 623 0 C622.32394233 6.76057673 621.50847884 13.17826261 620.16755676 19.79472351 C619.8894177 21.196894 619.8894177 21.196894 619.60565966 22.62739116 C618.98747814 25.7377843 618.3625178 28.84677469 617.73754883 31.95581055 C617.28993223 34.20071847 616.84273919 36.44571087 616.39593506 38.69078064 C615.17773054 44.80573868 613.95363931 50.91950536 612.72857499 57.03309226 C611.55662411 62.88663073 610.38924887 68.74108093 609.22183546 74.5955256 C606.88424026 86.31759481 604.54248081 98.03882803 602.19799805 109.75952148 C599.03076593 125.59344104 595.86789912 141.42822962 592.70673496 157.26336163 C592.30244738 159.28854703 591.89815034 161.31373054 591.49385023 163.33891344 C591.36035562 164.00760306 591.226861 164.67629268 591.08932109 165.36524563 C590.8196371 166.71612245 590.54995309 168.06699926 590.28026907 169.41787608 C589.60656782 172.7925283 588.93287799 176.16718281 588.25921035 179.54184175 C586.77118738 186.99579166 585.28275142 194.44965893 583.79386716 201.90343685 C574.27925231 249.53653851 564.82556808 297.18159862 555.39146173 344.83071101 C551.02445562 366.88670121 546.64409531 388.94002363 542.2578125 410.9921875 C541.916629 412.70759948 541.57544628 414.42301162 541.23426437 416.13842392 C539.55137165 424.59954814 537.86816707 433.0606103 536.18478394 441.52163696 C532.54260973 459.82799749 528.90208586 478.13468629 525.26171875 496.44140625 C524.99065319 497.80451844 524.99065319 497.80451844 524.71411157 499.19516826 C517.87762894 533.57407859 511.05419424 567.95556002 504.23852921 602.33860397 C497.81137006 634.76140748 491.37554117 667.18247097 484.9296875 699.6015625 C484.6663601 700.92597532 484.6663601 700.92597532 484.39771295 702.27714396 C480.99065883 719.41299328 477.58324465 736.54877099 474.17501831 753.68438721 C472.08123039 764.21140837 469.9876891 774.73847854 467.89453125 785.265625 C467.7248086 786.1192064 467.55508594 786.97278781 467.38022017 787.85223532 C462.79306045 810.92303768 458.21510146 833.99563513 453.65237403 857.07128215 C453.01400669 860.29958603 452.37543107 863.52784872 451.7368927 866.75611877 C449.65925894 877.26121626 447.58257296 887.76649632 445.51088428 898.27276802 C444.7046851 902.35953461 443.89699654 906.4460058 443.0889225 910.53240204 C442.72215441 912.38906666 442.35608498 914.24586945 441.99077415 916.10282135 C441.50145916 918.58997458 441.00981508 921.07665611 440.51757812 923.56323242 C440.37656835 924.28325408 440.23555857 925.00327574 440.09027576 925.74511623 C439.52840046 928.57267813 438.91300838 931.26097485 438 934 C354.84 934 271.68 934 186 934 C183.98570885 925.94283538 182.11083111 917.96012528 180.51196289 909.82446289 C180.27882983 908.65106574 180.04569677 907.47766859 179.80549908 906.26871395 C179.29580633 903.70100631 178.78720342 901.1331117 178.28047943 898.56481934 C177.44518943 894.33127727 176.60561599 890.09859036 175.76568604 885.8659668 C174.52335186 879.60323127 173.28306956 873.34009224 172.0440979 867.07669067 C170.01793515 856.83425174 167.98729197 846.59270355 165.95581055 836.35131836 C165.59965411 834.55575086 165.24349777 832.76018335 164.8873415 830.96461582 C164.34229694 828.21678765 163.7972447 825.468961 163.25217015 822.72113878 C162.12223697 817.02483533 160.99262154 811.32846897 159.86323196 805.63205773 C153.73039891 774.69977493 147.58042048 743.7709232 141.421875 712.84375 C141.19674469 711.71317287 140.97161438 710.58259574 140.73966193 709.4177587 C138.20228252 696.67552613 135.66450794 683.93337229 133.1265564 671.19125366 C128.63277412 648.62962053 124.14036808 626.06771333 119.64801192 603.50579619 C118.94183062 599.95916253 118.23563796 596.41253113 117.52944374 592.86590004 C108.2631329 546.32855836 99.00488778 499.78961457 89.75 453.25 C89.38630808 451.4211235 89.02261611 449.592247 88.6589241 447.76337051 C88.11343127 445.02028199 87.56793848 442.27719347 87.02244598 439.53410488 C85.01500282 429.43939553 83.00751892 419.34469428 81 409.25 C80.8189222 408.33945476 80.63784441 407.42890953 80.4512794 406.49077201 C72.38216516 365.91555922 64.30715155 325.34152109 56.23158979 284.76759112 C53.06319442 268.8486354 49.89519637 252.92960065 46.72753906 237.01049805 C46.52184248 235.97677216 46.31614591 234.94304628 46.1042161 233.87799537 C44.24767318 224.54795398 42.39114611 215.21790943 40.5346756 205.88785362 C35.86428376 182.41593671 31.1928346 158.94423097 26.51901674 135.472996 C23.25222434 119.06757167 19.98671327 102.66189276 16.72253036 86.25594902 C14.77177975 76.45164018 12.81991021 66.64755555 10.86651063 56.84377414 C9.55963309 50.28424966 8.25412087 43.72445443 6.94973922 37.16443318 C6.20387478 33.41353788 5.45738135 29.6627706 4.70922089 25.91233253 C3.90500772 21.88084454 3.10371192 17.84878248 2.30273438 13.81665039 C2.06625057 12.63363972 1.82976677 11.45062904 1.58611679 10.23176956 C1.37477222 9.16533092 1.16342766 8.09889229 0.94567871 7.00013733 C0.66963932 5.61359247 0.66963932 5.61359247 0.38802338 4.1990366 C0 2 0 2 0 0 Z " fill="#213551" transform="translate(0,19)"/>
<path d="M0 0 C11.25160556 11.50732386 17.03378819 24.40003221 17.06689453 40.44189453 C16.82607753 53.59169198 11.25528122 64.97000821 2.75 74.8125 C-9.8891603 85.50104973 -22.73600984 90.03217336 -39.25 88.8125 C-52.3213846 86.86081271 -63.42247633 80.63255614 -72.25 70.8125 C-80.78808637 58.89776931 -84.45106528 45.94874004 -82.625 31.375 C-80.35270586 18.68927844 -74.5878592 7.4607626 -64.453125 -0.7109375 C-43.41852462 -14.8085952 -21.01920042 -14.14753875 0 0 Z M-66.25 11.8125 C-68.63028363 14.99619173 -70.51750714 18.2388761 -72.25 21.8125 C-72.58902344 22.48410156 -72.92804687 23.15570312 -73.27734375 23.84765625 C-76.9633635 32.66352836 -76.66319189 44.73314051 -73.6875 53.75 C-68.68056419 65.26420778 -60.66649903 74.38037094 -48.9375 79.25 C-38.32379755 83.16215809 -26.71251331 83.19944401 -16.25 78.8125 C-4.89314955 73.36121179 3.03493857 65.62158567 7.75 53.8125 C11.15029255 43.59939108 11.28211424 32.2232659 7.00390625 22.265625 C1.17825239 10.86839564 -7.12558668 2.40564431 -19.25 -2.1875 C-37.25878268 -7.3367178 -53.69874353 -1.60073556 -66.25 11.8125 Z " fill="#213551" transform="translate(2541.25,880.1875)"/>
<path d="M0 0 C5.135625 -0.061875 10.27125 -0.12375 15.5625 -0.1875 C17.16939697 -0.21481201 18.77629395 -0.24212402 20.43188477 -0.27026367 C21.71377686 -0.27775635 22.99566895 -0.28524902 24.31640625 -0.29296875 C25.62037354 -0.3086792 26.92434082 -0.32438965 28.26782227 -0.34057617 C34.35257405 0.21468181 38.99018805 2.21907036 43 7 C45.09316718 11.18633435 44.42311395 16.44109613 44 21 C41.69854209 26.04550388 39.10539819 27.97911322 34 30 C31.625 30.6875 31.625 30.6875 30 31 C31.27197862 34.44007259 32.74263149 37.33688047 34.8203125 40.35546875 C35.35527344 41.14244141 35.89023438 41.92941406 36.44140625 42.74023438 C36.99699219 43.54783203 37.55257812 44.35542969 38.125 45.1875 C39.23597017 46.80310994 40.34295861 48.42146756 41.4453125 50.04296875 C41.93531738 50.75477295 42.42532227 51.46657715 42.93017578 52.19995117 C44 54 44 54 44 56 C40.81656942 56.64967971 38.16792041 56.7970569 35 56 C31.9506676 53.12219255 30.07917269 49.613364 28 46 C27.26850303 44.83378293 26.53131108 43.67112253 25.7890625 42.51171875 C20 33.40203288 20 33.40203288 20 31 C16.04 31 12.08 31 8 31 C8 39.25 8 47.5 8 56 C5.36 56 2.72 56 0 56 C0 37.52 0 19.04 0 0 Z M7 6 C7 11.94 7 17.88 7 24 C10.72960366 24.08101311 14.45744359 24.14051069 18.1875 24.1875 C19.77014648 24.22520508 19.77014648 24.22520508 21.38476562 24.26367188 C22.40634766 24.27333984 23.42792969 24.28300781 24.48046875 24.29296875 C25.41785889 24.3086792 26.35524902 24.32438965 27.32104492 24.34057617 C30.53256353 23.93229508 32.39378631 22.88830698 35 21 C36.58643982 17.82712035 36.96799489 14.37885009 36 11 C33.26278257 7.71533908 31.60979512 6.24073505 27.3503418 5.60375977 C24.26041613 5.5079225 21.21379828 5.56387199 18.125 5.6875 C16.52011719 5.72133789 16.52011719 5.72133789 14.8828125 5.75585938 C12.25460308 5.81452476 9.62711786 5.90419748 7 6 Z " fill="#213551" transform="translate(2490,891)"/>
</svg>
