<?xml version="1.0" encoding="utf-8"?><!-- Uploaded to: SVG Repo, www.svgrepo.com, Generator: SVG Repo Mixer Tools -->
<svg width="800px" height="800px" viewBox="0 0 400 400" fill="none" xmlns="http://www.w3.org/2000/svg">
<path d="M145.683 210.479C142.272 193.845 121.458 180.301 104.419 187.257C47.4108 210.528 77.8335 301.205 135.584 291.771C177.587 284.913 209.655 190.991 150.948 215.642" stroke="#000000" stroke-opacity="0.9" stroke-width="16" stroke-linecap="round" stroke-linejoin="round"/>
<path d="M261.12 219.05C194.886 193.534 190.166 306.293 265.818 302.313C287.157 301.194 310.128 279.766 319.674 261.75C345.892 212.277 291.652 188.818 273.512 222.043" stroke="#000000" stroke-opacity="0.9" stroke-width="16" stroke-linecap="round" stroke-linejoin="round"/>
<path d="M154.532 201.753C153.654 185.543 193.446 99.4754 209.212 104.698C209.414 104.764 206.708 116.87 206.605 118.072C205.49 131.37 208.263 143.333 213.548 155.598C225.467 183.237 257.017 195.689 273.437 219.004" stroke="#000000" stroke-opacity="0.9" stroke-width="16" stroke-linecap="round" stroke-linejoin="round"/>
<path d="M212.741 102.368C222.203 89.5647 325.733 101.739 313.281 117.154C288.172 148.235 237.392 136.814 217.132 106.716" stroke="#000000" stroke-opacity="0.9" stroke-width="16" stroke-linecap="round" stroke-linejoin="round"/>
</svg>