<svg xmlns="http://www.w3.org/2000/svg" enable-background="new 0 0 48 48" viewBox="0 0 48 48" id="corkscrew">
  <path fill="#213551" d="M42.036,6.07c-0.153-2.35,0.439-5.775-2.846-6.005c-9.357-0.02-19.5,0.092-28.86,0.189c0,0-1.199,0.018-1.199,0.018
	C8.11,0.217,7.02,0.945,6.609,1.889c-0.483,0.92-0.177,2.869-0.234,3.86c0,0,0.018,1.2,0.018,1.2
	C6.359,8.181,7.663,9.557,8.818,9.184c0.205,0.17,0.815,0.32,1.917,0.369c3.224,0.13,6.47,0.215,9.72,0.28
	c-0.161,1.042-0.27,2.083-0.328,3.125c-0.026,0.466,0.327,0.868,0.794,0.902c0.842,0.06,1.685,0.086,2.528,0.107
	c-0.027,1.496-0.111,2.966-0.199,4.487c-2.032,0.844-3.03,2.759-1.002,4.431c0,0,1.962,1.289,1.962,1.289
	c1.271,0.719,0.94,1.066-0.168,1.696c-0.317,0.204-1.145,0.674-1.451,0.878c-2.05,1.055-2.195,3.721-0.097,4.781l0.991,0.543
	c0.481,0.289,1.461,0.645,1.565,1.229c0.02,0.15,0.004,0.247-0.172,0.419c-0.544,0.403-1.665,0.953-2.365,1.401
	c-1.946,1.184-1.781,3.284,0.387,4.268c1.011,0.726,3.544,1.267,1.377,2.491c-0.403,0.265-1.444,0.974-1.863,1.253
	c-2.042,1.577-0.917,3.476,1.108,4.21c1.323,0.691,1.957,0.068,0.493-0.87c-2.381-1.317-1.439-1.924,0.405-2.906
	c0.397-0.242,0.963-0.53,1.336-0.801c1.337-0.865,1.409-2.785-0.011-3.741c-0.834-0.637-2.066-1.089-2.728-1.82
	c0.649-0.818,2.356-1.268,3.183-2.033c1.48-1.201,0.79-3.512-0.734-4.292c-0.644-0.431-1.977-0.924-2.455-1.469
	c-0.224-0.407,0.204-0.749,0.569-0.978c0.307-0.188,1.119-0.71,1.436-0.903c1.306-0.619,2.793-2.453,1.235-4.097
	c-0.785-0.75-2.151-1.353-2.999-1.926c-1.274-0.869,0.345-1.519,1.098-1.955c0.195-0.128,0.323-0.349,0.32-0.6
	c-0.019-1.613-0.058-3.309-0.192-4.965c4.367,0.133,3.597-0.155,3.085-4.049c3.203,0.027,6.403,0.039,9.582,0.027
	c0.79-0.032,1.86,0.082,2.634-0.1c1.223-0.289,2.356-1.453,2.291-2.892C42.058,6.78,42.051,6.264,42.036,6.07z M26.188,12.082
	c-1.44-0.075-2.881-0.091-4.323-0.048c-0.064-0.726-0.151-1.452-0.269-2.178c1.601,0.029,3.2,0.052,4.801,0.069
	C26.301,10.643,26.233,11.363,26.188,12.082z M39.3,7.98c-9.467,0.239-19.098,0.355-28.565,0.573
	C9.816,8.564,9.175,8.695,8.896,8.86C8.669,8.665,8.091,8.425,7.7,7.793C7.286,7.297,7.57,6.314,7.516,5.749l0.096-2.401
	c-0.038-0.884,0.59-1.711,1.519-1.642c0.1,0.015,10.279,0.217,10.815,0.234c6.379,0.082,12.846,0.103,19.148,0.122
	c0.904,0.019,0.841,0.942,0.863,1.608c0.035,0.762,0.116,2.707,0.149,3.493C40.094,7.462,39.73,7.883,39.3,7.98z"></path>
</svg>
