<svg xmlns="http://www.w3.org/2000/svg" viewBox="0 0 50 50" id="joys">
  <!-- <rect width="50" height="50" fill="none" stroke="black" /> -->
  <path fill="#FEBE48" transform="translate(3, 0)" d="M22.1,2.1c0,3.4,1.2,9-1.6,11.7c-1.3,1.3-1.9,2.6-2.4,4.3c-1.4,5-0.2,10.9-0.2,16c0,4-2.1,10.7,0.8,14
				c1.8,2.1,7.3,1.5,9.6,1c3.2-0.8,3-4.4,3.3-7.2c0.5-7.1,0.9-14.4,0.8-21.6c0-2.7-1.5-4.7-2.9-6.8c-2-3.1-1.4-7.1-1.5-10.5
				c-0.1-3.2-3-2.3-5.1-2.1c-0.9,0.1-0.8,1,0.1,1c5.2-0.4,3.3,6,4,9.6c0.2,1.3,1.1,2.5,1.8,3.6c1.6,2.4,2.1,4.5,2.1,7.3
				c0,4.8-0.5,9.6-0.6,14.4c-0.1,3-0.2,5.9-0.6,8.9c-0.4,3.1-3.9,2.9-6.3,3c-6.4,0.1-4-11.1-4-14.6c0.1-4-0.3-8-0.3-12
				c0-2.8,0.5-5.5,2.5-7.6c0.5-0.5,1.5-1.3,1.8-2.1c0.9-3.2,0.2-7,0.2-10.3C23.6,1.3,22.1,1.4,22.1,2.1L22.1,2.1z" class="color1e1e1c svgShape"></path>
  <path fill="#FEBE48" transform="translate(3, 0)" d="M22.8 9.2c1.1 0 2.2 0 3.3 0 .3 0 .7-.3.9-.5.1-.1.4-.4 0-.4-1.1 0-2.2 0-3.3 0-.3 0-.7.3-.9.5C22.7 8.9 22.5 9.2 22.8 9.2L22.8 9.2zM21.2 30.1c1.9.9 4 .8 6.1.8 1 0 .4-.7-.3-.7-1.7 0-3.4.1-5-.7C21.6 29.3 20.3 29.7 21.2 30.1L21.2 30.1zM22.6 17.3c-2.8 1.1-1.2 4.6-1.1 6.8.1.8 1.5.5 1.5-.2-.1-1.3-1.5-4.9.1-5.5C24 17.9 23.4 16.9 22.6 17.3L22.6 17.3zM20.7 35.9c.5 2.1 1.2 4.2 1.2 6.3 0 .5 1.3 1.2 1.3.7 0-2.3-.7-4.4-1.2-6.6C21.9 35.9 20.6 35.2 20.7 35.9L20.7 35.9z" class="color1e1e1c svgShape"></path>

  <path fill="#EC5756" transform="scale(0.5) translate(0, 50)" d="M3.8 33.5C0 34.4 0 39.1 1.2 42c2 4.8 7.2 3.4 10.6 1.2.6-.3-.1-1.7-.7-1.3-2.6 1.6-6.9 3.6-9 0-1.3-2.3-.9-6.3 2-7 .8-.2.2-1.5-.3-1.4z"></path>
  <path fill="#EC5756" transform="scale(0.5) translate(0, 50)" d="M11.8 32.7c-1.8 2.9-5 3.4-7.2.7-2.1-2.6.1-5.1 1.8-7 .5-.6-.9-.5-1.2-.2C4 27.7 2.7 29.1 2.3 31c-.3 1.7 1.1 3.8 2.5 4.5 3 1.7 6.7-.1 8.3-2.8.4-.6-1-.4-1.3 0z"></path>
  <path fill="#EC5756" transform="scale(0.5) translate(0, 50)" d="M10.1 35.6c-.5 2.4-.7 5.6 1.6 7.3 3.2 2.4 6.6.4 9.6-1.4.8-.5-.2-1.3-.8-.9-2.4 1.4-5.4 3.6-8 1.2-1.6-1.5-1.3-4.1-.9-6 .1-.8-1.3-.9-1.5-.2z"></path>
  <path fill="#EC5756" transform="scale(0.5) translate(0, 50)" d="M22.1 30.4c-3.4.9-4.8 4.7-3.3 7.8 2 4.1 6.2 2.9 9.6 1.7.7-.2 0-1.5-.6-1.3-2.8.8-5.7 2.2-7.8-.6-1.8-2.4.2-5.7 2.7-6.3.8-.2 0-1.5-.6-1.3zm-8.2-7.8c-1.7 2.7-3.7 5.8-1.9 9 1.2 2.2 3.6 2.4 5.8 2.8.1 0-.5-1.1-.8-1.2-.8-.1-1.6-.3-2.5-.5-1.7-.4-2.1-1.4-2.2-3-.1-2.3 1.3-4.2 2.5-6.1.2-.2-.9-1.1-.9-1z"></path>
  <path fill="#EC5756" transform="scale(0.5) translate(0, 50)" d="M6.1 15.6c-.8 3.3-2.6 6.8 0 9.7 1.6 1.8 4 1.5 6.2 2.2-.1 0-.6-.9-1-1-2-.6-4.5-.1-5.3-2.4-.8-2.5.6-5.1 1.2-7.4.1-.5-1.1-1.1-1.1-1.1z"></path>
  <path fill="#EC5756" transform="scale(0.5) translate(0, 50)" d="M16.9 13.7c.4-2.9.7-5.4-2.3-6.9-2.1-1.1-4.7-.2-6.4 1.2-2.2 1.7-3.3 4.4-2.7 7.2.5 2.4 3.5 2.4 5.5 2.5.3 0 1.5-.8 1.1-.8-1.4-.1-2.9-.1-4.1-.8-1.8-1-1.4-4-.8-5.6 1.2-3.3 4.9-4.4 7.6-2.1 1.7 1.5 1.1 3.8.8 5.8-.1.3 1.2-.1 1.3-.5z"></path>
  <path fill="#EC5756" transform="scale(0.5) translate(0, 50)" d="M25 20.5c.7-5.4-4.8-10-9.9-7.2-2.7 1.5-2.8 5.4-2.3 8 .5 2.5 2.9 3.5 5.1 3.9.5.1 0-1.3-.5-1.4-2.6-.4-3.8-1.6-3.8-4.4 0-2 .5-3.6 2.2-4.8 3.6-2.6 8.8.5 8.2 4.9 0 .4 1 1.6 1 1zm1.3 10c-.6.8-1.5 1.2-2.5.7-.7-.4-1.7.5-.9.9 1.6.8 3.4.4 4.6-.9.6-.7-.7-1.3-1.2-.7z"></path>
  <path fill="#EC5756" transform="scale(0.5) translate(0, 50)" d="M20.9 29.8c0-2.8-.7-6.3 2.1-8.1 3.6-2.2 6.8.7 6.6 4.3 0 .3 1.4 0 1.4-.4.2-4.4-3.3-5.8-7.1-4.9-1.7.4-3.3 1.4-4.1 3-1 1.8-.5 4.5-.4 6.4.1.4 1.5.2 1.5-.3zm9-2.6c-2.9 1.9-3.8 5.9-3 9.1.6 2.6 5.8 3.3 7.8 2.8 3.2-.8 4.1-3.8 3.9-6.8-.2-3.5-3.8-4.9-6.7-6-.7-.3-1.6.6-.7 1 2.1.8 4.4 1.6 5.5 3.7 1.1 2 .3 5.4-1.3 6.7-1.5 1.2-4.2.3-5.7-.2-1.4-.4-1.6-1.5-1.6-2.8-.1-2.7.7-5.4 2.9-6.8.7-.6-.6-1.1-1.1-.7z"></path>
  <path fill="#EC5756" transform="scale(0.5) translate(0, 50)" d="M37.6 28.9c3.7.2 5.5-5.2 3.1-7.6-3.3-3.2-8.6-2.6-11.8.2-.5.5.9.9 1.2.6 2.9-2.5 6.8-3.1 9.7-.2 1.7 1.6.1 6.4-2.4 6.2-1.1-.1-.5.8.2.8z"></path>
  <path fill="#EC5756" transform="scale(0.5) translate(0, 50)" d="M32.7 19.3c2.7-.8.9-4.3-.2-5.7-2.1-2.6-6.7-1.5-9.1-.1-.8.5.4 1.2 1 .9 1.7-1 5-2.1 6.7-.5.7.6 2.7 4 1 4.4-.9.3-.1 1.2.6 1z"></path>
  <path fill="#EC5756" transform="scale(0.5) translate(0, 50)" d="M25.7 12.4c3-1.6.2-5.5-1.6-6.9-2.6-2.1-7 .5-8.8 2.5-.6.7.7 1.3 1.2.7C17.7 7.4 21 5 22.9 6c1.3.8 4 4.2 1.9 5.3-.9.6.3 1.5.9 1.1z"></path>
  <!-- Stem -->
  <path fill="#74AA7D" transform="scale(0.5) translate(0, 50)" d="M30.7 11.9c-.2-6.1 8.8.8 11.3-2.7 1.8-2.4-1-4.4-3.4-4.1-2.8.3-4.6 3.9-2.8 6.3 3.3 4.1 9.9 1.6 12.5 5.7.4-.2.8-.3 1.2-.5-2.1-1.3-2.4-4.9-1.9-7.1.2-.7-1.3-1-1.5-.3-.6 2.7 0 6.6 2.4 8.2.4.2 1.6.2 1.2-.5-.7-1.2-1.5-3-3.1-3.2-1.2-.2-2.3-.2-3.4-.1-1.3 0-2.5-.2-3.6-.8-.5-.2-1-.5-1.4-.7-2.4-3.2-2.1-4.2.7-2.8-2.8.3-4.8-2.2-7.7-1.3-1.7.5-2 2.6-1.9 4.1-.1.5 1.4.6 1.4-.2z"></path>
  
  <path fill="#213551" transform="scale(0.375) translate(85, 90) rotate(340)" d="M42.036,6.07c-0.153-2.35,0.439-5.775-2.846-6.005c-9.357-0.02-19.5,0.092-28.86,0.189c0,0-1.199,0.018-1.199,0.018
	C8.11,0.217,7.02,0.945,6.609,1.889c-0.483,0.92-0.177,2.869-0.234,3.86c0,0,0.018,1.2,0.018,1.2
	C6.359,8.181,7.663,9.557,8.818,9.184c0.205,0.17,0.815,0.32,1.917,0.369c3.224,0.13,6.47,0.215,9.72,0.28
	c-0.161,1.042-0.27,2.083-0.328,3.125c-0.026,0.466,0.327,0.868,0.794,0.902c0.842,0.06,1.685,0.086,2.528,0.107
	c-0.027,1.496-0.111,2.966-0.199,4.487c-2.032,0.844-3.03,2.759-1.002,4.431c0,0,1.962,1.289,1.962,1.289
	c1.271,0.719,0.94,1.066-0.168,1.696c-0.317,0.204-1.145,0.674-1.451,0.878c-2.05,1.055-2.195,3.721-0.097,4.781l0.991,0.543
	c0.481,0.289,1.461,0.645,1.565,1.229c0.02,0.15,0.004,0.247-0.172,0.419c-0.544,0.403-1.665,0.953-2.365,1.401
	c-1.946,1.184-1.781,3.284,0.387,4.268c1.011,0.726,3.544,1.267,1.377,2.491c-0.403,0.265-1.444,0.974-1.863,1.253
	c-2.042,1.577-0.917,3.476,1.108,4.21c1.323,0.691,1.957,0.068,0.493-0.87c-2.381-1.317-1.439-1.924,0.405-2.906
	c0.397-0.242,0.963-0.53,1.336-0.801c1.337-0.865,1.409-2.785-0.011-3.741c-0.834-0.637-2.066-1.089-2.728-1.82
	c0.649-0.818,2.356-1.268,3.183-2.033c1.48-1.201,0.79-3.512-0.734-4.292c-0.644-0.431-1.977-0.924-2.455-1.469
	c-0.224-0.407,0.204-0.749,0.569-0.978c0.307-0.188,1.119-0.71,1.436-0.903c1.306-0.619,2.793-2.453,1.235-4.097
	c-0.785-0.75-2.151-1.353-2.999-1.926c-1.274-0.869,0.345-1.519,1.098-1.955c0.195-0.128,0.323-0.349,0.32-0.6
	c-0.019-1.613-0.058-3.309-0.192-4.965c4.367,0.133,3.597-0.155,3.085-4.049c3.203,0.027,6.403,0.039,9.582,0.027
	c0.79-0.032,1.86,0.082,2.634-0.1c1.223-0.289,2.356-1.453,2.291-2.892C42.058,6.78,42.051,6.264,42.036,6.07z M26.188,12.082
	c-1.44-0.075-2.881-0.091-4.323-0.048c-0.064-0.726-0.151-1.452-0.269-2.178c1.601,0.029,3.2,0.052,4.801,0.069
	C26.301,10.643,26.233,11.363,26.188,12.082z M39.3,7.98c-9.467,0.239-19.098,0.355-28.565,0.573
	C9.816,8.564,9.175,8.695,8.896,8.86C8.669,8.665,8.091,8.425,7.7,7.793C7.286,7.297,7.57,6.314,7.516,5.749l0.096-2.401
	c-0.038-0.884,0.59-1.711,1.519-1.642c0.1,0.015,10.279,0.217,10.815,0.234c6.379,0.082,12.846,0.103,19.148,0.122
	c0.904,0.019,0.841,0.942,0.863,1.608c0.035,0.762,0.116,2.707,0.149,3.493C40.094,7.462,39.73,7.883,39.3,7.98z"></path>
</svg>
