<?xml version="1.0" encoding="UTF-8"?>
<svg version="1.1" xmlns="http://www.w3.org/2000/svg" width="512" height="512">
<path d="M0 0 C5.53714619 3.52802203 9.4040445 8.76713611 13.125 14.0625 C13.67776611 14.83980469 14.23053223 15.61710937 14.80004883 16.41796875 C35.77183549 46.29720685 52.53875092 79.13214381 66 113 C73.42523443 105.65265265 80.1835658 97.83559228 86.75 89.71875 C88.93501569 87.07852271 91.19171391 84.5327028 93.5 82 C97.32489959 77.7992051 100.92116145 73.45618531 104.4921875 69.0390625 C107.38830127 65.52944176 110.37632077 62.10936756 113.375 58.6875 C117.5618048 53.90629846 121.57340313 49.04485273 125.4375 44 C150.07342567 12.02929772 150.07342567 12.02929772 164.6171875 9.5546875 C168.65593228 9.37492141 171.31137035 9.64835933 174.9375 11.5 C179.70511273 17.27892452 180.53459163 23.70831327 180.4375 30.9375 C180.42775146 31.76741455 180.41800293 32.5973291 180.40795898 33.45239258 C179.31136626 72.47994161 153.84332446 112.76407212 131 143 C130.57009766 143.57266602 130.14019531 144.14533203 129.69726562 144.73535156 C123.37430793 153.11211669 116.577466 160.8924545 109.37939453 168.5234375 C106.17939867 171.948849 103.09363168 175.47871923 100 179 C102.05112851 181.12709624 104.04154444 183.03057296 106.42578125 184.78515625 C109.72241371 187.62156081 111.84075997 190.8055559 114.1875 194.4375 C114.62513672 195.09298828 115.06277344 195.74847656 115.51367188 196.42382812 C117.76252303 199.84688858 119.65558092 203.10193574 121 207 C121.7425 206.79375 122.485 206.5875 123.25 206.375 C126.484851 205.93388395 127.32804652 206.19960157 130 208 C131.60888672 210.41650391 131.60888672 210.41650391 133.1796875 213.4765625 C133.77152832 214.61005127 134.36336914 215.74354004 134.97314453 216.91137695 C135.28270081 217.51615875 135.59225708 218.12094055 135.91119385 218.74404907 C137.55573566 221.95351442 139.23975824 225.1421431 140.921875 228.33203125 C141.26320465 228.9810289 141.6045343 229.63002655 141.95620728 230.2986908 C145.18022518 236.40121084 148.61482711 242.37019041 152.125 248.3125 C156.64818978 255.97554631 161.09041505 263.6731417 165.4375 271.4375 C170.5096964 280.47143474 175.77643846 289.37387042 181.13256836 298.24194336 C185.98911155 306.28952219 190.75958882 314.38378461 195.5 322.5 C201.32672272 332.47111418 207.2150931 342.40175076 213.17114258 352.29638672 C218.54084855 361.22096767 223.86939761 370.16959421 229.1875 379.125 C229.59981873 379.81880768 230.01213745 380.51261536 230.43695068 381.22744751 C231.61878804 383.21634207 232.79977647 385.20573801 233.98046875 387.1953125 C234.32777542 387.7797261 234.67508209 388.36413971 235.03291321 388.96626282 C236.02621653 390.64164837 237.01315486 392.3208023 238 394 C238.37436188 394.61244568 238.74872375 395.22489136 239.13442993 395.855896 C241.01074578 398.98706486 241.99233882 400.78548707 242.125 404.5 C240.11474057 410.75414045 235.9854888 414.38838647 230.78515625 418.21484375 C230.07367432 418.74070068 229.36219238 419.26655762 228.62915039 419.80834961 C228.09153076 420.20159424 227.55391113 420.59483887 227 421 C227.83547363 421.01981934 228.67094727 421.03963867 229.53173828 421.06005859 C232.70415045 421.13929229 235.87625603 421.22600283 239.04833984 421.31738281 C241.06723624 421.37339734 243.08635538 421.42119483 245.10546875 421.46875 C268.7759811 422.16837105 268.7759811 422.16837105 278 427 C277.8125 428.875 277.8125 428.875 277 431 C254.88080738 441.76388518 211.27205237 438.67232797 188.62109375 431.1953125 C182.64895387 428.4718031 178.67014985 424.87523019 174.75 419.6875 C174.04121704 418.76445068 174.04121704 418.76445068 173.31811523 417.82275391 C153.51381956 391.71453704 138.47715189 362.22631585 123.96484375 332.96411133 C120.39070256 325.76111246 116.74121586 318.61029098 112.96777344 311.51000977 C108.55642034 303.19911311 104.25860342 294.82996788 99.95211792 286.46444702 C95.35943105 277.54463451 90.74477628 268.63828912 86.00585938 259.79492188 C84.9834393 257.87306582 83.98876273 255.93932623 83 254 C82.11441406 252.31583984 82.11441406 252.31583984 81.2109375 250.59765625 C79.65208949 245.96636909 80.07276548 242.24314238 80.4375 237.4375 C80.91886127 226.54607308 77.04979991 220.88131477 70 213 C69.67 212.34 69.34 211.68 69 211 C59.07186557 207.88728572 47.32891533 208 37 208 C30.55176072 212.03410373 22.75938348 219.16711347 20.12792969 226.39550781 C19.35789301 230.23941797 19.2361628 233.93599107 19.265625 237.84375 C19.18227554 245.04127015 15.15963161 250.29365036 10.3125 255.3125 C6.87225883 258.96460353 3.5841332 262.65405035 0.4375 266.5625 C-3.15082414 271.00849037 -6.9059548 275.25124677 -10.75390625 279.47265625 C-13.06187598 282.06962393 -15.25555863 284.73404013 -17.4375 287.4375 C-21.29708603 292.20996203 -25.37199991 296.73109109 -29.52734375 301.24609375 C-32.74709519 304.83207284 -35.75905176 308.56701492 -38.78515625 312.31640625 C-40.95632827 314.94708557 -43.20241357 317.47942424 -45.5 320 C-48.52282421 323.31989486 -51.42512161 326.69764112 -54.25 330.1875 C-58.39037985 335.29996903 -62.66785955 340.27734471 -66.98901367 345.23657227 C-70.20827299 348.9312713 -73.40478074 352.64315003 -76.57714844 356.37817383 C-82.38626739 363.20990396 -88.38527053 369.83483418 -94.50341797 376.39013672 C-97.06048419 379.14075575 -99.59172606 381.91498409 -102.125 384.6875 C-106.76923077 389.76923077 -106.76923077 389.76923077 -109 392 C-107.48200806 392.06731323 -107.48200806 392.06731323 -105.93334961 392.13598633 C-102.10267083 392.30895659 -98.27286088 392.49725339 -94.44311523 392.68969727 C-92.79975383 392.77024007 -91.15619514 392.84687332 -89.51245117 392.91918945 C-62.31378866 394.12414089 -62.31378866 394.12414089 -55 399 C-55.33 400.32 -55.66 401.64 -56 403 C-57.81039471 403.48706051 -59.62346567 403.96417519 -61.4375 404.4375 C-62.95150391 404.83775391 -62.95150391 404.83775391 -64.49609375 405.24609375 C-72.09439061 406.88095584 -79.67021085 407.16715005 -87.421875 407.203125 C-88.40254944 407.20882507 -89.38322388 407.21452515 -90.39361572 407.22039795 C-92.46438538 407.22979804 -94.53516966 407.23636193 -96.60595703 407.24023438 C-99.69982801 407.24984416 -102.79300584 407.28087604 -105.88671875 407.3125 C-126.83267956 407.42403657 -146.87210332 407.43732641 -162.74609375 392.30859375 C-171.43043354 383.41354208 -176.47184324 373.04708314 -176.6640625 360.4375 C-175.70620697 356.92160677 -173.67230436 355.43976959 -171 353 C-170.03397241 351.99285074 -169.07852292 350.97546956 -168.1328125 349.94921875 C-167.64337158 349.41981689 -167.15393066 348.89041504 -166.6496582 348.3449707 C-166.146521 347.79800537 -165.64338379 347.25104004 -165.125 346.6875 C-164.59543701 346.11281982 -164.06587402 345.53813965 -163.52026367 344.94604492 C-160.19315187 341.32549929 -156.91792945 337.66671271 -153.69921875 333.94921875 C-150.18593962 329.91904339 -146.58253666 325.96853388 -143 322 C-141.49971321 320.33359149 -139.99971128 318.66692647 -138.5 317 C-137.75105469 316.16855469 -137.00210938 315.33710938 -136.23046875 314.48046875 C-134.79266809 312.88151355 -133.35756127 311.28012986 -131.92578125 309.67578125 C-127.29882026 304.50145334 -122.60489334 299.39261683 -117.875 294.3125 C-117.30112549 293.69479736 -116.72725098 293.07709473 -116.13598633 292.44067383 C-113.31258377 289.41689816 -110.45575319 286.44569563 -107.5078125 283.54296875 C-105.23302129 281.28847321 -103.09840934 278.98116048 -101.03051758 276.53662109 C-95.96318884 270.7158121 -90.46346212 265.31936578 -85.00390625 259.87109375 C-83.84465727 258.71116945 -82.68555663 257.55109688 -81.52659607 256.3908844 C-79.10846178 253.9712839 -76.6885492 251.55348029 -74.26733398 249.13696289 C-71.18323528 246.05856078 -68.10364906 242.97568977 -65.02539158 239.89144802 C-62.63612967 237.49855131 -60.24446486 235.10806762 -57.85209465 232.71827888 C-56.71640839 231.58325383 -55.58144814 230.44750181 -54.44726753 229.31097221 C-48.99876023 223.85365558 -43.55978819 218.43422161 -37.66539001 213.4513092 C-35.85792978 211.87619247 -34.17824386 210.21143252 -32.5 208.5 C-28.84801297 204.78951432 -24.99986963 201.33185016 -21 198 C-20.33742187 197.42765625 -19.67484375 196.8553125 -18.9921875 196.265625 C-17 195 -17 195 -13.3125 195.5 C-11.1562521 195.67708405 -11.1562521 195.67708405 -9 195 C-6.0244654 192.19069638 -3.72586087 188.94636792 -1.29638672 185.66455078 C1.01636847 182.69499054 3.61085203 179.98975213 6.1875 177.25 C6.95380737 176.41674194 6.95380737 176.41674194 7.7355957 175.56665039 C9.83772336 173.28166947 11.93525855 171.06060902 14.203125 168.9375 C16.18120141 167.14314878 16.18120141 167.14314878 18 164 C17.74185051 162.00071256 17.74185051 162.00071256 16.8828125 159.93359375 C16.58850342 159.1358252 16.29419434 158.33805664 15.9909668 157.51611328 C15.50043823 156.27063721 15.50043823 156.27063721 15 155 C14.6903833 154.20706543 14.3807666 153.41413086 14.06176758 152.59716797 C13.39543284 150.91568122 12.72282375 149.23667125 12.04492188 147.55981445 C-3.20859314 109.71858771 -18.05029992 66.00751647 -18.5625 24.8125 C-18.57740479 23.9580127 -18.59230957 23.10352539 -18.60766602 22.22314453 C-18.48578894 14.97542514 -16.52653838 8.13903254 -11.9375 2.4375 C-8.14121578 -0.37909797 -4.58630799 -0.53506927 0 0 Z M-3 14 C-4.08643701 50.37552076 5.3737022 83.69913164 17.20391846 117.70349121 C17.98955743 119.96987564 18.76749719 122.23874083 19.54248047 124.50878906 C25.63882025 142.36344801 32.05161923 159.97453497 39.77001953 177.20825195 C40.62994069 179.16005792 41.45086893 181.12929991 42.24169922 183.11010742 C42.65307129 184.1076001 43.06444336 185.10509277 43.48828125 186.1328125 C44.02449097 187.48270264 44.02449097 187.48270264 44.5715332 188.85986328 C45.85710847 191.22900336 45.85710847 191.22900336 48.58544922 192.00683594 C51.32075969 192.4846432 51.32075969 192.4846432 54.39453125 192.6953125 C58.68172191 193.0576103 62.74583974 193.87104553 66.9375 194.8125 C68.0198291 195.02507446 68.0198291 195.02507446 69.12402344 195.24194336 C78.18761076 197.25807296 82.17308469 204.71470811 87.3125 211.8125 C87.95767578 212.69615234 88.60285156 213.57980469 89.26757812 214.49023438 C90.84898069 216.6573416 92.42630743 218.82729103 94 221 C98.77776924 219.4543086 103.49447332 217.91524244 108.0625 215.8125 C108.81660156 215.46832031 109.57070313 215.12414062 110.34765625 214.76953125 C110.89292969 214.51558594 111.43820312 214.26164063 112 214 C106.04260071 203.16498004 100.60928237 193.88450384 89.875 187.4375 C74.92166519 178.40327508 69.88667592 159.3986762 64.54586792 143.5423584 C50.13734244 100.90960944 30.32115889 46.00768178 -3 14 Z M149.375 34.3125 C144.2317889 39.60913075 139.58055723 45.21663457 135 51 C125.05743039 63.26727114 114.79809197 75.25954843 104.51171875 87.23828125 C103.01673505 88.9804974 101.52365734 90.72432664 100.03125 92.46875 C99.04169376 93.62502319 98.05211041 94.78127317 97.0625 95.9375 C96.57378418 96.50871582 96.08506836 97.07993164 95.58154297 97.66845703 C92.36928779 101.41766116 89.13373332 105.14558005 85.88452148 108.86279297 C84.22921389 110.76457493 82.5881059 112.67781467 80.94921875 114.59375 C79.18388098 116.65529299 77.39777432 118.6297289 75.51953125 120.59375 C73.58867529 122.71507725 72.21511299 124.40918639 71 127 C71.22321607 129.30984111 71.22321607 129.30984111 72.1328125 131.640625 C72.43026367 132.51823486 72.72771484 133.39584473 73.03417969 134.30004883 C73.35290039 135.19103271 73.67162109 136.0820166 74 137 C74.54993351 138.654797 75.09942174 140.30974204 75.6484375 141.96484375 C76.22024138 143.62368174 76.79582001 145.28122295 77.375 146.9375 C77.67736572 147.80342773 77.97973145 148.66935547 78.29125977 149.56152344 C80.5312499 155.88299706 83.00918591 161.99080671 86 168 C86.66 168 87.32 168 88 168 C89.79643635 166.10331025 89.79643635 166.10331025 91.75 163.5625 C92.554375 162.55445313 93.35875 161.54640625 94.1875 160.5078125 C94.63480469 159.94610352 95.08210938 159.38439453 95.54296875 158.80566406 C97.08916431 156.8895008 98.66527864 155.00159563 100.25 153.1171875 C108.67007648 143.08381865 116.52250811 132.75367442 124 122 C124.45358887 121.34789551 124.90717773 120.69579102 125.37451172 120.02392578 C132.08535112 110.30935371 138.1698513 100.26389852 144 90 C144.35835938 89.37657715 144.71671875 88.7531543 145.0859375 88.11083984 C155.2367917 70.35161514 167.37369865 46.03780933 167.0625 25.1875 C167.05347656 24.39730469 167.04445313 23.60710937 167.03515625 22.79296875 C167.02355469 22.20128906 167.01195312 21.60960938 167 21 C161.40290089 21 153.10638591 30.64435791 149.375 34.3125 Z M21.2578125 177.6953125 C20.55398437 178.49710938 19.85015625 179.29890625 19.125 180.125 C18.3309375 181.02734375 17.536875 181.9296875 16.71875 182.859375 C15.81164807 183.9055119 14.90545577 184.95243798 14 186 C13.48953125 186.58845703 12.9790625 187.17691406 12.453125 187.78320312 C5.4884452 195.69906919 5.4884452 195.69906919 -1 204 C0.50349377 207.66786393 2.63728792 209.68910393 5.625 212.25 C6.44226563 212.95640625 7.25953125 213.6628125 8.1015625 214.390625 C8.72804687 214.92171875 9.35453125 215.4528125 10 216 C15.62095221 213.57591931 19.52305854 208.92651452 23.8125 204.6875 C24.70904297 203.83220703 25.60558594 202.97691406 26.52929688 202.09570312 C27.37169922 201.26361328 28.21410156 200.43152344 29.08203125 199.57421875 C29.85780518 198.81713623 30.6335791 198.06005371 31.43286133 197.2800293 C33.27001014 195.10749694 33.27001014 195.10749694 32.84667969 192.43603516 C31.66517888 189.0366652 30.09426039 185.87307295 28.4375 182.6875 C28.10814453 182.04232422 27.77878906 181.39714844 27.43945312 180.73242188 C26.63175745 179.15214772 25.81662387 177.57567895 25 176 C22.83374325 175.76753347 22.83374325 175.76753347 21.2578125 177.6953125 Z M-20.625 214.125 C-27.6293108 220.6681778 -27.6293108 220.6681778 -31.05224609 223.7890625 C-43.19038143 234.91068144 -54.76396547 246.61124825 -66.39111328 258.26074219 C-69.41436243 261.28973331 -72.44214391 264.31414816 -75.47123718 267.33729362 C-77.83409334 269.69651911 -80.19454185 272.05814197 -82.55429077 274.42047501 C-83.66977883 275.53662305 -84.78599039 276.65204857 -85.90298462 277.7666893 C-91.32111511 283.17588657 -96.68372635 288.58889944 -101.64685059 294.42666626 C-103.48796032 296.56736118 -105.47432451 298.53479244 -107.5 300.5 C-110.78103368 303.74256259 -113.85459996 307.07047022 -116.85546875 310.5703125 C-119.83448236 313.94544268 -122.91946264 317.21765093 -126 320.5 C-130.19980404 324.97931691 -134.36695359 329.46855631 -138.37109375 334.125 C-140.33665089 336.38751181 -142.35673309 338.59690683 -144.375 340.8125 C-148.37621136 345.2431429 -152.18024126 349.80408881 -155.91015625 354.46484375 C-157.73038559 356.67293504 -159.63636313 358.6970654 -161.625 360.75 C-163.80077397 363.30759503 -163.98974754 363.81545569 -164.1875 367.375 C-160.35317678 379.07977615 -153.19606795 386.7943728 -142.296875 392.3828125 C-140.03432819 393.23417358 -140.03432819 393.23417358 -138.06176758 392.24316406 C-135.88938053 390.93330085 -134.43052736 389.58909896 -132.71484375 387.7265625 C-132.10721191 387.07252441 -131.49958008 386.41848633 -130.87353516 385.74462891 C-130.23464355 385.04515137 -129.59575195 384.34567383 -128.9375 383.625 C-128.27282715 382.90618652 -127.6081543 382.18737305 -126.92333984 381.44677734 C-124.94335815 379.30286937 -122.97115664 377.15202007 -121 375 C-119.9626756 373.87459795 -118.92495698 372.74955905 -117.88671875 371.625 C-115.24620978 368.7605254 -112.62185368 365.8815656 -110 363 C-109.22140625 362.15050781 -108.4428125 361.30101562 -107.640625 360.42578125 C-103.85984563 356.27344253 -100.20896544 352.06246245 -96.6875 347.6875 C-92.79679292 342.87334412 -88.66999534 338.35075666 -84.44213867 333.83666992 C-81.32475274 330.48935757 -78.36440833 327.07013212 -75.5 323.5 C-71.68005989 318.73891522 -67.61061181 314.28726975 -63.44140625 309.8359375 C-60.32431446 306.48883131 -57.36418887 303.06985859 -54.5 299.5 C-51.15697842 295.33333543 -47.64883069 291.39582142 -44 287.5 C-39.51758085 282.71340161 -35.30884183 277.78534602 -31.203125 272.66796875 C-28.93072182 269.91610462 -26.55305169 267.30261857 -24.125 264.6875 C-19.41934399 259.56792055 -15.13645665 254.20930453 -10.890625 248.7109375 C-8.85586875 246.07930061 -6.77921488 243.48794063 -4.671875 240.9140625 C-4.12192871 240.23956055 -3.57198242 239.56505859 -3.00537109 238.87011719 C-1.94053818 237.5670602 -0.87075152 236.26803135 0.20458984 234.97363281 C2.61448388 232.0114546 4.26347082 229.74766363 5 226 C4.38253906 225.52691406 3.76507813 225.05382812 3.12890625 224.56640625 C-2.39249885 220.25517213 -7.4303228 215.73857452 -12.28515625 210.6875 C-15.76698512 207.26119005 -17.77698379 211.45781599 -20.625 214.125 Z M122 221 C121.40050537 221.28721924 120.80101074 221.57443848 120.18334961 221.87036133 C117.43543212 223.18587348 114.6864762 224.49920173 111.9375 225.8125 C110.52307617 226.49022461 110.52307617 226.49022461 109.08007812 227.18164062 C104.09346928 229.56200791 99.09928309 231.87117308 94 234 C104.24712982 256.0493796 115.0930257 277.84643187 126.55517578 299.29003906 C127.95930493 301.92367095 129.35536735 304.56148319 130.74960327 307.20036316 C138.38044552 321.63955817 146.0946962 336.01329857 154.32324219 350.12353516 C155.90326355 352.83404938 157.4761414 355.54862744 159.0479126 358.26393127 C166.65679566 371.39861852 174.29939744 384.48530221 182.73828125 397.11035156 C184.08501115 399.12731932 185.41816399 401.1528582 186.75 403.1796875 C187.64531214 404.53680232 188.54112627 405.89358613 189.4375 407.25 C189.8389624 407.8589209 190.2404248 408.4678418 190.65405273 409.09521484 C191.75138957 410.7422643 192.87502921 412.37170003 194 414 C194.58910156 414.98484375 195.17820312 415.9696875 195.78515625 416.984375 C197.96270483 419.41452871 197.96270483 419.41452871 201.74609375 419.04296875 C206.19508279 418.16429599 210.06410724 416.40432324 214.0625 414.3125 C214.75988281 413.95671875 215.45726562 413.6009375 216.17578125 413.234375 C221.04105904 410.68284774 225.09674525 407.90325475 229 404 C227.71406285 400.60666921 226.24583583 397.51507551 224.41015625 394.38671875 C223.88252686 393.48429443 223.35489746 392.58187012 222.8112793 391.65209961 C222.23418213 390.67378174 221.65708496 389.69546387 221.0625 388.6875 C220.45639893 387.65439697 219.85029785 386.62129395 219.22583008 385.55688477 C217.15606838 382.03464056 215.07962054 378.51642867 213 375 C212.6136438 374.34668701 212.2272876 373.69337402 211.82922363 373.02026367 C204.01485325 359.81106825 196.1767144 346.61629482 188.27450562 333.45944214 C184.6000854 327.33922811 180.95128766 321.20396649 177.3125 315.0625 C176.97372833 314.49073029 176.63495667 313.91896057 176.28591919 313.3298645 C169.13297341 301.25338973 162.04649182 289.13888164 155 277 C154.39833008 275.96552734 153.79666016 274.93105469 153.17675781 273.86523438 C147.31122371 263.77565178 141.4581685 253.68206587 135.82421875 243.4609375 C135.30976952 242.52865074 135.30976952 242.52865074 134.78492737 241.57752991 C133.12671846 238.56987896 131.47532837 235.55876826 129.83422852 232.54174805 C129.24440186 231.46707275 128.6545752 230.39239746 128.046875 229.28515625 C127.52963867 228.33519775 127.01240234 227.38523926 126.47949219 226.40649414 C125.15269128 224.2483627 123.87909959 222.67836804 122 221 Z " fill="#74AA7D" transform="translate(205,51)"/>
<path d="M0 0 C2.5 0.375 2.5 0.375 4.3125 1.5 C6.07659952 4.28542029 5.82502999 6.10712437 5.5 9.375 C4.22728451 11.84803099 2.96786838 13.99104285 1.4140625 16.26953125 C0.78859024 17.21876717 0.78859024 17.21876717 0.15048218 18.18717957 C-0.72919109 19.51667384 -1.61543286 20.84184268 -2.5078125 22.1628418 C-3.87652281 24.18975512 -5.22488741 26.22905843 -6.5703125 28.27148438 C-7.42853758 29.56326471 -8.2878744 30.85430728 -9.1484375 32.14453125 C-9.55371674 32.75488724 -9.95899597 33.36524323 -10.3765564 33.99409485 C-13.26567796 38.25783898 -13.26567796 38.25783898 -15.5 39.375 C-18.4375 39.6875 -18.4375 39.6875 -21.5 39.375 C-23.4375 37.6875 -23.4375 37.6875 -24.5 35.375 C-24.1190761 30.81281787 -22.08925515 27.83403963 -19.5703125 24.0859375 C-19.17931366 23.50083405 -18.78831482 22.91573059 -18.38546753 22.31289673 C-17.5604241 21.08169135 -16.73149453 19.85308225 -15.89892578 18.62695312 C-14.62809243 16.75455626 -13.3697768 14.87422815 -12.11328125 12.9921875 C-3.76237501 0.56435625 -3.76237501 0.56435625 0 0 Z " fill="#FEBE48" transform="translate(329.5,35.625)"/>
<path d="M0 0 C2.375 0.8125 2.375 0.8125 4.375 2.8125 C4.95063379 10.77126282 3.47260343 18.37334519 2.0625 26.1875 C1.84916016 27.45722656 1.63582031 28.72695313 1.41601562 30.03515625 C1.09213867 31.85466797 1.09213867 31.85466797 0.76171875 33.7109375 C0.56795654 34.81099121 0.37419434 35.91104492 0.17456055 37.04443359 C-0.65572202 39.91885917 -1.19125613 41.11349182 -3.625 42.8125 C-7.1875 43.1875 -7.1875 43.1875 -10.625 42.8125 C-15.3233825 35.76492624 -10.78922814 23.21232226 -9.3125 15.3125 C-9.11205078 14.1471875 -8.91160156 12.981875 -8.70507812 11.78125 C-8.39280273 10.110625 -8.39280273 10.110625 -8.07421875 8.40625 C-7.89205811 7.40271484 -7.70989746 6.39917969 -7.5222168 5.36523438 C-6.14804639 1.45548586 -4.18939527 -0.29924252 0 0 Z " fill="#FEBE48" transform="translate(290.625,25.1875)"/>
<path d="M0 0 C2.570458 2.54274416 4.18640821 5.89098551 6 9 C6.63156006 10.03543945 6.63156006 10.03543945 7.27587891 11.09179688 C8.70798102 13.44350136 10.10685282 15.81253865 11.5 18.1875 C11.97010498 18.95956787 12.44020996 19.73163574 12.92456055 20.52709961 C16.15402956 26.18125956 16.15402956 26.18125956 15.34375 30.48828125 C14 33 14 33 13 34 C10.1875 34.3125 10.1875 34.3125 7 34 C2.38035447 30.04054423 -0.25301365 24.89637699 -3.25 19.6875 C-3.80429688 18.76259766 -4.35859375 17.83769531 -4.9296875 16.88476562 C-7.91923753 11.70459704 -9.94664788 8.02195329 -9 2 C-6.12566111 -1.40662387 -4.08543567 -1.25851656 0 0 Z " fill="#FEBE48" transform="translate(254,45)"/>
<path d="M0 0 C3.88629021 0.6534982 6.8904343 1.53597787 10 4.0625 C12.47666626 7.77749939 12.76343956 10.75800037 12 15.0625 C10.07696166 18.47434222 8.65940323 20.49208014 4.875 21.79296875 C0.60880336 22.52081649 -1.51100621 22.31144229 -5.4375 20.3125 C-7.97745246 18.08229784 -9.75475478 16.41780254 -10.37109375 13.01171875 C-10.48819743 9.02330507 -10.37566214 5.83337539 -8.125 2.4375 C-4.71078517 -0.15730327 -4.06524633 -0.285174 0 0 Z " fill="#FEBE48" transform="translate(262,208.9375)"/>
</svg>
