<?xml version="1.0" ?>
<!DOCTYPE svg  PUBLIC '-//W3C//DTD SVG 1.1//EN'  'http://www.w3.org/Graphics/SVG/1.1/DTD/svg11.dtd'>
<!-- Uploaded to: SVG Repo, www.svgrepo.com, Generator: SVG Repo Mixer Tools -->
<svg width="800px" height="800px" viewBox="-6.17 0 156.286 156.286" enable-background="new 0 0 143.951 156.286" id="Layer_1" version="1.1" xml:space="preserve" xmlns="http://www.w3.org/2000/svg" xmlns:xlink="http://www.w3.org/1999/xlink">
<g>
<path d="M143.951,68.123c0.006-4.255-0.89-8.97-3.167-13.763c-7.548-14.965-3.825-23.408-14.639-31.949   c-3.6-2.538-7.173-5.001-10.033-6.957c-2.231-1.524-7.032-5.693-8.655-6.582c-3.146-1.793-7.978-3.345-16.625-4.341   c-1.017-0.115-2.024-0.17-3.018-0.17c-13.312,0.298-24.102,8.868-29.525,14.024C55.909,10.652,49.67,0.131,33.268,0   c-1.382,0-2.502,1.117-2.502,2.499C30.766,3.88,31.886,5,33.268,5c12.028-0.119,17.285,6.815,19.607,12.847   c-2.6-0.434-5.904-0.688-10.269-0.698c-2.775,0-5.974,0.109-9.679,0.363C8.746,19.085,5.412,39.035,5.254,44.274   C3.685,47.308,0.053,55.261,0,65.101c-0.003,4.975,0.999,10.477,3.869,15.775c2.902,5.369,4.644,8.481,5.723,10.324   c0.076,0.13,0.142,0.239,0.211,0.356c-0.409,1.844-0.83,4.51-0.835,7.732c-0.006,5.041,1.076,11.523,5.066,17.868   c7.384,11.032,21.372,15.07,27.918,16.528c1.676,6.109,7.183,17.569,24.128,21.671c2.6,0.636,5.118,0.93,7.52,0.93   c14-0.264,22.595-9.254,26.526-14.57c2.332,0.787,5.472,1.526,9.139,1.55c8.152,0.23,18.775-4.646,24.597-18.793   c4.588-10.675,6.048-19.253,6.048-25.771c0.007-5.243-0.947-9.11-1.867-11.614C140.373,83.595,143.885,76.933,143.951,68.123z    M33.607,27.486c3.509-0.239,6.485-0.337,8.999-0.337c7.104-0.017,10.493,0.847,11.547,1.302l0.073-0.013   c0.669,0.918,1.644,1.603,2.782,1.9c1.837,0.476,3.791-0.129,5.035-1.563c0.003-0.012,3.149-3.636,8.144-7.33   c4.989-3.742,11.622-7.145,17.627-7.084c0.634,0,1.262,0.034,1.886,0.104c4.378,0.488,7.455,1.155,9.533,1.777   c1.648,0.494,4.504,2.905,5.224,3.393l0.009,0.006l0.017,0.012c0.015,0.007,5.213,3.492,11.43,7.807   c1.422,5.039,1.571,13.391,1.358,20.022c0.001,1.634-0.035,3.162-0.088,4.532c-1.471-1.549-3.443-3.565-6.165-6.3   c-7.635-7.393-22.739-12.808-22.878-12.908c-0.696-0.257-1.479-0.19-2.121,0.181c-0.643,0.372-1.089,1.02-1.212,1.751   c-0.009,0.063-0.832,4.948-1.039,10.672c-0.029,0.854-0.044,1.689-0.044,2.501c-0.007,10.678,2.514,17.769,4.448,21.636   c-0.572,0.037-1.188,0.064-1.865,0.064c-3.446,0.003-7.88-0.665-11.654-3.192c-7.366-4.718-17.105-24.035-17.146-24.026   c-0.507-1.03-1.649-1.58-2.77-1.336c-1.122,0.242-1.935,1.218-1.969,2.364c0.011,0.017-0.279,8.273-3.783,16.055   c-2.311,5.537-12.814,13.44-17.178,16.574c-1.503-2.296-4.033-7.012-6.12-15.17c-0.742-2.91-1.045-5.429-1.045-7.611   c0.034-6.865,2.858-10.521,5.354-12.966l0.006-0.006c0.207-0.331,0.763-0.429,0.933-2.05c-0.409-2.603-2.654-2.603-2.734-2.605   c-2.077,0.137-7.507,2.104-12.014,3.846C17.589,34.6,21.523,28.364,33.607,27.486z M26.532,36.7l-0.001-0.002l0.006-0.003   C26.536,36.696,26.534,36.698,26.532,36.7z M131.163,79.071c-1.41,2.744-2.694,4.07-2.646,4.12c-1.508,1.71-1.672,4.208-0.4,6.1   c0,0,0.217,0.228,0.721,1.762c0.5,1.537,1.07,4.045,1.07,7.649c-0.003,5.023-1.108,12.212-5.236,21.824   c-5.078,11.215-10.514,12.508-15.407,12.738c-4.679,0.049-8.418-2.251-8.51-2.104c-1.178-0.674-2.551-0.841-3.854-0.472   c-1.305,0.371-2.384,1.237-3.029,2.427c0.004,0.011-1.764,3.267-5.343,6.652c-3.618,3.423-8.587,6.523-14.929,6.518   c-1.592,0-3.297-0.192-5.145-0.642c-8.87-2.226-12.762-6.42-14.95-10.033c-1.07-1.816-1.646-3.521-1.942-4.724   c-0.297-1.203-0.254-1.641-0.303-1.638c-0.118-2.369-1.88-4.324-4.221-4.689c-0.011,0.003-4.669-0.731-10.242-2.824   c-5.611-2.053-11.688-5.591-14.296-9.897c-2.772-4.413-3.526-8.876-3.532-12.549c-0.006-2.74,0.437-4.824,0.738-6.005   c0.031-0.066,0.078-0.137,0.1-0.201c0.569-1.21,0.518-1.846,0.544-2.283c-0.216-2.307-0.4-1.745-0.433-2.131   c-0.294-0.747-0.756-1.391-1.328-1.901c-0.844-1.409-2.661-4.599-5.926-10.647c-1.946-3.609-2.66-7.35-2.663-11.02   c-0.066-9.082,4.704-16.953,4.565-17.054l0.694-2.793v-0.039c1.225-0.477,2.623-1.016,4.056-1.556   c0.896-0.354,1.838-0.703,2.761-1.033c-1.424,2.782-2.453,6.29-2.435,10.643c0,2.644,0.365,5.582,1.203,8.85   c3.382,13.251,8.322,18.799,8.576,19.069c0.831,0.906,2.188,1.076,3.215,0.402c0.13-0.213,16.387-10.443,20.912-20.067   c1.578-3.543,2.56-7.079,3.177-10.072c3.58,6.249,9.306,15.104,15.152,19.129c4.951,3.29,10.381,4.027,14.429,4.033   c3.788-0.003,6.428-0.656,6.563-0.688c0.835-0.207,1.503-0.826,1.771-1.644c0.271-0.817,0.101-1.71-0.446-2.375   c-0.003-0.003-1.218-1.425-2.62-5.006c-1.402-3.587-2.85-9.16-2.85-16.988c0-0.754,0.012-1.528,0.04-2.323   c0.094-2.64,0.333-5.107,0.551-6.936c4.662,1.964,13.741,6.176,18.199,10.63c4.87,4.781,7.323,7.487,8.504,8.921   c0.587,0.714,0.857,1.111,0.936,1.241l0.006-0.004c0.381,0.936,1.294,1.575,2.346,1.559c1.27-0.021,2.314-0.979,2.447-2.24   c0.006-0.058,0.519-4.957,0.519-11.276c-0.148-4.733,0.17-10.562-0.415-15.826c3.467,3.387,2.632,10.776,9.892,26.981   c1.626,3.452,2.199,6.593,2.202,9.485C133.959,72.477,132.586,76.319,131.163,79.071z" fill="#231F20"/>
<path d="M120.235,94.83c0.087,0.544,0.596,0.918,1.144,0.835c0.544-0.087,0.918-0.599,0.834-1.144   c-0.244-1.574-0.604-3.138-1.082-4.681c-0.161-0.529-0.723-0.823-1.249-0.662c-0.527,0.164-0.823,0.723-0.662,1.25   C119.668,91.879,120.005,93.351,120.235,94.83z" fill="#231F20"/>
<path d="M121.6,100.962c-0.552-0.041-1.03,0.374-1.067,0.927c-0.665,9.345-5.473,18.295-13.858,23.92   c-0.458,0.308-0.582,0.93-0.273,1.388c0.308,0.458,0.93,0.581,1.388,0.273c8.912-5.982,14.034-15.508,14.736-25.439   C122.564,101.479,122.15,100.999,121.6,100.962z" fill="#231F20"/>
</g>
</svg>