<svg xmlns="http://www.w3.org/2000/svg" enable-background="new 0 0 50 50" viewBox="0 0 50 50" id="Alcohol">
  <path fill="#EC5756" d="M22.1,2.1c0,3.4,1.2,9-1.6,11.7c-1.3,1.3-1.9,2.6-2.4,4.3c-1.4,5-0.2,10.9-0.2,16c0,4-2.1,10.7,0.8,14
				c1.8,2.1,7.3,1.5,9.6,1c3.2-0.8,3-4.4,3.3-7.2c0.5-7.1,0.9-14.4,0.8-21.6c0-2.7-1.5-4.7-2.9-6.8c-2-3.1-1.4-7.1-1.5-10.5
				c-0.1-3.2-3-2.3-5.1-2.1c-0.9,0.1-0.8,1,0.1,1c5.2-0.4,3.3,6,4,9.6c0.2,1.3,1.1,2.5,1.8,3.6c1.6,2.4,2.1,4.5,2.1,7.3
				c0,4.8-0.5,9.6-0.6,14.4c-0.1,3-0.2,5.9-0.6,8.9c-0.4,3.1-3.9,2.9-6.3,3c-6.4,0.1-4-11.1-4-14.6c0.1-4-0.3-8-0.3-12
				c0-2.8,0.5-5.5,2.5-7.6c0.5-0.5,1.5-1.3,1.8-2.1c0.9-3.2,0.2-7,0.2-10.3C23.6,1.3,22.1,1.4,22.1,2.1L22.1,2.1z" class="color1e1e1c svgShape"></path>
  <path fill="#E4938B" d="M22.8 9.2c1.1 0 2.2 0 3.3 0 .3 0 .7-.3.9-.5.1-.1.4-.4 0-.4-1.1 0-2.2 0-3.3 0-.3 0-.7.3-.9.5C22.7 8.9 22.5 9.2 22.8 9.2L22.8 9.2zM21.2 30.1c1.9.9 4 .8 6.1.8 1 0 .4-.7-.3-.7-1.7 0-3.4.1-5-.7C21.6 29.3 20.3 29.7 21.2 30.1L21.2 30.1zM22.6 17.3c-2.8 1.1-1.2 4.6-1.1 6.8.1.8 1.5.5 1.5-.2-.1-1.3-1.5-4.9.1-5.5C24 17.9 23.4 16.9 22.6 17.3L22.6 17.3zM20.7 35.9c.5 2.1 1.2 4.2 1.2 6.3 0 .5 1.3 1.2 1.3.7 0-2.3-.7-4.4-1.2-6.6C21.9 35.9 20.6 35.2 20.7 35.9L20.7 35.9z" class="color1e1e1c svgShape"></path>
</svg>
