<?xml version="1.0" encoding="utf-8"?><!-- Uploaded to: SVG Repo, www.svgrepo.com, Generator: SVG Repo Mixer Tools -->
<svg width="800px" height="800px" viewBox="0 0 400 400" fill="none" xmlns="http://www.w3.org/2000/svg">
<path d="M108.379 268.651C111.628 232.41 156.348 250.802 192.527 222.814C228.705 194.826 224.321 167.248 242.437 143.325C269.245 107.923 295.339 107.199 299.951 164.832C308.259 268.651 143.637 350.296 117.192 288.595" stroke="#000000" stroke-opacity="0.9" stroke-width="16" stroke-linecap="round" stroke-linejoin="round"/>
<path d="M101.864 265.602C79.8678 246.965 71.1137 269.903 87.0049 285.74C90.671 289.393 78.0291 291.778 75.7125 296.398C73.7246 300.355 76.1483 314.064 79.8716 316.536C97.12 327.993 110.974 306.922 116.723 294.029" stroke="#000000" stroke-opacity="0.9" stroke-width="16" stroke-linecap="round" stroke-linejoin="round"/>
<path d="M258.582 118.311C263.3 43.9898 283.39 103.209 286.289 105.822C289.06 108.321 293.696 102.354 296.468 99.8552C300.74 96.0036 309.565 84.7134 319.834 92.6736C335.965 105.178 312.221 121.763 304.98 128.286" stroke="#000000" stroke-opacity="0.9" stroke-width="16" stroke-linecap="round" stroke-linejoin="round"/>
<path opacity="0.503384" d="M257.968 215.921C233.504 246.518 218.331 262.224 178.694 277.115" stroke="#000000" stroke-opacity="0.9" stroke-width="14" stroke-linecap="round" stroke-linejoin="round"/>
</svg>