<svg xmlns="http://www.w3.org/2000/svg" viewBox="0 0 50 50" id="grapes">
  <path fill="#EC5756" d="M3.8 33.5C0 34.4 0 39.1 1.2 42c2 4.8 7.2 3.4 10.6 1.2.6-.3-.1-1.7-.7-1.3-2.6 1.6-6.9 3.6-9 0-1.3-2.3-.9-6.3 2-7 .8-.2.2-1.5-.3-1.4z"></path>
  <path fill="#EC5756" d="M11.8 32.7c-1.8 2.9-5 3.4-7.2.7-2.1-2.6.1-5.1 1.8-7 .5-.6-.9-.5-1.2-.2C4 27.7 2.7 29.1 2.3 31c-.3 1.7 1.1 3.8 2.5 4.5 3 1.7 6.7-.1 8.3-2.8.4-.6-1-.4-1.3 0z"></path>
  <path fill="#EC5756" d="M10.1 35.6c-.5 2.4-.7 5.6 1.6 7.3 3.2 2.4 6.6.4 9.6-1.4.8-.5-.2-1.3-.8-.9-2.4 1.4-5.4 3.6-8 1.2-1.6-1.5-1.3-4.1-.9-6 .1-.8-1.3-.9-1.5-.2z"></path>
  <path fill="#EC5756" d="M22.1 30.4c-3.4.9-4.8 4.7-3.3 7.8 2 4.1 6.2 2.9 9.6 1.7.7-.2 0-1.5-.6-1.3-2.8.8-5.7 2.2-7.8-.6-1.8-2.4.2-5.7 2.7-6.3.8-.2 0-1.5-.6-1.3zm-8.2-7.8c-1.7 2.7-3.7 5.8-1.9 9 1.2 2.2 3.6 2.4 5.8 2.8.1 0-.5-1.1-.8-1.2-.8-.1-1.6-.3-2.5-.5-1.7-.4-2.1-1.4-2.2-3-.1-2.3 1.3-4.2 2.5-6.1.2-.2-.9-1.1-.9-1z"></path>
  <path fill="#EC5756" d="M6.1 15.6c-.8 3.3-2.6 6.8 0 9.7 1.6 1.8 4 1.5 6.2 2.2-.1 0-.6-.9-1-1-2-.6-4.5-.1-5.3-2.4-.8-2.5.6-5.1 1.2-7.4.1-.5-1.1-1.1-1.1-1.1z"></path>
  <path fill="#EC5756" d="M16.9 13.7c.4-2.9.7-5.4-2.3-6.9-2.1-1.1-4.7-.2-6.4 1.2-2.2 1.7-3.3 4.4-2.7 7.2.5 2.4 3.5 2.4 5.5 2.5.3 0 1.5-.8 1.1-.8-1.4-.1-2.9-.1-4.1-.8-1.8-1-1.4-4-.8-5.6 1.2-3.3 4.9-4.4 7.6-2.1 1.7 1.5 1.1 3.8.8 5.8-.1.3 1.2-.1 1.3-.5z"></path>
  <path fill="#EC5756" d="M25 20.5c.7-5.4-4.8-10-9.9-7.2-2.7 1.5-2.8 5.4-2.3 8 .5 2.5 2.9 3.5 5.1 3.9.5.1 0-1.3-.5-1.4-2.6-.4-3.8-1.6-3.8-4.4 0-2 .5-3.6 2.2-4.8 3.6-2.6 8.8.5 8.2 4.9 0 .4 1 1.6 1 1zm1.3 10c-.6.8-1.5 1.2-2.5.7-.7-.4-1.7.5-.9.9 1.6.8 3.4.4 4.6-.9.6-.7-.7-1.3-1.2-.7z"></path>
  <path fill="#EC5756" d="M20.9 29.8c0-2.8-.7-6.3 2.1-8.1 3.6-2.2 6.8.7 6.6 4.3 0 .3 1.4 0 1.4-.4.2-4.4-3.3-5.8-7.1-4.9-1.7.4-3.3 1.4-4.1 3-1 1.8-.5 4.5-.4 6.4.1.4 1.5.2 1.5-.3zm9-2.6c-2.9 1.9-3.8 5.9-3 9.1.6 2.6 5.8 3.3 7.8 2.8 3.2-.8 4.1-3.8 3.9-6.8-.2-3.5-3.8-4.9-6.7-6-.7-.3-1.6.6-.7 1 2.1.8 4.4 1.6 5.5 3.7 1.1 2 .3 5.4-1.3 6.7-1.5 1.2-4.2.3-5.7-.2-1.4-.4-1.6-1.5-1.6-2.8-.1-2.7.7-5.4 2.9-6.8.7-.6-.6-1.1-1.1-.7z"></path>
  <path fill="#EC5756" d="M37.6 28.9c3.7.2 5.5-5.2 3.1-7.6-3.3-3.2-8.6-2.6-11.8.2-.5.5.9.9 1.2.6 2.9-2.5 6.8-3.1 9.7-.2 1.7 1.6.1 6.4-2.4 6.2-1.1-.1-.5.8.2.8z"></path>
  <path fill="#EC5756" d="M32.7 19.3c2.7-.8.9-4.3-.2-5.7-2.1-2.6-6.7-1.5-9.1-.1-.8.5.4 1.2 1 .9 1.7-1 5-2.1 6.7-.5.7.6 2.7 4 1 4.4-.9.3-.1 1.2.6 1z"></path>
  <path fill="#EC5756" d="M25.7 12.4c3-1.6.2-5.5-1.6-6.9-2.6-2.1-7 .5-8.8 2.5-.6.7.7 1.3 1.2.7C17.7 7.4 21 5 22.9 6c1.3.8 4 4.2 1.9 5.3-.9.6.3 1.5.9 1.1z"></path>
  <!-- Stem -->
  <path fill="#74AA7D" d="M30.7 11.9c-.2-6.1 8.8.8 11.3-2.7 1.8-2.4-1-4.4-3.4-4.1-2.8.3-4.6 3.9-2.8 6.3 3.3 4.1 9.9 1.6 12.5 5.7.4-.2.8-.3 1.2-.5-2.1-1.3-2.4-4.9-1.9-7.1.2-.7-1.3-1-1.5-.3-.6 2.7 0 6.6 2.4 8.2.4.2 1.6.2 1.2-.5-.7-1.2-1.5-3-3.1-3.2-1.2-.2-2.3-.2-3.4-.1-1.3 0-2.5-.2-3.6-.8-.5-.2-1-.5-1.4-.7-2.4-3.2-2.1-4.2.7-2.8-2.8.3-4.8-2.2-7.7-1.3-1.7.5-2 2.6-1.9 4.1-.1.5 1.4.6 1.4-.2z"></path>
</svg>
